<svg width="32" height="32" viewBox="0 0 32 32" fill="none" xmlns="http://www.w3.org/2000/svg">
<path fill-rule="evenodd" clip-rule="evenodd" d="M0 9C0 4.02944 4.02944 0 9 0H23C27.9706 0 32 4.02944 32 9V23C32 27.9706 27.9706 32 23 32H9C4.02944 32 0 27.9706 0 23V9ZM7.66972 12.6494C9.03371 9.35112 12.2511 7.20002 15.8202 7.20001C20.6818 7.20439 24.6248 11.1385 24.6402 16C24.6483 19.5692 22.5045 22.7914 19.2094 24.1629C15.9142 25.5343 12.1173 24.7847 9.59066 22.2638C7.06401 19.7428 6.30574 15.9476 7.66972 12.6494ZM9.66827 16.0267C9.67194 19.4217 12.4252 22.172 15.8202 22.172V22.152C17.4522 22.1531 19.0176 21.5053 20.1715 20.3513C21.3255 19.1974 21.9733 17.632 21.9722 16C21.9612 12.605 19.202 9.86067 15.8069 9.86803C12.4119 9.87538 9.66461 12.6316 9.66827 16.0267ZM26.2228 7.62843C27.1496 7.47799 27.7789 6.60476 27.6285 5.67801C27.478 4.75125 26.6048 4.12192 25.678 4.27236C24.7513 4.42279 24.122 5.29602 24.2724 6.22278C24.4228 7.14953 25.2961 7.77886 26.2228 7.62843Z" fill="#FCA311"/>
</svg>
