<svg width="34" height="34" viewBox="0 0 34 34" fill="none" xmlns="http://www.w3.org/2000/svg">
<path fill-rule="evenodd" clip-rule="evenodd" d="M1 10C1 5.02944 5.02944 1 10 1H24C28.9706 1 33 5.02944 33 10V24C33 28.9706 28.9706 33 24 33H10C5.02944 33 1 28.9706 1 24V10ZM8.66972 13.6494C10.0337 10.3511 13.2511 8.20002 16.8202 8.20001C21.6818 8.20439 25.6248 12.1385 25.6402 17C25.6483 20.5692 23.5045 23.7914 20.2094 25.1629C16.9142 26.5343 13.1173 25.7847 10.5907 23.2638C8.06401 20.7428 7.30574 16.9476 8.66972 13.6494ZM10.6683 17.0267C10.6719 20.4217 13.4252 23.172 16.8202 23.172V23.152C18.4522 23.1531 20.0176 22.5053 21.1715 21.3513C22.3255 20.1974 22.9733 18.632 22.9722 17C22.9612 13.605 20.202 10.8607 16.8069 10.868C13.4119 10.8754 10.6646 13.6316 10.6683 17.0267ZM27.2228 8.62843C28.1496 8.47799 28.7789 7.60476 28.6285 6.67801C28.478 5.75125 27.6048 5.12192 26.678 5.27236C25.7513 5.42279 25.122 6.29602 25.2724 7.22278C25.4228 8.14953 26.2961 8.77886 27.2228 8.62843Z" fill="#FCA311"/>
</svg>
