<svg width="34" height="34" viewBox="0 0 34 34" fill="none" xmlns="http://www.w3.org/2000/svg">
<path fill-rule="evenodd" clip-rule="evenodd" d="M10 1C5.02944 1 1 5.02944 1 10V24C1 28.9706 5.02944 33 10 33H24C28.9706 33 33 28.9706 33 24V10C33 5.02944 28.9706 1 24 1H10ZM11.5 8.75C11.5 10.2688 10.2688 11.5 8.75 11.5C7.23122 11.5 6 10.2688 6 8.75C6 7.23122 7.23122 6 8.75 6C10.2688 6 11.5 7.23122 11.5 8.75ZM6.91667 13.3333V28H10.5833V13.3333H6.91667ZM17.9167 13.3333H13.3333V28H17.9167V20.2084L17.9167 20.2084C17.9167 18.4364 19.1479 17 20.6667 17C22.1817 17 23.4106 18.4293 23.4167 20.1951V28H28V18.375C28 15.5906 25.5376 13.3333 22.5 13.3333C20.5869 13.3333 18.902 14.2287 17.9167 15.5871V13.3333Z" fill="#14213D"/>
</svg>
