<svg width="32" height="32" viewBox="0 0 32 32" fill="none" xmlns="http://www.w3.org/2000/svg">
<path fill-rule="evenodd" clip-rule="evenodd" d="M9 0C4.02944 0 0 4.02944 0 9V23C0 27.9706 4.02944 32 9 32H23C27.9706 32 32 27.9706 32 23V9C32 4.02944 27.9706 0 23 0H9ZM10.5 7.75C10.5 9.26878 9.26878 10.5 7.75 10.5C6.23122 10.5 5 9.26878 5 7.75C5 6.23122 6.23122 5 7.75 5C9.26878 5 10.5 6.23122 10.5 7.75ZM5.91667 12.3333V27H9.58333V12.3333H5.91667ZM16.9167 12.3333H12.3333V27H16.9167V19.2084L16.9167 19.2084C16.9167 17.4364 18.1479 16 19.6667 16C21.1817 16 22.4106 17.4293 22.4167 19.1951V27H27V17.375C27 14.5906 24.5376 12.3333 21.5 12.3333C19.5869 12.3333 17.902 13.2287 16.9167 14.5871V12.3333Z" fill="#14213D"/>
</svg>
