<svg width="34" height="27" viewBox="0 0 34 27" fill="none" xmlns="http://www.w3.org/2000/svg">
<path d="M20.548 21.6047C18.4177 23.5236 15.1823 23.5236 13.052 21.6047L0 9.8527V20.1007C0 23.8562 3.04446 26.9007 6.8 26.9007H26.8C30.5555 26.9007 33.6 23.8562 33.6 20.1007V9.8527L20.548 21.6047Z" fill="#F0466F"/>
<path d="M15.2 19.2287C16.111 20.0436 17.489 20.0436 18.4 19.2287L33.46 5.6607C33.884 3.1087 32.94 1.9567 30.916 1.0767C29.716 0.5487 28.292 0.5047 27.056 0.5047H6.544C5.308 0.5047 3.892 0.5487 2.684 1.0767C0.660005 1.9567 -0.283995 3.1087 0.140005 5.6607L15.2 19.2287Z" fill="#F0466F"/>
</svg>
