<svg width="34" height="34" viewBox="0 0 34 34" fill="none" xmlns="http://www.w3.org/2000/svg">
<path fill-rule="evenodd" clip-rule="evenodd" d="M18.3999 22.724C17.4889 23.5389 16.111 23.5389 15.1999 22.724L0.139944 9.156C-0.284056 6.604 0.659944 5.452 2.68394 4.572C3.89194 4.044 5.30794 4 6.54394 4H27.0559C28.2919 4 29.7159 4.044 30.9159 4.572C32.9399 5.452 33.8839 6.604 33.4599 9.156L18.3999 22.724ZM13.052 25.1C15.1823 27.0189 18.4177 27.0189 20.548 25.1L33.6 13.348V23.596C33.6 27.3515 30.5555 30.396 26.8 30.396H6.8C3.04446 30.396 0 27.3515 0 23.596V13.348L13.052 25.1Z" fill="#F0466F"/>
</svg>
