<svg width="32" height="32" viewBox="0 0 32 32" fill="none" xmlns="http://www.w3.org/2000/svg">
<path fill-rule="evenodd" clip-rule="evenodd" d="M9 0C4.02945 0 0 4.02942 0 9V23C0 27.9706 4.02945 32 9 32H23C27.9706 32 32 27.9706 32 23V9C32 4.02942 27.9706 0 23 0H9ZM15 11.5C15 12.0244 15.0897 12.5277 15.2545 12.9957C13.6409 12.9398 10.2956 12.2956 6.5 8.5C6 9.5 5.5 12 7.5 14C7.33331 14.1667 6.79999 14.3 5.99997 13.5C5.5 15 6.69998 17.2 9.49997 18C9.16666 18.1667 8.29999 18.4 7.5 18C7.74637 18.8622 8.72101 20.6348 11.2313 21.2994C9.58337 22.3749 7.61469 23.0001 5.5 23.0001H5.46597C5.43164 22.9999 5.39734 22.9996 5.3631 22.9991C7.26398 24.2634 9.54596 25.0001 12 25.0001C18.6274 25.0001 24 19.6274 24 13.0001C24 12.8225 24.0005 12.6556 24.0012 12.4988L26.5 10L24.0047 10.4991L24.0043 10.4957C24.8019 9.69452 25.3336 8.16547 25.5 7.5C25.1372 8.22565 23.9241 8.73193 23.2042 8.94415C22.3922 7.76953 21.036 7 19.5 7C17.0147 7 15 9.01471 15 11.5Z" fill="#FCA311"/>
</svg>
