<svg width="34" height="34" viewBox="0 0 34 34" fill="none" xmlns="http://www.w3.org/2000/svg">
<path fill-rule="evenodd" clip-rule="evenodd" d="M10 1C5.02944 1 1 5.02944 1 10V24C1 28.9706 5.02944 33 10 33H24C28.9706 33 33 28.9706 33 24V10C33 5.02944 28.9706 1 24 1H10ZM16 12.5C16 13.0243 16.0897 13.5277 16.2545 13.9957C14.6409 13.9397 11.2956 13.2956 7.49999 9.5C6.99999 10.5 6.49999 13 8.49999 15C8.33332 15.1667 7.79998 15.3 6.99998 14.5C6.5 16 7.69998 18.2 10.5 19C10.1667 19.1667 9.3 19.4 8.5 19C8.74635 19.8622 9.72099 21.6348 12.2313 22.2994C10.5833 23.3749 8.61467 24 6.5 24C6.4543 24 6.40866 23.9997 6.3631 23.9992C8.26397 25.2634 10.546 26 13 26C19.6274 26 25 20.6275 25 14C25 13.8225 25.0005 13.6556 25.0012 13.4988L27.5 11L25.0047 11.4991L25.0043 11.4957C25.8019 10.6945 26.3336 9.16547 26.5 8.5C26.1372 9.22568 24.9241 9.73193 24.2042 9.94413C23.3922 8.76955 22.036 8 20.5 8C18.0147 8 16 10.0147 16 12.5Z" fill="#FCA311"/>
</svg>
