<svg width="148" height="219" viewBox="0 0 148 219" fill="none" xmlns="http://www.w3.org/2000/svg">
<rect x="2" y="2" width="113.621" height="204.158" rx="14" fill="white" stroke="black" stroke-width="4"/>
<circle cx="29.7922" cy="40.6257" r="13.5419" fill="#17213B"/>
<path fill-rule="evenodd" clip-rule="evenodd" d="M21.1147 51.0227C21.8469 47.8071 24.3208 45.2539 27.4916 44.408C25.4306 43.5173 23.9883 41.4661 23.9883 39.0781C23.9883 35.8728 26.5867 33.2744 29.792 33.2744C32.9972 33.2744 35.5956 35.8728 35.5956 39.0781C35.5956 41.4662 34.1532 43.5175 32.092 44.4081C35.2628 45.2542 37.7366 47.8075 38.4686 51.0232C36.1188 52.9862 33.0933 54.1676 29.792 54.1676C26.4903 54.1676 23.4646 52.986 21.1147 51.0227Z" fill="#E5E5E5"/>
<circle cx="29.7922" cy="83.186" r="13.5419" fill="#DD5471"/>
<path fill-rule="evenodd" clip-rule="evenodd" d="M21.1147 93.583C21.8469 90.3674 24.3208 87.8142 27.4916 86.9683C25.4306 86.0776 23.9883 84.0264 23.9883 81.6384C23.9883 78.4331 26.5867 75.8347 29.792 75.8347C32.9972 75.8347 35.5956 78.4331 35.5956 81.6384C35.5956 84.0265 34.1532 86.0778 32.092 86.9684C35.2628 87.8145 37.7366 90.3678 38.4687 93.5835C36.1188 95.5466 33.0933 96.7279 29.792 96.7279C26.4903 96.7279 23.4646 95.5464 21.1147 93.583Z" fill="#E5E5E5"/>
<circle cx="29.7922" cy="125.746" r="13.5419" fill="#EFA63E"/>
<path fill-rule="evenodd" clip-rule="evenodd" d="M21.1147 136.143C21.8469 132.928 24.3208 130.374 27.4916 129.529C25.4306 128.638 23.9883 126.587 23.9883 124.199C23.9883 120.993 26.5867 118.395 29.792 118.395C32.9972 118.395 35.5956 120.993 35.5956 124.199C35.5956 126.587 34.1532 128.638 32.092 129.529C35.2628 130.375 37.7365 132.928 38.4686 136.144C36.1188 138.107 33.0933 139.288 29.792 139.288C26.4903 139.288 23.4646 138.107 21.1147 136.143Z" fill="#E5E5E5"/>
<circle cx="29.7922" cy="168.307" r="13.5419" fill="#8F2020"/>
<path fill-rule="evenodd" clip-rule="evenodd" d="M21.1147 178.703C21.8469 175.488 24.3208 172.935 27.4916 172.089C25.4306 171.198 23.9883 169.147 23.9883 166.759C23.9883 163.554 26.5867 160.955 29.792 160.955C32.9972 160.955 35.5956 163.554 35.5956 166.759C35.5956 169.147 34.1532 171.198 32.092 172.089C35.2628 172.935 37.7366 175.488 38.4686 178.704C36.1188 180.667 33.0933 181.848 29.792 181.848C26.4903 181.848 23.4646 180.667 21.1147 178.703Z" fill="#E5E5E5"/>
<path d="M52.2331 37.9173H97.5017" stroke="black" stroke-linecap="round" stroke-linejoin="round"/>
<path d="M52.2331 79.7038H97.5017" stroke="black" stroke-linecap="round" stroke-linejoin="round"/>
<path d="M52.2331 123.038H97.5017" stroke="black" stroke-linecap="round" stroke-linejoin="round"/>
<path d="M52.2331 165.598H97.5017" stroke="black" stroke-linecap="round" stroke-linejoin="round"/>
<path d="M52.2331 44.1079H97.5017" stroke="black" stroke-linecap="round" stroke-linejoin="round"/>
<path d="M52.2331 85.8943H97.5017" stroke="black" stroke-linecap="round" stroke-linejoin="round"/>
<path d="M52.2331 129.228H97.5017" stroke="black" stroke-linecap="round" stroke-linejoin="round"/>
<path d="M52.2331 171.789H97.5017" stroke="black" stroke-linecap="round" stroke-linejoin="round"/>
<path d="M95.1802 98.2755C89.1185 108.593 79.0073 131.473 87.055 140.449L95.1802 98.2755Z" fill="#FFE4C3" stroke="black"/>
<path d="M105.627 65.0011C98.5754 65.0011 92.8589 70.7176 92.8589 77.7692C92.601 82.6701 93.5553 92.1623 99.4364 90.9242C100.633 90.6723 101.657 90.4406 102.532 90.2294C103.46 93.6975 100.081 95.4908 98.2755 95.954L97.1148 107.948H108.335L112.204 94.4064C110.347 91.9301 111.431 89.4513 112.204 88.7149C115.914 86.4811 118.395 82.4149 118.395 77.7692C118.395 70.7176 112.679 65.0011 105.627 65.0011Z" fill="#FFE4C3"/>
<path d="M112.204 94.4064C110.347 91.9301 111.431 89.4513 112.204 88.7149C115.914 86.4811 118.395 82.4149 118.395 77.7692C118.395 70.7176 112.679 65.0011 105.627 65.0011C98.5754 65.0011 92.8589 70.7176 92.8589 77.7692C92.601 82.6701 93.5553 92.1623 99.4364 90.9242C100.633 90.6723 101.657 90.4406 102.532 90.2294M107.175 88.7149C107.072 88.8906 105.954 89.4026 102.532 90.2294M98.2755 95.954C100.081 95.4908 103.46 93.6975 102.532 90.2294" stroke="black" stroke-linecap="round" stroke-linejoin="round"/>
<path d="M88.6028 200.033V208.932C89.2218 211.408 92.9878 209.964 94.7933 208.932V201.194L88.6028 200.033Z" fill="#FFE4C3" stroke="black" stroke-linecap="round" stroke-linejoin="round"/>
<path d="M108.722 204.289V211.641C108.722 214.581 112.591 214.155 114.526 213.575V204.289H108.722Z" fill="#FFE4C3" stroke="black" stroke-linecap="round" stroke-linejoin="round"/>
<path d="M84.7337 201.968C79.1622 165.443 89.3766 117.621 95.1803 98.2755L98.2755 95.954V107.174H107.561L112.204 94.4064H114.913C114.268 99.9521 114.448 111.121 120.329 111.43C124.972 130.905 131.473 177.051 120.329 205.837C116.073 206.353 106.633 206.843 102.918 204.676C103.249 196.752 103.403 184.224 102.769 172.762L98.2755 201.968C93.9421 203.825 87.4421 202.742 84.7337 201.968Z" fill="#293E75"/>
<path d="M102.918 171.789L98.2755 201.968C93.9421 203.825 87.4421 202.742 84.7337 201.968C79.1622 165.443 89.3766 117.621 95.1803 98.2755L98.2755 95.954V107.174H107.561L112.204 94.4064H114.913C114.268 99.9521 114.448 111.121 120.329 111.43C124.972 130.905 131.473 177.051 120.329 205.837C116.073 206.353 106.633 206.843 102.918 204.676C103.563 189.2 103.538 156.157 98.2755 147.8" stroke="black" stroke-linecap="round" stroke-linejoin="round"/>
<path d="M92.4719 134.258C92.7814 130.853 94.1485 124.843 94.7933 122.264C97.8886 124.121 105.885 123.038 109.496 122.264C108.567 128.455 109.109 132.84 109.496 134.258C102.377 136.115 95.1802 135.032 92.4719 134.258Z" fill="#17213B" stroke="black" stroke-linecap="round" stroke-linejoin="round"/>
<circle cx="135.806" cy="142.77" r="2.9822" fill="#DD5471" stroke="black" stroke-linecap="round" stroke-linejoin="round"/>
<circle cx="143.544" cy="154.378" r="2.9822" fill="#DD5471" stroke="black" stroke-linecap="round" stroke-linejoin="round"/>
<path d="M118.782 152.056C118.472 153.604 119.943 154.765 120.716 155.152V161.342C117.234 159.665 110.966 155.229 113.752 150.895C117.234 145.479 119.169 150.122 118.782 152.056Z" fill="#DD5471" stroke="black" stroke-linecap="round" stroke-linejoin="round"/>
<path d="M125.746 171.015C123.558 171.015 121.49 165.211 120.716 162.503C121.469 162.214 122.729 164.225 124.199 164.437C126.004 164.698 125.507 163.617 129.228 165.985C133.484 168.693 129.228 171.015 125.746 171.015Z" fill="#DD5471" stroke="black" stroke-linecap="round" stroke-linejoin="round"/>
<circle cx="126.133" cy="157.86" r="7.23823" fill="#DD5471" stroke="black" stroke-linecap="round" stroke-linejoin="round"/>
<circle cx="135.806" cy="151.282" r="7.62514" fill="#DD5471" stroke="black" stroke-linecap="round" stroke-linejoin="round"/>
<path d="M133.905 167.97C132.903 167.884 132.16 167.003 132.245 166L132.826 159.174L132.969 159.186C134.895 159.35 136.323 161.045 136.159 162.971L135.875 166.309C135.79 167.312 134.908 168.055 133.905 167.97Z" fill="#DD5471" stroke="black" stroke-linecap="round" stroke-linejoin="round"/>
<path d="M120.509 143.777C120.129 142.846 120.576 141.783 121.507 141.402C122.438 141.022 123.502 141.469 123.882 142.4L127.203 150.534L127.071 150.588C125.281 151.319 123.238 150.46 122.507 148.671L120.509 143.777Z" fill="#DD5471" stroke="black" stroke-linecap="round" stroke-linejoin="round"/>
<path d="M125.359 120.716C127.173 91.698 119.04 93.3747 114.139 94.4064C114.139 122.651 117.234 145.906 119.556 146.639C126.907 148.961 124.586 133.098 125.359 120.716Z" fill="#FFE4C4" stroke="black" stroke-linecap="round" stroke-linejoin="round"/>
<path d="M94.7933 213.962H80.4776C80.4776 208.081 85.8944 207.385 88.6027 207.772C90.4599 209.938 93.5036 208.674 94.7933 207.772C95.7219 209.938 95.1802 212.801 94.7933 213.962Z" fill="#EFA63E" stroke="black" stroke-linecap="round" stroke-linejoin="round"/>
<path d="M114.913 217.532H100.597C100.597 211.651 106.014 210.954 108.722 211.341C110.579 213.508 113.623 212.244 114.913 211.341C115.841 213.508 115.3 216.371 114.913 217.532Z" fill="#EFA63E" stroke="black" stroke-linecap="round" stroke-linejoin="round"/>
<path d="M102.918 74.2868C97.5017 72.7393 95.6961 73.8999 92.8588 74.2868C92.8588 69.0247 98.0176 65.9038 100.597 65.0011L93.6326 65.7749C93.6326 65.7749 96.341 64.6142 98.2755 63.0666C100.21 61.5189 100.984 60.3582 100.984 60.3582L102.918 64.2272C108.8 62.6796 114.139 66.4197 116.073 68.4832L123.425 64.6141C123.115 66.7808 124.843 69.644 125.746 70.8047L116.847 69.644C123.812 81.2513 114.913 88.2157 112.591 89.7634C110.425 89.4539 108.851 84.9915 108.335 82.799C113.365 76.9954 107.948 78.543 107.948 78.543C107.948 78.543 107.715 76.1135 107.174 76.2215C106.014 75.4477 105.111 75.4477 104.466 75.0608V70.8047L102.918 74.2868Z" fill="black" stroke="black" stroke-linecap="round" stroke-linejoin="round"/>
<rect x="115.991" y="67.8434" width="1.11771" height="3.22452" transform="rotate(-32.6941 115.991 67.8434)" fill="#DD5471" stroke="#DD5471" stroke-linecap="round" stroke-linejoin="round"/>
<rect x="102.777" y="63.0438" width="1.11771" height="5.93458" transform="rotate(65.1576 102.777 63.0438)" fill="#DD5471" stroke="#DD5471" stroke-linecap="round" stroke-linejoin="round"/>
</svg>
