<svg width="220" height="220" viewBox="0 0 220 220" fill="none" xmlns="http://www.w3.org/2000/svg">
<rect x="38" y="3" width="113.621" height="204.158" rx="14" fill="white" stroke="black" stroke-width="4"/>
<circle cx="65.7921" cy="41.6257" r="13.5419" fill="#17213B"/>
<path fill-rule="evenodd" clip-rule="evenodd" d="M57.1146 52.0227C57.8469 48.8071 60.3208 46.2539 63.4916 45.408C61.4306 44.5173 59.9883 42.4661 59.9883 40.0781C59.9883 36.8728 62.5867 34.2744 65.7919 34.2744C68.9972 34.2744 71.5956 36.8728 71.5956 40.0781C71.5956 42.4662 70.1532 44.5175 68.092 45.4081C71.2628 46.2542 73.7365 48.8075 74.4686 52.0232C72.1188 53.9862 69.0933 55.1676 65.7919 55.1676C62.4903 55.1676 59.4646 53.986 57.1146 52.0227Z" fill="#E5E5E5"/>
<circle cx="65.7921" cy="84.186" r="13.5419" fill="#DD5471"/>
<path fill-rule="evenodd" clip-rule="evenodd" d="M57.1146 94.583C57.8469 91.3674 60.3208 88.8142 63.4916 87.9683C61.4306 87.0776 59.9883 85.0264 59.9883 82.6384C59.9883 79.4331 62.5867 76.8347 65.7919 76.8347C68.9972 76.8347 71.5956 79.4331 71.5956 82.6384C71.5956 85.0265 70.1532 87.0778 68.092 87.9684C71.2628 88.8145 73.7365 91.3678 74.4686 94.5835C72.1188 96.5466 69.0933 97.7279 65.7919 97.7279C62.4903 97.7279 59.4646 96.5464 57.1146 94.583Z" fill="#E5E5E5"/>
<circle cx="65.7921" cy="126.746" r="13.5419" fill="#EFA63E"/>
<path fill-rule="evenodd" clip-rule="evenodd" d="M57.1146 137.143C57.8469 133.928 60.3208 131.374 63.4916 130.529C61.4306 129.638 59.9883 127.587 59.9883 125.199C59.9883 121.993 62.5867 119.395 65.7919 119.395C68.9972 119.395 71.5956 121.993 71.5956 125.199C71.5956 127.587 70.1532 129.638 68.092 130.529C71.2627 131.375 73.7365 133.928 74.4686 137.144C72.1188 139.107 69.0933 140.288 65.7919 140.288C62.4903 140.288 59.4646 139.107 57.1146 137.143Z" fill="#E5E5E5"/>
<circle cx="65.7921" cy="169.307" r="13.5419" fill="#8F2020"/>
<path fill-rule="evenodd" clip-rule="evenodd" d="M57.1146 179.703C57.8469 176.488 60.3208 173.935 63.4916 173.089C61.4306 172.198 59.9883 170.147 59.9883 167.759C59.9883 164.554 62.5867 161.955 65.7919 161.955C68.9972 161.955 71.5956 164.554 71.5956 167.759C71.5956 170.147 70.1532 172.198 68.092 173.089C71.2628 173.935 73.7365 176.488 74.4686 179.704C72.1188 181.667 69.0933 182.848 65.7919 182.848C62.4903 182.848 59.4646 181.667 57.1146 179.703Z" fill="#E5E5E5"/>
<path d="M88.233 38.9173H133.502" stroke="black" stroke-linecap="round" stroke-linejoin="round"/>
<path d="M88.233 80.7038H133.502" stroke="black" stroke-linecap="round" stroke-linejoin="round"/>
<path d="M88.233 124.038H133.502" stroke="black" stroke-linecap="round" stroke-linejoin="round"/>
<path d="M88.233 166.598H133.502" stroke="black" stroke-linecap="round" stroke-linejoin="round"/>
<path d="M88.233 45.1079H133.502" stroke="black" stroke-linecap="round" stroke-linejoin="round"/>
<path d="M88.233 86.8943H133.502" stroke="black" stroke-linecap="round" stroke-linejoin="round"/>
<path d="M88.233 130.228H133.502" stroke="black" stroke-linecap="round" stroke-linejoin="round"/>
<path d="M88.233 172.789H133.502" stroke="black" stroke-linecap="round" stroke-linejoin="round"/>
<path d="M131.18 99.2755C125.118 109.593 115.007 132.472 123.055 141.449L131.18 99.2755Z" fill="#FFE4C3" stroke="black"/>
<path d="M141.627 66.0011C134.575 66.0011 128.859 71.7176 128.859 78.7692C128.601 83.6701 129.555 93.1623 135.436 91.9242C136.633 91.6723 137.657 91.4406 138.531 91.2294C139.46 94.6975 136.081 96.4908 134.275 96.954L133.115 108.948H144.335L148.204 95.4064C146.347 92.9301 147.431 90.4513 148.204 89.7149C151.914 87.4811 154.395 83.4149 154.395 78.7692C154.395 71.7176 148.679 66.0011 141.627 66.0011Z" fill="#FFE4C3"/>
<path d="M148.204 95.4064C146.347 92.9301 147.431 90.4513 148.204 89.7149C151.914 87.4811 154.395 83.4149 154.395 78.7692C154.395 71.7176 148.679 66.0011 141.627 66.0011C134.575 66.0011 128.859 71.7176 128.859 78.7692C128.601 83.6701 129.555 93.1623 135.436 91.9242C136.633 91.6723 137.657 91.4406 138.531 91.2294M143.174 89.7149C143.072 89.8906 141.954 90.4026 138.531 91.2294M134.275 96.954C136.081 96.4908 139.46 94.6975 138.531 91.2294" stroke="black" stroke-linecap="round" stroke-linejoin="round"/>
<path d="M124.603 201.033V209.932C125.222 212.408 128.988 210.964 130.793 209.932V202.194L124.603 201.033Z" fill="#FFE4C3" stroke="black" stroke-linecap="round" stroke-linejoin="round"/>
<path d="M144.722 205.289V212.641C144.722 215.581 148.591 215.155 150.526 214.575V205.289H144.722Z" fill="#FFE4C3" stroke="black" stroke-linecap="round" stroke-linejoin="round"/>
<path d="M120.734 202.968C115.162 166.443 125.377 118.621 131.18 99.2755L134.275 96.954V108.174H143.561L148.204 95.4064H150.913C150.268 100.952 150.448 112.121 156.329 112.43C160.972 131.905 167.472 178.051 156.329 206.837C152.073 207.353 142.633 207.843 138.918 205.676C139.249 197.752 139.403 185.224 138.769 173.762L134.275 202.968C129.942 204.825 123.442 203.742 120.734 202.968Z" fill="#293E75"/>
<path d="M138.918 172.789L134.275 202.968C129.942 204.825 123.442 203.742 120.734 202.968C115.162 166.443 125.377 118.621 131.18 99.2755L134.275 96.954V108.174H143.561L148.204 95.4064H150.913C150.268 100.952 150.448 112.121 156.329 112.43C160.972 131.905 167.472 178.051 156.329 206.837C152.073 207.353 142.633 207.843 138.918 205.676C139.563 190.2 139.537 157.157 134.275 148.8" stroke="black" stroke-linecap="round" stroke-linejoin="round"/>
<path d="M128.472 135.258C128.781 131.853 130.148 125.843 130.793 123.264C133.889 125.121 141.885 124.038 145.496 123.264C144.567 129.455 145.109 133.84 145.496 135.258C138.377 137.115 131.18 136.032 128.472 135.258Z" fill="#17213B" stroke="black" stroke-linecap="round" stroke-linejoin="round"/>
<circle cx="171.806" cy="143.77" r="2.9822" fill="#DD5471" stroke="black" stroke-linecap="round" stroke-linejoin="round"/>
<circle cx="179.544" cy="155.378" r="2.9822" fill="#DD5471" stroke="black" stroke-linecap="round" stroke-linejoin="round"/>
<path d="M154.782 153.056C154.472 154.604 155.943 155.765 156.716 156.152V162.342C153.234 160.665 146.966 156.229 149.752 151.895C153.234 146.479 155.169 151.122 154.782 153.056Z" fill="#DD5471" stroke="black" stroke-linecap="round" stroke-linejoin="round"/>
<path d="M161.746 172.015C159.557 172.015 157.49 166.211 156.716 163.503C157.468 163.214 158.729 165.225 160.199 165.437C162.004 165.698 161.507 164.617 165.228 166.985C169.484 169.693 165.228 172.015 161.746 172.015Z" fill="#DD5471" stroke="black" stroke-linecap="round" stroke-linejoin="round"/>
<circle cx="162.133" cy="158.86" r="7.23823" fill="#DD5471" stroke="black" stroke-linecap="round" stroke-linejoin="round"/>
<circle cx="171.806" cy="152.282" r="7.62514" fill="#DD5471" stroke="black" stroke-linecap="round" stroke-linejoin="round"/>
<path d="M168.245 167L168.826 160.174L168.969 160.186C170.895 160.35 172.323 162.045 172.159 163.971L171.875 167.309C171.789 168.312 170.908 169.055 169.905 168.97C168.903 168.884 168.16 168.003 168.245 167Z" fill="#DD5471" stroke="black" stroke-linecap="round" stroke-linejoin="round"/>
<path d="M159.882 143.4L163.203 151.534L163.071 151.588C161.281 152.319 159.238 151.46 158.507 149.671L156.509 144.777C156.129 143.846 156.576 142.783 157.507 142.402C158.438 142.022 159.502 142.469 159.882 143.4Z" fill="#DD5471" stroke="black" stroke-linecap="round" stroke-linejoin="round"/>
<path d="M161.359 121.716C163.173 92.698 155.04 94.3746 150.139 95.4064C150.139 123.651 153.234 146.906 155.556 147.639C162.907 149.961 160.586 134.097 161.359 121.716Z" fill="#FFE4C4" stroke="black" stroke-linecap="round" stroke-linejoin="round"/>
<path d="M130.793 214.962H116.478C116.478 209.081 121.894 208.385 124.603 208.772C126.46 210.938 129.504 209.674 130.793 208.772C131.722 210.938 131.18 213.801 130.793 214.962Z" fill="#EFA63E" stroke="black" stroke-linecap="round" stroke-linejoin="round"/>
<path d="M150.913 218.532H136.597C136.597 212.651 142.014 211.954 144.722 212.341C146.579 214.508 149.623 213.244 150.913 212.341C151.841 214.508 151.3 217.371 150.913 218.532Z" fill="#EFA63E" stroke="black" stroke-linecap="round" stroke-linejoin="round"/>
<path d="M138.918 75.2868C133.502 73.7393 131.696 74.8999 128.859 75.2868C128.859 70.0247 134.018 66.9038 136.597 66.0011L129.633 66.7749C129.633 66.7749 132.341 65.6142 134.276 64.0665C136.21 62.5189 136.984 61.3582 136.984 61.3582L138.918 65.2272C144.8 63.6796 150.139 67.4197 152.073 69.4832L159.425 65.6141C159.115 67.7808 160.843 70.644 161.746 71.8047L152.847 70.644C159.812 82.2513 150.913 89.2157 148.591 90.7634C146.425 90.4538 144.851 85.9915 144.335 83.799C149.365 77.9953 143.948 79.543 143.948 79.543C143.948 79.543 143.715 77.1135 143.174 77.2215C142.014 76.4477 141.111 76.4477 140.466 76.0608V71.8047L138.918 75.2868Z" fill="black" stroke="black" stroke-linecap="round" stroke-linejoin="round"/>
<rect x="151.99" y="68.8434" width="1.11771" height="3.22452" transform="rotate(-32.6941 151.99 68.8434)" fill="#DD5471" stroke="#DD5471" stroke-linecap="round" stroke-linejoin="round"/>
<rect x="138.777" y="64.0438" width="1.11771" height="5.93458" transform="rotate(65.1576 138.777 64.0438)" fill="#DD5471" stroke="#DD5471" stroke-linecap="round" stroke-linejoin="round"/>
</svg>
