<svg width="220" height="220" viewBox="0 0 220 220" fill="none" xmlns="http://www.w3.org/2000/svg">
<path d="M99.1109 28.3514C102.675 27.5289 102.653 21.611 102.196 18.7549L90.1998 17.7267L86.087 36.5771C86.6354 37.948 88.3719 38.0622 89.1716 37.948C89.4001 37.2625 90.2684 35.2061 91.9135 32.4642C93.9699 29.0369 94.6554 29.3796 99.1109 28.3514Z" fill="#FFBDAD" stroke="black" stroke-linecap="round" stroke-linejoin="round"/>
<path d="M88.67 38.448C88.6182 42.4061 88.7375 48.4385 89.233 53.9215C89.4841 56.7004 89.8329 59.3504 90.3084 61.5225C90.5462 62.6085 90.8178 63.5848 91.1288 64.4026C91.4373 65.2137 91.7967 65.9017 92.2258 66.3844C93.4882 67.8046 94.7487 69.0724 96.8987 69.9651C99.0314 70.8506 101.997 71.3504 106.652 71.3504C113.254 71.3504 120.172 71.8979 123.673 72.2575C123.426 72.5025 123.172 72.7709 122.937 73.044C122.678 73.3469 122.432 73.6671 122.25 73.9758C122.151 74.1427 122.057 74.328 121.994 74.5203C117.369 75.199 110.447 76.0907 104.269 76.6243C101.1 76.898 98.1363 77.0767 95.7819 77.0852C94.604 77.0894 93.5887 77.051 92.7814 76.9628C91.9552 76.8726 91.4097 76.7359 91.1252 76.5807C89.1221 75.4881 86.961 74.0239 85.2313 70.9481C85.1198 70.7499 84.8887 70.6519 84.6688 70.7095C84.4488 70.7671 84.2954 70.9658 84.2954 71.1932V82.704C79.0853 79.9693 71.5007 76.0548 64.7895 72.7329C61.2735 70.9926 57.9933 69.413 55.4183 68.2505C54.1314 67.6695 53.0156 67.1904 52.1321 66.847C51.4733 66.591 50.9088 66.396 50.4911 66.2997C50.5844 66.1431 50.735 65.9306 50.9561 65.6589C51.6241 64.8382 52.7779 63.6645 54.285 62.2444C57.2917 59.4113 61.6373 55.6597 66.1271 51.9127C70.6151 48.1671 75.2398 44.4323 78.8008 41.6346C80.5816 40.2355 82.0941 39.0726 83.1893 38.2606C83.7376 37.8541 84.177 37.5387 84.4915 37.3264C84.6497 37.2196 84.7693 37.1436 84.852 37.096C84.8649 37.0886 84.8761 37.0823 84.8857 37.0771H85.8067C86.2167 37.6648 87.1095 38.448 88.4866 38.448H88.67ZM84.9279 37.0555C84.9414 37.0495 84.9395 37.0516 84.9259 37.0564C84.9266 37.0561 84.9273 37.0558 84.9279 37.0555ZM50.3753 66.5478C50.3751 66.5479 50.3754 66.5455 50.3766 66.5403C50.3761 66.5451 50.3755 66.5477 50.3753 66.5478Z" fill="#DD5471" stroke="black" stroke-linecap="round" stroke-linejoin="round"/>
<path d="M75.1196 189.779L75.4624 178.126L82.317 176.412C82.2028 178.24 81.7687 184.158 80.9461 193.206C80.1235 202.255 76.7191 194.692 75.1196 189.779Z" fill="#FFBDAD" stroke="black" stroke-linecap="round" stroke-linejoin="round"/>
<path d="M116.59 118.148C113.506 102.382 95.4552 90.5006 84.7162 83.1889C83.6194 85.3824 81.9743 140.425 75.1196 178.126C78.9582 178.949 81.7458 178.469 82.6598 178.126C83.0025 169.901 102.196 152.421 109.736 143.853C117.276 135.284 119.092 130.934 116.59 118.148Z" fill="black" stroke="black" stroke-linecap="round" stroke-linejoin="round"/>
<path d="M37.4195 135.284L49.4152 136.313L49.0725 140.425C47.0161 140.768 52.157 140.083 40.5041 142.482C31.1817 144.401 34.5634 138.483 37.4195 135.284Z" fill="#FFBDAD" stroke="black" stroke-linecap="round" stroke-linejoin="round"/>
<path d="M104.252 117.805C104.801 105.741 91.2284 89.4723 84.3737 82.8461L64.1525 71.8786L50.1004 66.3949C49.7576 66.8518 47.2899 69.3424 40.161 75.6487C31.25 83.5316 28.963 90.9134 33.6491 100.668C38.1137 109.962 59.3541 114.378 67.237 116.777C75.1199 119.176 74.0917 125.688 69.6362 130.829C66.0717 134.942 54.4416 135.741 49.0721 135.627C48.2495 137.272 48.7294 142.253 49.0721 144.538C53.5277 148.651 70.3216 151.736 84.3737 147.623C98.4258 143.51 103.567 132.885 104.252 117.805Z" fill="#17213B" stroke="black" stroke-linecap="round" stroke-linejoin="round"/>
<path d="M10.1509 30.4898C10.1927 30.2394 10.0401 29.9974 9.79621 29.9271C9.55229 29.8568 9.29439 29.9805 9.19645 30.2147C7.86291 33.4036 6.52773 38.3278 5.8889 43.3189C5.2524 48.2919 5.29369 53.4298 6.79798 56.9926C10.138 64.9031 18.9631 70.6297 28.2208 72.836C37.4342 75.0317 47.3127 73.7914 52.8154 67.4791C57.1887 65.1698 59.6489 61.151 61.6957 57.6774C61.7721 57.5477 61.8479 57.4189 61.9231 57.291C62.873 55.6763 63.7339 54.2127 64.6753 53.0631C65.6858 51.8292 66.7398 51.0204 68.0161 50.7773C68.0546 50.77 68.092 50.7582 68.1277 50.7421C81.7168 44.627 89.6488 34.4996 93.5398 20.7401C93.8069 20.9663 94.1205 21.1904 94.4644 21.3727C95.1443 21.7332 96.0206 21.9689 96.8979 21.618C97.8502 21.2371 98.4252 20.662 98.8957 20.1915L98.908 20.1792C99.3898 19.6973 99.728 19.3729 100.261 19.2397C100.424 19.199 100.588 19.163 100.755 19.1269L100.804 19.1163C100.953 19.0841 101.106 19.0511 101.253 19.0157C101.57 18.9391 101.912 18.8395 102.196 18.6693C102.498 18.4883 102.755 18.2132 102.845 17.8005C102.929 17.4144 102.848 16.9831 102.66 16.5125C102.286 15.578 101.386 14.2412 100.249 13.0164C99.1111 11.7911 97.6773 10.6141 96.2023 10.0609C93.5535 9.06729 90.7399 8.35974 87.5303 8.52372C84.3195 8.68775 80.7504 9.72181 76.5817 12.1535C76.5739 12.158 76.5663 12.1628 76.5588 12.1677C72.2142 15.0261 62.99 21.0767 60.8029 22.4437C58.1356 24.1107 51.7266 27.159 41.5653 26.4816C36.3048 26.1309 32.3531 27.5377 28.9927 29.4143C27.3569 30.3278 25.8586 31.3542 24.4292 32.3334L24.3323 32.3998C22.8665 33.4039 21.4759 34.3513 20.0486 35.1069C18.6218 35.8623 17.1862 36.422 15.8633 36.7154C14.5352 37.01 13.3552 37.0286 12.4175 36.7415C11.4998 36.4606 10.7947 35.8831 10.3795 34.9175C9.95509 33.9303 9.8167 32.4953 10.1509 30.4898Z" fill="#293E75" stroke="black" stroke-linecap="round" stroke-linejoin="round"/>
<path d="M70.3214 195.948C71.4182 193.755 73.9772 190.693 75.1197 189.436C78.1357 196.565 80.2607 194.692 80.9462 192.864C88.075 201.638 85.5159 208.629 83.3453 211.029L70.3214 195.948Z" fill="#DD5471" stroke="black" stroke-linecap="round" stroke-linejoin="round"/>
<path d="M28.8508 133.914C32.6895 132.543 36.848 134.028 38.4474 134.942C34.0604 142.619 37.9904 143.167 40.5038 142.482C39.9554 156.465 32.5067 158.59 28.8508 157.905V133.914Z" fill="#DD5471" stroke="black" stroke-linecap="round" stroke-linejoin="round"/>
<path d="M135.441 73.5922C135.167 71.6729 127.558 71.8785 123.788 72.2213L122.074 74.6204C122.645 75.0774 125.09 76.2655 130.3 77.3623C136.812 78.7332 135.784 75.9914 135.441 73.5922Z" fill="#FFBDAD" stroke="black" stroke-linecap="round" stroke-linejoin="round"/>
<path d="M129.614 71.8786C131.099 69.251 136.058 64.8868 139.896 68.4513C143.735 72.0157 144.695 77.8193 144.695 79.7614L147.094 77.3624C161.626 83.1203 166.858 93.2424 167.658 97.5837L144.695 121.918C129.066 122.74 123.331 109.008 122.417 102.039L125.844 98.6119L123.102 101.011C121.731 92.5112 125.273 81.2467 127.215 76.6769L129.957 77.3624C128.129 81.3609 124.747 91.2088 125.844 98.6119L142.295 82.1606C141.838 76.7911 138.525 66.7376 133.042 72.2214L129.614 71.8786Z" fill="#8F2020"/>
<path d="M147.094 77.3624L122.417 102.039C123.331 109.008 129.066 122.74 144.695 121.918L167.658 97.5837M147.094 77.3624C161.626 83.1203 166.858 93.2424 167.658 97.5837M147.094 77.3624C147.322 82.6176 151.755 94.0192 167.658 97.5837M129.614 71.8786C131.099 69.251 136.058 64.8868 139.896 68.4513C143.735 72.0157 144.695 77.8193 144.695 79.7614L142.295 82.1606C141.838 76.7911 138.525 66.7376 133.042 72.2214L129.614 71.8786ZM127.215 76.6769C125.273 81.2467 121.731 92.5112 123.102 101.011L125.844 98.6119C124.747 91.2088 128.129 81.3609 129.957 77.3624L127.215 76.6769Z" stroke="black" stroke-linecap="round" stroke-linejoin="round"/>
<path d="M184.795 112.664H153.263L144.695 121.918C147.779 123.631 154.977 123.974 165.944 120.204C174.718 117.188 179.882 117.348 181.367 117.805C181.641 115.063 183.766 113.235 184.795 112.664Z" fill="#8F2020" stroke="black" stroke-linecap="round" stroke-linejoin="round"/>
<path d="M147.094 77.3623C147.436 82.7318 152.029 94.2934 167.658 97.5836C166.858 93.2423 161.626 83.1203 147.094 77.3623Z" fill="#580606" stroke="black" stroke-linecap="round" stroke-linejoin="round"/>
<path d="M185.137 112.664C185.023 113.921 184.109 116.777 181.367 118.148C181.482 116.777 182.396 113.761 185.137 112.664Z" fill="#580606" stroke="black" stroke-linecap="round" stroke-linejoin="round"/>
<path d="M31.2498 135.284V155.848M72.7206 195.606L83.3453 207.601" stroke="black" stroke-linecap="round" stroke-linejoin="round"/>
<path d="M178.17 183.61C176.113 181.554 172.96 178.469 174.057 177.098C175.428 175.384 178.17 177.441 179.54 182.925C179.883 181.097 180.911 176.755 182.968 176.413C185.334 176.018 185.024 178.469 181.254 183.61C183.196 183.496 187.077 183.598 187.423 184.638C188.109 186.695 186.052 187.723 181.254 185.666C182.511 186.695 184.887 189.162 184.339 190.807C183.681 192.782 180.18 191.597 179.901 187.253C179.9 189.085 179.365 192.027 177.141 192.521C174.057 193.207 175.77 188.066 178.17 185.666C177.027 186.009 174.194 186.42 172 185.324C169.258 183.953 172 180.526 178.17 183.61Z" fill="#EAFCFF" stroke="black" stroke-linecap="round" stroke-linejoin="round"/>
<circle cx="179.883" cy="184.638" r="1.5564" fill="#F7EB40" stroke="black" stroke-linecap="round" stroke-linejoin="round"/>
<path d="M183.653 204.859C184.296 201.318 186.772 193.96 191.536 192.864C197.491 191.493 185.024 204.174 183.653 204.859C178.969 200.747 170.698 193.069 175.085 195.263C179.472 197.456 182.625 202.575 183.653 204.859Z" fill="#0790A6"/>
<path d="M181.94 191.493C182.739 194.349 184.202 201.021 183.653 204.859M183.653 204.859C184.296 201.318 186.772 193.96 191.536 192.864C197.491 191.493 185.024 204.174 183.653 204.859ZM183.653 204.859C178.969 200.747 170.698 193.069 175.085 195.263C179.472 197.456 182.625 202.575 183.653 204.859ZM183.653 204.859C186.121 199.65 189.251 196.52 190.508 195.606" stroke="black" stroke-linecap="round" stroke-linejoin="round"/>
<path d="M203.061 205.202C202.559 201.751 200.624 194.583 196.901 193.514C192.247 192.178 201.99 204.534 203.061 205.202C206.722 201.195 213.186 193.714 209.758 195.852C206.329 197.989 203.865 202.976 203.061 205.202Z" fill="#0790A6"/>
<path d="M204.4 192.178C203.775 194.961 202.633 201.462 203.061 205.202M203.061 205.202C202.559 201.751 200.624 194.583 196.901 193.514C192.247 192.178 201.99 204.534 203.061 205.202ZM203.061 205.202C206.722 201.195 213.186 193.714 209.758 195.852C206.329 197.989 203.865 202.976 203.061 205.202ZM203.061 205.202C201.133 200.126 198.686 197.076 197.704 196.186" stroke="black" stroke-linecap="round" stroke-linejoin="round"/>
<path d="M182.625 205.888C183.064 205.161 183.809 203.445 183.283 202.398C182.705 201.248 184.666 204.139 184.705 205.449C184.894 204.787 185.286 203.826 185.915 203.27C186.902 202.398 185.586 205.015 186.244 205.451C186.977 204.896 188.29 203.333 187.949 201.371C187.928 201.27 187.908 201.175 187.889 201.089C187.913 201.184 187.933 201.278 187.949 201.371C188.18 202.469 188.547 204.376 188.547 205.015C188.547 205.888 189.205 203.27 190.192 203.27C190.083 203.706 189.929 204.666 190.192 205.015L190.85 205.888H184.599H182.625Z" fill="#22A95A"/>
<path d="M182.625 205.545C183.082 204.973 183.859 203.625 183.31 202.803C182.625 201.775 185.367 204.859 184.681 205.545C184.795 205.088 185.23 204.037 186.052 203.488C187.08 202.803 185.709 204.859 186.395 205.202C187.195 204.745 188.657 203.42 188.108 201.775C188.337 202.575 188.794 204.311 188.794 204.859C188.794 205.545 189.479 203.488 190.508 203.488C190.393 203.831 190.233 204.585 190.508 204.859" stroke="black" stroke-linecap="round" stroke-linejoin="round"/>
<path d="M207.414 185.202C208.942 183.289 211.283 180.42 210.469 179.144C209.451 177.55 207.415 179.463 206.396 184.564C206.142 182.864 205.378 178.826 203.851 178.507C202.094 178.14 202.324 180.42 205.124 185.202C203.681 185.096 200.8 185.191 200.542 186.158C200.033 188.071 201.56 189.028 205.124 187.115C204.191 188.071 202.426 190.367 202.833 191.897C203.322 193.733 205.922 192.631 206.129 188.591C206.129 190.294 206.527 193.031 208.178 193.491C210.469 194.129 209.196 189.347 207.415 187.115C208.263 187.434 210.367 187.816 211.996 186.796C214.032 185.521 211.996 182.333 207.414 185.202Z" fill="#EAFCFF" stroke="black" stroke-linecap="round" stroke-linejoin="round"/>
<path d="M190.166 205.888C190.604 205.161 191.35 203.445 190.824 202.398C190.245 201.248 192.207 204.139 192.246 205.449C192.435 204.787 192.827 203.826 193.456 203.27C194.443 202.398 193.127 205.015 193.785 205.451C194.518 204.896 195.831 203.333 195.49 201.371C195.468 201.27 195.448 201.175 195.43 201.089C195.454 201.184 195.474 201.278 195.49 201.371C195.72 202.469 196.088 204.376 196.088 205.015C196.088 205.888 196.746 203.27 197.733 203.27C197.623 203.706 197.47 204.666 197.733 205.015L198.391 205.888H192.14H190.166Z" fill="#22A95A"/>
<path d="M190.165 205.545C190.622 204.973 191.399 203.625 190.851 202.803C190.165 201.775 192.907 204.859 192.222 205.545C192.336 205.088 192.77 204.037 193.593 203.488C194.621 202.803 193.25 204.859 193.935 205.202C194.735 204.745 196.197 203.42 195.649 201.775C195.878 202.575 196.334 204.311 196.334 204.859C196.334 205.545 197.02 203.488 198.048 203.488C197.934 203.831 197.774 204.585 198.048 204.859" stroke="black" stroke-linecap="round" stroke-linejoin="round"/>
<path d="M205.06 186.009C205.06 186.958 205.685 187.565 206.273 187.565C206.862 187.565 207.487 186.958 207.487 186.009C207.487 185.06 206.862 184.453 206.273 184.453C205.685 184.453 205.06 185.06 205.06 186.009Z" fill="#F7EB40" stroke="black" stroke-linecap="round" stroke-linejoin="round"/>
<path d="M197.705 205.888C198.144 205.161 198.89 203.445 198.363 202.398C197.785 201.248 199.746 204.139 199.785 205.449C199.974 204.787 200.367 203.826 200.995 203.27C201.983 202.398 200.666 205.015 201.324 205.451C202.057 204.896 203.37 203.333 203.029 201.371C203.008 201.27 202.988 201.175 202.97 201.089C202.993 201.184 203.013 201.278 203.029 201.371C203.26 202.469 203.628 204.376 203.628 205.015C203.628 205.888 204.286 203.27 205.273 203.27C205.163 203.706 205.01 204.666 205.273 205.015L205.931 205.888H199.679H197.705Z" fill="#22A95A"/>
<path d="M197.705 205.545C198.162 204.973 198.939 203.625 198.391 202.803C197.705 201.775 200.447 204.859 199.761 205.545C199.876 205.088 200.31 204.037 201.132 203.488C202.161 202.803 200.79 204.859 201.475 205.202C202.275 204.745 203.737 203.42 203.189 201.775C203.417 202.575 203.874 204.311 203.874 204.859C203.874 205.545 204.56 203.488 205.588 203.488C205.474 203.831 205.314 204.585 205.588 204.859" stroke="black" stroke-linecap="round" stroke-linejoin="round"/>
<path d="M205.245 205.888C205.684 205.161 206.43 203.445 205.904 202.398C205.325 201.248 207.287 204.139 207.326 205.449C207.515 204.787 207.907 203.826 208.536 203.27C209.523 202.398 208.207 205.015 208.865 205.451C209.598 204.896 210.911 203.333 210.57 201.371C210.548 201.27 210.528 201.175 210.51 201.089C210.534 201.184 210.554 201.278 210.57 201.371C210.8 202.469 211.168 204.376 211.168 205.015C211.168 205.888 211.826 203.27 212.813 203.27C212.703 203.706 212.55 204.666 212.813 205.015L213.471 205.888H207.22H205.245Z" fill="#22A95A"/>
<path d="M205.245 205.545C205.702 204.973 206.479 203.625 205.931 202.803C205.245 201.775 207.987 204.859 207.302 205.545C207.416 205.088 207.85 204.037 208.672 203.488C209.701 202.803 208.33 204.859 209.015 205.202C209.815 204.745 211.277 203.42 210.729 201.775C210.957 202.575 211.414 204.311 211.414 204.859C211.414 205.545 212.1 203.488 213.128 203.488C213.014 203.831 212.854 204.585 213.128 204.859" stroke="black" stroke-linecap="round" stroke-linejoin="round"/>
<path d="M186.89 130.544C187.358 131.618 188.295 134.32 188.295 136.531M184.547 138.373C185.015 138.373 185.671 139.57 184.547 144.36M182.673 125.017C183.141 124.864 183.797 125.754 182.673 130.544M188.295 120.412C189.389 121.026 191.669 122.806 192.044 125.017" stroke="#293E75" stroke-linecap="round" stroke-linejoin="round"/>
<path d="M189.308 126.659C190.379 128.501 192.428 132.462 192.061 133.567M181.508 144.16C181.508 146.002 181.324 150.055 180.59 151.529M189.308 144.16C189.308 144.16 190.042 144.712 189.308 148.765M192.061 137.712C192.52 138.326 193.438 140.475 193.438 144.16M196.191 133.567C196.803 135.256 198.026 139.186 198.026 141.397M198.026 152.91C198.026 153.985 198.026 156.779 198.026 159.358M190.685 157.976C190.685 159.358 190.41 162.674 189.308 164.884M200.321 146.002C200.78 147.691 201.697 151.436 201.697 152.91M193.438 148.765C193.744 151.221 194.264 156.318 193.897 157.055M186.096 157.055L185.179 162.121M181.508 157.055L180.59 163.503M196.191 164.884C196.497 165.345 196.925 167.095 196.191 170.411M201.697 162.121C202.156 163.656 202.798 167.095 201.697 168.569M206.286 157.976C206.745 159.051 207.662 161.937 207.662 164.884M187.473 168.569C187.32 169.797 186.831 172.714 186.096 174.556" stroke="#293E75" stroke-linecap="round" stroke-linejoin="round"/>
</svg>
