<svg width="226" height="220" viewBox="0 0 226 220" fill="none" xmlns="http://www.w3.org/2000/svg">
<path d="M101.485 21.884C105.332 20.9963 105.307 14.6098 104.814 11.5275L91.8682 10.4178L87.4297 30.7611C88.0215 32.2406 89.8956 32.3639 90.7586 32.2406C91.0052 31.5008 91.9422 29.2816 93.7176 26.3226C95.9369 22.6238 96.6767 22.9937 101.485 21.884Z" fill="#FFBDAD" stroke="black" stroke-linecap="round" stroke-linejoin="round"/>
<g filter="url(#filter0_dd)">
<path d="M94.4577 62.5705C91.2575 58.9703 90.6357 41.1176 90.759 32.6104V32.2406H90.0191C88.5396 32.2406 87.6766 31.2542 87.43 30.761H86.0357C85.0111 30.761 44.8942 62.9404 48.593 63.3103C51.552 63.6062 74.7877 75.5162 86.0357 81.4342V68.1187C87.9707 71.5596 90.3986 73.2013 92.6084 74.4066C95.8633 76.182 116.65 73.6668 126.637 72.1873C126.637 71.2996 128.363 69.5982 129.226 68.8584C126.021 68.4885 117.612 67.7488 109.623 67.7488C99.636 67.7488 97.1489 65.5981 94.4577 62.5705Z" fill="#DD5471"/>
<path d="M90.2571 32.7406C90.1999 37.0104 90.3279 43.5414 90.8641 49.4756C91.135 52.4737 91.5112 55.3318 92.024 57.6737C92.2803 58.8445 92.5729 59.8961 92.9076 60.7762C93.2398 61.6497 93.6257 62.387 94.084 62.9027C95.4453 64.434 96.8007 65.7968 99.1127 66.7568C101.407 67.7094 104.601 68.2488 109.623 68.2488C116.803 68.2488 124.327 68.8485 128.079 69.2365C127.795 69.5158 127.5 69.8259 127.228 70.1418C126.949 70.4678 126.686 70.8114 126.49 71.1418C126.38 71.328 126.276 71.5334 126.21 71.7448C121.219 72.4778 113.735 73.4425 107.055 74.0194C103.635 74.3148 100.435 74.5077 97.8923 74.5169C96.6205 74.5215 95.5231 74.48 94.6497 74.3846C93.7576 74.2871 93.1621 74.1391 92.8478 73.9676C90.6825 72.7866 88.3432 71.2019 86.4715 67.8736C86.36 67.6754 86.1289 67.5774 85.909 67.635C85.6891 67.6926 85.5357 67.8913 85.5357 68.1187V80.6066C79.9115 77.654 71.6951 73.4129 64.4278 69.8158C60.6334 67.9378 57.0939 66.2333 54.3157 64.979C52.9271 64.3521 51.7236 63.8354 50.7712 63.4652C50.0308 63.1775 49.4044 62.9626 48.9531 62.8644C49.0529 62.6882 49.2247 62.4416 49.4856 62.1211C50.2083 61.2332 51.4552 59.965 53.0818 58.4323C56.3274 55.374 61.018 51.3247 65.8634 47.2808C70.7072 43.2384 75.6985 39.2075 79.5418 36.188C81.4638 34.678 83.0963 33.4228 84.2787 32.5461C84.8707 32.1073 85.3454 31.7665 85.6855 31.5369C85.8565 31.4215 85.9865 31.3388 86.077 31.2868C86.0952 31.2763 86.1105 31.2678 86.1231 31.261H87.1477C87.5786 31.8885 88.5353 32.7406 90.0191 32.7406H90.2571ZM86.1625 31.2412C86.1775 31.2345 86.176 31.2367 86.1619 31.2415C86.1621 31.2414 86.1623 31.2413 86.1625 31.2412ZM48.8508 63.0978C48.8506 63.0979 48.8508 63.0958 48.8518 63.0913C48.8514 63.0955 48.851 63.0977 48.8508 63.0978Z" stroke="black" stroke-linecap="round" stroke-linejoin="round"/>
</g>
<path d="M75.5937 196.096L75.9635 183.52L83.3611 181.671C83.2378 183.644 82.7693 190.03 81.8816 199.795C80.9939 209.56 77.3198 201.398 75.5937 196.096Z" fill="#FFBDAD" stroke="black" stroke-linecap="round" stroke-linejoin="round"/>
<path d="M120.349 118.792C117.02 101.778 97.5397 88.9551 85.9502 81.0644C84.7666 83.4316 82.9912 142.834 75.5937 183.52C79.7363 184.408 82.7446 183.89 83.731 183.52C84.1008 174.643 104.814 155.78 112.951 146.533C121.089 137.286 123.049 132.59 120.349 118.792Z" fill="black" stroke="black" stroke-linecap="round" stroke-linejoin="round"/>
<path d="M34.9077 137.286L47.8534 138.395L47.4836 142.834C45.2643 143.204 50.8124 142.464 38.2366 145.053C28.176 147.124 31.8254 140.738 34.9077 137.286Z" fill="#FFBDAD" stroke="black" stroke-linecap="round" stroke-linejoin="round"/>
<path d="M107.033 118.422C107.625 105.402 92.9781 87.8454 85.5805 80.6945L63.7578 68.8584L48.5929 62.9404C48.223 63.4335 45.5598 66.1213 37.8664 72.9271C28.2496 81.4342 25.7815 89.4007 30.8387 99.9281C35.6569 109.958 58.5795 114.723 67.0867 117.312C75.5938 119.901 74.4842 126.929 69.6758 132.477C65.8291 136.916 53.2779 137.779 47.4832 137.656C46.5955 139.431 47.1133 144.807 47.4832 147.272C52.2916 151.711 70.4156 155.04 85.5805 150.601C100.745 146.163 106.294 134.697 107.033 118.422Z" fill="#17213B" stroke="black" stroke-linecap="round" stroke-linejoin="round"/>
<path d="M5.44062 24.1852C5.48235 23.9348 5.32982 23.6928 5.08589 23.6225C4.84197 23.5522 4.58407 23.6759 4.48613 23.9101C3.04855 27.3478 1.60842 32.6585 0.91938 38.0419C0.232669 43.4071 0.278482 48.9431 1.89765 52.778C5.49551 61.2993 15.006 67.4738 24.9898 69.8531C34.9292 72.2218 45.5745 70.8798 51.498 64.0788C56.2106 61.5931 58.8622 57.2635 61.0725 53.5124C61.1551 53.3722 61.237 53.2329 61.3184 53.0947C62.3429 51.353 63.2735 49.7708 64.2916 48.5277C65.3849 47.1926 66.5299 46.3118 67.9202 46.047C67.9586 46.0397 67.9961 46.0279 68.0318 46.0118C82.7049 39.4089 91.2611 28.4691 95.4513 13.5995C95.7476 13.8555 96.1003 14.1115 96.4891 14.3176C97.2176 14.7039 98.1504 14.9532 99.082 14.5805C100.102 14.1725 100.718 13.5567 101.226 13.049L101.238 13.0366C101.757 12.5174 102.129 12.159 102.716 12.0122C102.893 11.9681 103.071 11.9292 103.251 11.8902L103.304 11.8789C103.465 11.8441 103.63 11.8085 103.787 11.7705C104.129 11.6879 104.493 11.5815 104.794 11.4011C105.113 11.2099 105.382 10.9213 105.476 10.4891C105.564 10.0834 105.48 9.62675 105.279 9.12219C104.878 8.1198 103.91 6.68127 102.684 5.36145C101.458 4.04117 99.9157 2.77593 98.3322 2.18195C95.4764 1.11079 92.4458 0.34896 88.9893 0.525546C85.5316 0.702191 81.6859 1.81575 77.1915 4.43747C77.1837 4.44199 77.1761 4.44672 77.1686 4.45166C72.4802 7.53625 62.5249 14.0664 60.1641 15.5419C57.2796 17.3447 50.3549 20.6373 39.3793 19.9056C33.7116 19.5277 29.4546 21.0432 25.8329 23.0657C24.0692 24.0506 22.4536 25.1574 20.9106 26.2144L20.8066 26.2857C19.2249 27.3691 17.7224 28.3928 16.1797 29.2095C14.6376 30.0259 13.0849 30.6315 11.653 30.9491C10.216 31.2678 8.93497 31.2889 7.91414 30.9764C6.91337 30.6701 6.14289 30.0391 5.68998 28.9857C5.2278 27.9107 5.07924 26.3536 5.44062 24.1852Z" fill="#293E75" stroke="black" stroke-linecap="round" stroke-linejoin="round"/>
<path d="M70.4154 202.754C71.599 200.387 74.3607 197.082 75.5936 195.726C78.8486 203.42 81.1418 201.398 81.8816 199.425C89.575 208.894 86.8133 216.439 84.4707 219.029L70.4154 202.754Z" fill="#DD5471" stroke="black" stroke-linecap="round" stroke-linejoin="round"/>
<path d="M25.6604 135.806C29.8031 134.327 34.2909 135.93 36.017 136.916C31.2826 145.201 35.5238 145.793 38.2363 145.053C37.6445 160.144 29.6058 162.437 25.6604 161.698V135.806Z" fill="#DD5471" stroke="black" stroke-linecap="round" stroke-linejoin="round"/>
<path d="M140.692 70.7077C140.396 68.6364 132.185 68.8583 128.116 69.2282L126.267 71.8173C126.883 72.3105 129.522 73.5927 135.144 74.7763C142.172 76.2559 141.062 73.2969 140.692 70.7077Z" fill="#FFBDAD" stroke="black" stroke-linecap="round" stroke-linejoin="round"/>
<path d="M134.404 68.8584C136.007 66.0227 141.358 61.3129 145.501 65.1596C149.643 69.0063 150.679 75.2695 150.679 77.3655L153.268 74.7765C168.951 80.9904 174.598 91.9141 175.461 96.5992L150.679 122.861C133.813 123.748 127.623 108.928 126.637 101.408L130.336 97.7088L127.377 100.298C125.897 91.125 129.719 78.9684 131.815 74.0367L134.774 74.7765C132.801 79.0917 129.152 89.7195 130.336 97.7088L148.09 79.9547C147.596 74.16 144.021 63.3102 138.103 69.2283L134.404 68.8584Z" fill="#8F2020"/>
<path d="M153.268 74.7765L126.637 101.408C127.623 108.928 133.813 123.748 150.679 122.861L175.461 96.5992M153.268 74.7765C168.951 80.9904 174.598 91.9141 175.461 96.5992M153.268 74.7765C153.515 80.4479 158.298 92.7525 175.461 96.5992M134.404 68.8584C136.007 66.0227 141.358 61.3129 145.501 65.1596C149.643 69.0063 150.679 75.2695 150.679 77.3655L148.09 79.9547C147.596 74.16 144.021 63.3102 138.103 69.2283L134.404 68.8584ZM131.815 74.0367C129.719 78.9684 125.897 91.125 127.377 100.298L130.336 97.7088C129.152 89.7195 132.801 79.0917 134.774 74.7765L131.815 74.0367Z" stroke="black" stroke-linecap="round" stroke-linejoin="round"/>
<path d="M193.954 112.874H159.926L150.679 122.86C154.008 124.71 161.775 125.08 173.611 121.011C183.08 117.756 188.653 117.929 190.256 118.422C190.552 115.463 192.845 113.49 193.954 112.874Z" fill="#8F2020" stroke="black" stroke-linecap="round" stroke-linejoin="round"/>
<path d="M153.268 74.7764C153.638 80.5712 158.594 93.0484 175.46 96.5992C174.597 91.9141 168.951 80.9904 153.268 74.7764Z" fill="#580606" stroke="black" stroke-linecap="round" stroke-linejoin="round"/>
<path d="M194.324 112.874C194.201 114.23 193.215 117.312 190.256 118.792C190.379 117.312 191.365 114.057 194.324 112.874Z" fill="#580606" stroke="black" stroke-linecap="round" stroke-linejoin="round"/>
<path d="M28.2494 137.286V159.478M73.0046 202.384L84.4707 215.33" stroke="black" stroke-linecap="round" stroke-linejoin="round"/>
<path d="M186.805 189.439C184.586 187.219 181.183 183.89 182.366 182.411C183.846 180.561 186.805 182.781 188.284 188.699C188.654 186.726 189.764 182.041 191.983 181.671C194.537 181.246 194.202 183.89 190.134 189.439C192.23 189.315 196.417 189.425 196.791 190.548C197.531 192.768 195.312 193.877 190.134 191.658C191.49 192.768 194.054 195.431 193.463 197.206C192.752 199.337 188.974 198.058 188.673 193.371C188.672 195.347 188.095 198.522 185.695 199.055C182.366 199.795 184.216 194.247 186.805 191.658C185.572 192.028 182.514 192.472 180.147 191.288C177.188 189.809 180.147 186.11 186.805 189.439Z" fill="#EAFCFF" stroke="black" stroke-linecap="round" stroke-linejoin="round"/>
<circle cx="188.654" cy="190.548" r="1.71926" fill="#F7EB40" stroke="black" stroke-linecap="round" stroke-linejoin="round"/>
<path d="M192.723 212.371C193.416 208.549 196.089 200.609 201.23 199.425C207.657 197.946 194.202 211.631 192.723 212.371C187.668 207.932 178.741 199.647 183.476 202.014C188.21 204.381 191.613 209.905 192.723 212.371Z" fill="#0790A6"/>
<path d="M190.873 197.946C191.736 201.028 193.315 208.228 192.723 212.371M192.723 212.371C193.416 208.549 196.089 200.609 201.23 199.425C207.657 197.946 194.202 211.631 192.723 212.371ZM192.723 212.371C187.668 207.932 178.741 199.647 183.476 202.014C188.21 204.381 191.613 209.905 192.723 212.371ZM192.723 212.371C195.386 206.749 198.764 203.37 200.12 202.384" stroke="black" stroke-linecap="round" stroke-linejoin="round"/>
<path d="M213.668 212.741C213.126 209.017 211.037 201.28 207.019 200.127C201.997 198.685 212.512 212.02 213.668 212.741C217.618 208.416 224.594 200.343 220.894 202.65C217.194 204.956 214.535 210.338 213.668 212.741Z" fill="#0790A6"/>
<path d="M215.113 198.685C214.439 201.689 213.205 208.704 213.668 212.741M213.668 212.741C213.126 209.017 211.037 201.28 207.019 200.127C201.997 198.685 212.512 212.02 213.668 212.741ZM213.668 212.741C217.618 208.416 224.594 200.343 220.894 202.65C217.194 204.956 214.535 210.338 213.668 212.741ZM213.668 212.741C211.587 207.263 208.946 203.971 207.887 203.01" stroke="black" stroke-linecap="round" stroke-linejoin="round"/>
<path d="M191.613 213.48C192.086 212.696 192.891 210.844 192.323 209.714C191.699 208.473 193.816 211.593 193.858 213.007C194.062 212.293 194.485 211.255 195.164 210.656C196.229 209.714 194.809 212.539 195.519 213.01C196.31 212.41 197.727 210.724 197.359 208.606C197.336 208.497 197.314 208.395 197.294 208.302C197.32 208.404 197.341 208.506 197.359 208.606C197.607 209.791 198.004 211.849 198.004 212.539C198.004 213.481 198.715 210.656 199.78 210.656C199.661 211.127 199.496 212.162 199.78 212.539L200.49 213.48H193.743H191.613Z" fill="#22A95A"/>
<path d="M191.613 213.11C192.106 212.494 192.944 211.039 192.352 210.151C191.613 209.042 194.572 212.371 193.832 213.11C193.955 212.617 194.424 211.483 195.311 210.891C196.421 210.151 194.942 212.371 195.681 212.74C196.544 212.247 198.123 210.817 197.531 209.042C197.777 209.905 198.271 211.779 198.271 212.371C198.271 213.111 199.01 210.891 200.12 210.891C199.997 211.261 199.824 212.075 200.12 212.371" stroke="black" stroke-linecap="round" stroke-linejoin="round"/>
<path d="M218.366 191.157C220.014 189.092 222.541 185.996 221.662 184.619C220.563 182.899 218.366 184.964 217.267 190.469C216.992 188.634 216.168 184.275 214.52 183.931C212.624 183.535 212.872 185.996 215.894 191.157C214.337 191.042 211.227 191.144 210.949 192.189C210.4 194.253 212.048 195.285 215.894 193.221C214.887 194.253 212.982 196.73 213.422 198.382C213.949 200.364 216.755 199.174 216.978 194.814C216.979 196.652 217.408 199.606 219.19 200.102C221.662 200.79 220.289 195.629 218.366 193.221C219.282 193.565 221.552 193.978 223.31 192.877C225.508 191.501 223.31 188.06 218.366 191.157Z" fill="#EAFCFF" stroke="black" stroke-linecap="round" stroke-linejoin="round"/>
<path d="M199.751 213.48C200.224 212.696 201.029 210.844 200.461 209.714C199.837 208.473 201.953 211.593 201.995 213.007C202.2 212.293 202.623 211.255 203.301 210.656C204.367 209.714 202.946 212.539 203.656 213.01C204.448 212.41 205.864 210.724 205.496 208.606C205.474 208.497 205.452 208.395 205.432 208.302C205.458 208.404 205.479 208.506 205.496 208.606C205.745 209.791 206.142 211.849 206.142 212.539C206.142 213.481 206.852 210.656 207.917 210.656C207.799 211.127 207.633 212.162 207.917 212.539L208.628 213.48H201.881H199.751Z" fill="#22A95A"/>
<path d="M199.75 213.11C200.243 212.494 201.082 211.039 200.49 210.151C199.75 209.042 202.709 212.371 201.97 213.11C202.093 212.617 202.561 211.483 203.449 210.891C204.559 210.151 203.079 212.371 203.819 212.74C204.682 212.247 206.26 210.817 205.668 209.042C205.915 209.905 206.408 211.779 206.408 212.371C206.408 213.111 207.148 210.891 208.257 210.891C208.134 211.261 207.962 212.075 208.257 212.371" stroke="black" stroke-linecap="round" stroke-linejoin="round"/>
<path d="M215.785 192.027C215.785 193.066 216.471 193.747 217.134 193.747C217.798 193.747 218.484 193.066 218.484 192.027C218.484 190.989 217.798 190.308 217.134 190.308C216.471 190.308 215.785 190.989 215.785 192.027Z" fill="#F7EB40" stroke="black" stroke-linecap="round" stroke-linejoin="round"/>
<path d="M207.888 213.48C208.361 212.696 209.166 210.844 208.598 209.714C207.974 208.473 210.09 211.593 210.132 213.007C210.337 212.293 210.76 211.255 211.438 210.656C212.504 209.714 211.083 212.539 211.794 213.01C212.585 212.41 214.001 210.724 213.633 208.606C213.611 208.497 213.589 208.395 213.569 208.302C213.595 208.404 213.616 208.506 213.633 208.606C213.882 209.791 214.279 211.849 214.279 212.539C214.279 213.481 214.989 210.656 216.054 210.656C215.936 211.127 215.77 212.162 216.054 212.539L216.765 213.48H210.018H207.888Z" fill="#22A95A"/>
<path d="M207.887 213.11C208.381 212.494 209.219 211.039 208.627 210.151C207.887 209.042 210.847 212.371 210.107 213.11C210.23 212.617 210.699 211.483 211.586 210.891C212.696 210.151 211.216 212.371 211.956 212.74C212.819 212.247 214.397 210.817 213.806 209.042C214.052 209.905 214.545 211.779 214.545 212.371C214.545 213.111 215.285 210.891 216.395 210.891C216.271 211.261 216.099 212.075 216.395 212.371" stroke="black" stroke-linecap="round" stroke-linejoin="round"/>
<path d="M216.025 213.48C216.499 212.696 217.303 210.844 216.735 209.714C216.111 208.473 218.228 211.593 218.27 213.007C218.474 212.293 218.897 211.255 219.576 210.656C220.641 209.714 219.221 212.539 219.931 213.01C220.722 212.41 222.139 210.724 221.771 208.606C221.748 208.497 221.726 208.395 221.706 208.302C221.732 208.404 221.754 208.506 221.771 208.606C222.02 209.791 222.417 211.849 222.417 212.539C222.417 213.481 223.127 210.656 224.192 210.656C224.074 211.127 223.908 212.162 224.192 212.539L224.902 213.48H218.156H216.025Z" fill="#22A95A"/>
<path d="M216.025 213.11C216.518 212.494 217.356 211.039 216.764 210.151C216.025 209.042 218.984 212.371 218.244 213.11C218.367 212.617 218.836 211.483 219.723 210.891C220.833 210.151 219.354 212.371 220.093 212.74C220.956 212.247 222.535 210.817 221.943 209.042C222.189 209.905 222.682 211.779 222.682 212.371C222.682 213.111 223.422 210.891 224.532 210.891C224.409 211.261 224.236 212.075 224.532 212.371" stroke="black" stroke-linecap="round" stroke-linejoin="round"/>
<defs>
<filter id="filter0_dd" x="44.3521" y="30.761" width="88.8741" height="58.6732" filterUnits="userSpaceOnUse" color-interpolation-filters="sRGB">
<feFlood flood-opacity="0" result="BackgroundImageFix"/>
<feColorMatrix in="SourceAlpha" type="matrix" values="0 0 0 0 0 0 0 0 0 0 0 0 0 0 0 0 0 0 127 0"/>
<feOffset dy="4"/>
<feGaussianBlur stdDeviation="2"/>
<feColorMatrix type="matrix" values="0 0 0 0 0 0 0 0 0 0 0 0 0 0 0 0 0 0 0.25 0"/>
<feBlend mode="normal" in2="BackgroundImageFix" result="effect1_dropShadow"/>
<feColorMatrix in="SourceAlpha" type="matrix" values="0 0 0 0 0 0 0 0 0 0 0 0 0 0 0 0 0 0 127 0"/>
<feOffset dy="4"/>
<feGaussianBlur stdDeviation="2"/>
<feColorMatrix type="matrix" values="0 0 0 0 0 0 0 0 0 0 0 0 0 0 0 0 0 0 0.25 0"/>
<feBlend mode="normal" in2="effect1_dropShadow" result="effect2_dropShadow"/>
<feBlend mode="normal" in="SourceGraphic" in2="effect2_dropShadow" result="shape"/>
</filter>
</defs>
</svg>

