<svg width="201" height="211" viewBox="0 0 201 211" fill="none" xmlns="http://www.w3.org/2000/svg">
<path d="M158.522 180.527C167.464 143.265 165.228 136.29 156.2 131.002L142.658 134.098L137.241 145.318C144.593 160.021 147.234 182.075 144.593 190.2C139.563 205.676 143.045 206.063 147.688 206.837C185.605 209.545 168.36 203.344 165.486 202.194C161.617 200.646 158.909 199.962 156.2 198.712C151.17 196.39 156.2 190.2 158.522 180.527Z" fill="#874100" stroke="black" stroke-linecap="round" stroke-linejoin="round"/>
<path d="M41.6743 148.799C47.174 142.2 50.5733 139.127 56.7639 133.71C65.7918 129.841 83.8742 124.425 73.788 145.318C61.7937 170.163 15.7512 198.324 15.7512 201.032C16.1382 211.866 13.0429 210.318 4.53083 210.318C-3.98123 210.318 9.56065 201.419 11.8821 196.777C13.8166 192.908 36.1746 155.399 41.6743 148.799Z" fill="#874100" stroke="black" stroke-linecap="round" stroke-linejoin="round"/>
<path d="M74.9487 147.253C71.5439 141.062 60.3751 135.387 55.2162 133.324C60.3751 123.78 69.532 100.436 86.5561 87.2812L124.473 93.4718V110.109C130.922 112.688 140.724 112.817 158.522 129.842C152.976 132.937 140.492 140.752 134.92 147.253L103.493 129.842C94.9217 135.991 82.2878 143.281 74.9487 147.253Z" fill="#17213B"/>
<path d="M110.782 124.812C102.657 130.436 110.782 124.812 103.493 129.842M103.493 129.842C94.9217 135.991 82.2878 143.281 74.9487 147.253C71.5439 141.062 60.3751 135.387 55.2162 133.324C60.3751 123.78 69.532 100.436 86.5561 87.2812L124.473 93.4718V110.109C130.922 112.688 140.724 112.817 158.522 129.842C152.976 132.937 140.492 140.752 134.92 147.253L103.493 129.842Z" stroke="black" stroke-linecap="round" stroke-linejoin="round"/>
<path d="M138.015 41.2388C130.896 39.3816 122.41 40.4649 119.057 41.2388L125.634 53.62C155.039 53.0009 175.546 47.4294 182.123 44.721C185.992 46.2686 189.861 45.4948 193.731 44.3341C209.826 41.2388 193.215 40.9808 182.897 41.2388C174.54 39.3816 161.101 40.4649 155.426 41.2388C148.307 43.0959 140.853 42.0126 138.015 41.2388Z" fill="#874100" stroke="black" stroke-linecap="round" stroke-linejoin="round"/>
<path d="M67.2106 38.9174C80.2108 35.8221 91.1991 37.6277 95.0682 38.9174L97.7765 45.4948L91.5859 64.0666L88.8775 54.0069C83.925 46.5782 64.1152 57.4891 24.6502 43.5603C23.3605 44.2051 20.1621 45.4948 17.6859 45.4948C-9.8622 46.1139 2.59635 43.1733 12.2691 41.6257C18.4597 40.7229 33.1624 38.9174 42.4482 38.9174C54.0556 38.9174 50.9603 42.7865 67.2106 38.9174Z" fill="#874100" stroke="black" stroke-linecap="round" stroke-linejoin="round"/>
<path d="M108.229 29.4297C108.855 29.5623 109.499 29.6314 110.158 29.6314C120.068 29.4297 120.991 23.915 120.991 16.8634C120.991 9.81174 116.141 4.09528 110.158 4.09528C104.174 4.09528 99.3242 9.81174 99.3242 16.8634C99.3242 21.1246 101.095 24.8983 103.817 27.2176C103.431 30.4053 104.591 33.1136 99.5614 37.7566C100.077 45.8817 103.585 60.9713 113.49 56.3283C123.395 51.6854 118.133 43.5603 114.264 40.078C112.974 39.8201 110.472 34.8934 110.782 29.6314" stroke="black" stroke-linecap="round" stroke-linejoin="round"/>
<path d="M89.2644 60.9713C95.455 52.3045 94.5522 41.6257 94.6812 37.7566H99.711C104.741 68.7095 128.967 51.2985 114.264 40.0781H119.057C130.509 59.8879 126.408 64.4535 126.408 73.3525L124.86 93.8588C115.574 93.6008 94.9133 91.9242 86.556 87.2813L89.2644 60.9713Z" fill="#E5E5E5" stroke="black" stroke-linecap="round" stroke-linejoin="round"/>
<path d="M101.646 15.7026L103.58 12.2204H106.675C110.699 14.6966 114.543 13.2521 115.961 12.2204C125.866 16.8633 123.184 12.8652 120.604 10.2859C121.507 10.1569 123.467 9.43466 124.086 7.57748C125.325 2.31548 119.186 3.06348 115.961 4.09523C115.188 3.06348 112.943 0.999985 110.158 0.999985C107.372 0.999985 104.612 3.06348 103.58 4.09523C100.485 2.54758 93.1338 10.2858 97.3898 17.6371C101.646 24.9885 100.485 21.5062 99.7112 17.6371C99.0921 14.5418 100.743 15.0577 101.646 15.7026Z" fill="black" stroke="black" stroke-linecap="round" stroke-linejoin="round"/>
</svg>
