<svg width="220" height="220" viewBox="0 0 220 220" fill="none" xmlns="http://www.w3.org/2000/svg">
<path d="M119.866 33.612C129.207 33.1995 130.092 27.7682 130.092 20.8634C130.092 13.8117 125.242 8.09528 119.259 8.09528C113.276 8.09528 108.425 13.8117 108.425 20.8634C108.425 25.1246 110.197 28.8983 112.919 31.2176C112.532 34.4053 113.692 37.1136 108.663 41.7566C109.178 49.8817 112.686 64.9713 122.591 60.3283C132.496 55.6854 127.234 47.5602 123.365 44.078C122.106 43.8261 119.689 38.7511 119.866 33.612Z" fill="#874100"/>
<path d="M167.623 184.527C176.565 147.265 174.329 140.29 165.301 135.002L151.759 138.098L146.343 149.318C153.694 164.021 156.335 186.075 153.694 194.2C148.664 209.676 152.146 210.063 156.789 210.837C194.707 213.545 177.461 207.344 174.587 206.194C170.718 204.646 168.01 203.962 165.301 202.712C160.272 200.39 165.301 194.2 167.623 184.527Z" fill="#874100" stroke="black" stroke-linecap="round" stroke-linejoin="round"/>
<path d="M50.7753 152.8C56.275 146.2 59.6743 143.127 65.8649 137.71C74.8928 133.841 92.9752 128.425 82.889 149.318C70.8947 174.163 24.8523 202.324 24.8523 205.032C25.2392 215.866 22.1439 214.318 13.6318 214.318C5.11979 214.318 18.6617 205.42 20.9831 200.777C22.9176 196.908 45.2756 159.399 50.7753 152.8Z" fill="#874100" stroke="black" stroke-linecap="round" stroke-linejoin="round"/>
<path d="M84.0499 151.253C80.645 145.062 69.4762 139.387 64.3174 137.324C69.4762 127.78 78.6331 104.436 95.6572 91.2812L133.575 97.4718V114.109C140.023 116.688 149.825 116.817 167.623 133.842C162.077 136.937 149.593 144.752 144.021 151.253L112.594 133.842C104.023 139.991 91.389 147.281 84.0499 151.253Z" fill="#17213B"/>
<path d="M119.883 128.812C111.758 134.436 119.883 128.812 112.594 133.842M112.594 133.842C104.023 139.991 91.389 147.281 84.0499 151.253C80.645 145.062 69.4762 139.387 64.3174 137.324C69.4762 127.78 78.6331 104.436 95.6572 91.2812L133.575 97.4718V114.109C140.023 116.688 149.825 116.817 167.623 133.842C162.077 136.937 149.593 144.752 144.021 151.253L112.594 133.842Z" stroke="black" stroke-linecap="round" stroke-linejoin="round"/>
<path d="M147.116 45.2388C139.997 43.3816 131.511 44.4649 128.158 45.2388L134.735 57.62C164.14 57.0009 184.647 51.4294 191.224 48.721C195.093 50.2686 198.963 49.4948 202.832 48.3341C218.927 45.2388 202.316 44.9808 191.998 45.2388C183.641 43.3816 170.202 44.4649 164.527 45.2388C157.408 47.0959 149.954 46.0126 147.116 45.2388Z" fill="#874100" stroke="black" stroke-linecap="round" stroke-linejoin="round"/>
<path d="M76.3116 42.9174C89.3118 39.8221 100.3 41.6277 104.169 42.9174L106.878 49.4948L100.687 68.0665L97.9785 58.0068C93.026 50.5781 73.2162 61.4891 33.7512 47.5602C32.4615 48.2051 29.2631 49.4948 26.7869 49.4948C-0.761183 50.1139 11.6974 47.1733 21.3702 45.6257C27.5607 44.7229 42.2634 42.9174 51.5493 42.9174C63.1566 42.9174 60.0613 46.7865 76.3116 42.9174Z" fill="#874100" stroke="black" stroke-linecap="round" stroke-linejoin="round"/>
<path d="M117.33 33.4297C117.956 33.5623 118.601 33.6314 119.259 33.6314C129.169 33.4297 130.092 27.915 130.092 20.8634C130.092 13.8117 125.242 8.09528 119.259 8.09528C113.276 8.09528 108.425 13.8117 108.425 20.8634C108.425 25.1246 110.197 28.8983 112.919 31.2176C112.532 34.4053 113.692 37.1136 108.663 41.7566C109.178 49.8817 112.686 64.9713 122.591 60.3283C132.496 55.6854 127.234 47.5603 123.365 44.078C122.076 43.8201 119.573 38.8934 119.883 33.6314" stroke="black" stroke-linecap="round" stroke-linejoin="round"/>
<path d="M98.3656 64.9713C104.556 56.3045 103.653 45.6257 103.782 41.7566H108.812C113.842 72.7095 138.068 55.2985 123.365 44.0781H128.158C139.61 63.8879 135.509 68.4535 135.509 77.3525L133.961 97.8588C124.676 97.6008 104.015 95.9242 95.6572 91.2813L98.3656 64.9713Z" fill="#E5E5E5" stroke="black" stroke-linecap="round" stroke-linejoin="round"/>
<path d="M110.747 19.7026L112.681 16.2204H115.777C119.8 18.6966 123.644 17.2521 125.062 16.2204C134.967 20.8633 132.285 16.8653 129.705 14.2859C130.608 14.1569 132.569 13.4347 133.188 11.5775C134.426 6.3155 128.287 7.0635 125.062 8.09524C124.289 7.0635 122.045 5 119.259 5C116.473 5 113.713 7.0635 112.681 8.09524C109.586 6.5476 102.235 14.2858 106.491 21.6371C110.747 28.9885 109.586 25.5063 108.812 21.6371C108.193 18.5419 109.844 19.0577 110.747 19.7026Z" fill="black" stroke="black" stroke-linecap="round" stroke-linejoin="round"/>
<path d="M152.383 142.74L113.692 132.294L110.984 133.842L142.711 151.253C145.806 147.229 150.449 143.901 152.383 142.74Z" fill="black"/>
</svg>
