<svg width="32" height="33" viewBox="0 0 32 33" fill="none" xmlns="http://www.w3.org/2000/svg">
<path d="M22.668 0.700684H9.332C4.18082 0.707295 0.00661115 4.8815 0 10.0327V23.3687C0.00661115 28.5199 4.18082 32.6941 9.332 32.7007H13.064V21.5727H9.404C9.22064 21.5727 9.072 21.424 9.072 21.2407V16.7007C9.072 16.5173 9.22064 16.3687 9.404 16.3687H13.064V12.7007C13.064 12.4727 12.936 9.90068 14.556 8.16468C15.496 7.15668 16.82 6.64868 18.496 6.64868H22.764C22.9474 6.64868 23.096 6.79733 23.096 6.98068V11.1527C23.096 11.336 22.9474 11.4847 22.764 11.4847H20.364C19.832 11.4847 18.6 11.6647 18.6 13.3407V16.3687H22.56C22.6584 16.367 22.7524 16.4096 22.816 16.4847C22.878 16.5593 22.9056 16.6566 22.892 16.7527L22.148 21.2367C22.124 21.3989 21.9839 21.5184 21.82 21.5167H18.552V32.7007H22.668C27.8192 32.6941 31.9934 28.5199 32 23.3687V10.0327C31.9934 4.8815 27.8192 0.707295 22.668 0.700684V0.700684Z" fill="#14213D"/>
</svg>
