<svg xmlns="http://www.w3.org/2000/svg" xmlns:xlink="http://www.w3.org/1999/xlink" version="1.1" x="0px" y="0px" style="enable-background:new 0 0 850.39 850.39;" xml:space="preserve" viewBox="207.24 335 459.7 138.37">
<style type="text/css">
	.st0{fill:#A5DBD1;stroke:#A5DBD1;stroke-miterlimit:10;}
	.st1{fill:none;stroke:#A5DBD1;stroke-width:0.25;stroke-miterlimit:10;}
	.st2{fill:#A5DBD1;stroke:#A5DBD1;stroke-width:0.25;stroke-miterlimit:10;}
	.st3{fill:#A5DBD1;}
	.st4{fill:#E2D279;}
</style>
<g id="Layer_1">
	<g>
		<path class="st0" d="M244.24,443.22c1.63,1.62,2.96,3.41,3.98,5.38c1.02,1.97,1.53,4.22,1.53,6.75c0,2.12-0.4,4.11-1.19,5.95    c-0.79,1.85-1.86,3.48-3.21,4.89c-1.35,1.42-2.96,2.58-4.82,3.49c-1.86,0.91-3.86,1.47-6.01,1.67h-26.78v-53.08h24.02    c2.04,0.15,3.98,0.67,5.81,1.55c1.84,0.88,3.46,2.04,4.86,3.45c1.4,1.42,2.51,3.06,3.33,4.93c0.81,1.87,1.22,3.89,1.22,6.07    C247,437.41,246.08,440.39,244.24,443.22z M219.07,439.58h10.86c1.48,0,2.75-0.51,3.83-1.54c1.07-1.03,1.61-2.3,1.61-3.8    c0-1.45-0.52-2.7-1.57-3.73c-1.05-1.03-2.33-1.57-3.86-1.62h-10.86V439.58z M232.61,460.74c1.48,0,2.77-0.52,3.86-1.55    c1.1-1.04,1.65-2.31,1.65-3.83c0-1.46-0.54-2.73-1.61-3.79s-2.37-1.62-3.9-1.67h-13.54v10.84H232.61z"/>
		<path class="st0" d="M289.23,471.36l-10.86-16.38h-8.42v16.38h-11.48v-53.08h23.03c2.5,0,4.87,0.48,7.12,1.44    c2.24,0.96,4.21,2.26,5.89,3.91c1.68,1.64,3.02,3.58,4.02,5.8c0.99,2.22,1.49,4.62,1.49,7.2c0,3.49-0.89,6.66-2.68,9.52    c-1.79,2.86-4.13,5.07-7.04,6.63l12.24,18.58H289.23z M280.28,444.36c1.07,0,2.08-0.2,3.02-0.61c0.94-0.4,1.76-0.96,2.45-1.67    c0.69-0.71,1.24-1.53,1.65-2.46c0.41-0.93,0.61-1.93,0.61-3s-0.2-2.06-0.61-3c-0.41-0.93-0.96-1.76-1.65-2.46    c-0.69-0.71-1.51-1.26-2.45-1.67c-0.94-0.4-1.95-0.61-3.02-0.61h-10.33v15.47H280.28z"/>
		<path class="st0" d="M322.59,471.36h-11.48v-53.08h11.48V471.36z"/>
		<path class="st0" d="M355.03,418.28c3.67,0,7.13,0.7,10.37,2.09c3.24,1.39,6.07,3.27,8.49,5.65c2.42,2.38,4.35,5.18,5.78,8.42    c1.43,3.24,2.14,6.7,2.14,10.39c0,3.64-0.7,7.07-2.1,10.28c-1.4,3.21-3.3,6.03-5.7,8.45c-2.4,2.43-5.23,4.34-8.49,5.73    c-3.27,1.39-6.76,2.08-10.48,2.08h-21.88v-53.08H355.03z M354.26,460.36c2.14,0,4.17-0.4,6.08-1.21s3.57-1.91,4.97-3.3    c1.4-1.39,2.51-3.03,3.33-4.93c0.81-1.9,1.22-3.93,1.22-6.1c0-2.12-0.41-4.13-1.22-6.03c-0.82-1.9-1.93-3.55-3.33-4.97    c-1.4-1.41-3.06-2.53-4.97-3.34c-1.91-0.81-3.94-1.21-6.08-1.21h-9.64v31.09H354.26z"/>
		<path class="st0" d="M445.24,442.69c0.05,0.35,0.08,0.71,0.08,1.06c0,0.35,0,0.71,0,1.06c0,3.84-0.7,7.46-2.1,10.84    c-1.4,3.39-3.34,6.36-5.81,8.91c-2.47,2.55-5.39,4.58-8.76,6.07c-3.37,1.49-7.01,2.24-10.94,2.24c-3.88,0-7.54-0.73-10.98-2.2    c-3.44-1.47-6.45-3.46-9.03-5.99c-2.58-2.53-4.62-5.5-6.12-8.91c-1.51-3.41-2.26-7.06-2.26-10.96c0-3.84,0.74-7.46,2.22-10.84    c1.48-3.39,3.49-6.36,6.04-8.91c2.55-2.55,5.56-4.57,9.03-6.07c3.47-1.49,7.17-2.24,11.09-2.24c4.54,0,8.61,1.01,12.2,3.03    c3.6,2.02,6.72,4.85,9.37,8.49l-9.33,6.29c-0.61-0.91-1.34-1.79-2.18-2.65c-0.84-0.86-1.79-1.63-2.83-2.31    c-1.05-0.68-2.18-1.23-3.4-1.63s-2.5-0.61-3.83-0.61c-2.3,0-4.46,0.48-6.5,1.44c-2.04,0.96-3.83,2.24-5.36,3.83    c-1.53,1.59-2.73,3.45-3.6,5.57c-0.87,2.12-1.3,4.32-1.3,6.6c0,2.28,0.43,4.47,1.3,6.6c0.87,2.12,2.07,3.98,3.6,5.57    c1.53,1.59,3.31,2.87,5.36,3.83c2.04,0.96,4.21,1.44,6.5,1.44c3.26,0,6.15-0.9,8.65-2.69c2.5-1.79,4.39-4.11,5.66-6.94h-14.31    v-9.93H445.24z"/>
		<path class="st0" d="M488.69,460.74v10.62H454.8v-53.08h33.44v10.62h-22.11v10.62h16.6v10.62h-16.6v10.62H488.69z"/>
	</g>
	<path class="st1" d="M396,396c27,0,55,0,81.72,0"/>
	<path class="st1" d="M473.92,426.95c0.14,0.02,0.19-0.17,0.19-0.31c0.04-6.62-0.09-13.27,0.27-19.88c0.13-2.48-0.39-7.65,3.34-7.69   c-0.04-1.14-0.06-2.15-0.09-3.29"/>
	<path class="st1" d="M465.65,403.07c0.16-0.88,0.35-1.78,0.79-2.56c0.43-0.79,1.14-1.46,2.01-1.67c1.43-0.34,2.91,0.7,3.55,2.02   c1.39,2.84,0.61,6.98,0.56,10.03c-0.06,3.68-0.1,7.36-0.14,11.05c0.01-0.56-0.92-1.68-1.21-2.17c-0.45-0.76-0.93-1.51-1.43-2.24   c-0.72-1.06-1.49-2.08-2.31-3.07c-0.18-0.22-2.02-1.93-2.02-2.09C465.42,409.3,465.11,406.1,465.65,403.07z"/>
	<path class="st1" d="M456.53,402.41c0.27-1.26,0.84-2.41,1.99-3.17c1.07-0.71,2.56-0.82,3.62-0.1c1.38,0.94,1.63,2.86,1.67,4.53   c0.06,2.41-0.02,4.82-0.25,7.22c0.04-0.45-2.1-1.91-2.47-2.2c-0.9-0.69-1.84-1.32-2.82-1.88c-0.19-0.11-1.95-0.97-1.94-0.74   C456.29,404.91,456.27,403.61,456.53,402.41z"/>
	<path class="st1" d="M448.99,399.85c0.02-0.02,0.04-0.03,0.06-0.05c0.78-0.57,1.88-0.83,2.83-0.74c0.28,0.03,0.57,0.09,0.83,0.21   c0.56,0.26,0.97,0.78,1.26,1.32c0.78,1.46,0.87,3.19,0.82,4.84c0.02-0.87-5.04-2.52-5.83-2.86c-0.42-0.18-0.79-0.42-1.26-0.45   C447.97,401.41,448.37,400.35,448.99,399.85z"/>
	<rect x="396" y="392" class="st2" width="82" height="2"/>
	<path class="st1" d="M474.02,426.81c0.09,0,0.19,0,0.28,0.01c-0.52-0.05-1.06,0-1.56,0.15c-0.06-0.09,0.45,0.65,0.4,0.54   c-1.73-3.7-3.75-7.25-6.05-10.62c-1.39-2.03-3.23-4.12-5.28-5.52c-3.29-2.25-6.77-4.54-10.51-6.07   c-5.92-2.42-12.49-3.25-18.83-2.36c-4.99,0.7-9.46,1.75-13.91,4.31c-7.44,4.29-14.11,10.86-17.51,18.81c-0.56,1.3-1.04,2.67-1,4.09   c-0.62,0.42-1.31,0.73-2.03,0.91c0.35-0.7,0.85-1.61,0.97-2.39c1.16-7.57,0.49-15.31,0.67-22.94c0.03-1.42,0.06-2.89-0.47-4.21   c-0.53-1.32-1.78-2.46-3.2-2.41c0-0.53-0.01-1.07-0.01-1.6c0-0.27,0-0.53,0-0.8c0-0.23-0.02-0.47,0.01-0.72   c0.06,0,0.11,0.01,0.17,0"/>
	<path class="st2" d="M470.59,427.03c-0.85,0-1.69-0.01-2.54-0.01c-2.63-6.61-6.87-11.87-12.87-15.74   c-17.72-11.42-41.78-2.99-50.18,15.87c-0.78,0.22-1.75,0.39-2.46,0.77c3.49-5.59,6.44-10.89,11.69-15.09   c11-8.79,25.9-10.63,38.69-4.89c7.97,3.58,14.25,11.65,17.28,19.69"/>
	<path class="st1" d="M408.2,402.87c-0.16-0.88-0.35-1.78-0.79-2.56c-0.44-0.79-1.14-1.46-2.02-1.67c-1.44-0.34-2.92,0.7-3.57,2.02   c-1.4,2.84-0.61,6.98-0.56,10.03c0.06,3.68,0.1,7.36,0.14,11.05c-0.01-0.56,0.92-1.68,1.21-2.17c0.46-0.76,0.94-1.51,1.44-2.24   c0.73-1.06,1.5-2.08,2.32-3.07c0.19-0.22,2.03-1.93,2.03-2.09C408.43,409.11,408.74,405.9,408.2,402.87z"/>
	<path class="st1" d="M417.36,402.22c-0.27-1.26-0.84-2.41-1.99-3.17c-1.07-0.71-2.57-0.82-3.64-0.1c-1.39,0.94-1.64,2.86-1.68,4.53   c-0.06,2.41,0.02,4.82,0.25,7.22c-0.04-0.45,2.11-1.91,2.48-2.2c0.9-0.69,1.85-1.32,2.83-1.88c0.19-0.11,1.96-0.97,1.95-0.74   C417.6,404.72,417.62,403.42,417.36,402.22z"/>
	<path class="st1" d="M424.93,399.66c-0.02-0.02-0.04-0.03-0.06-0.05c-0.78-0.57-1.89-0.83-2.84-0.74   c-0.29,0.03-0.57,0.09-0.83,0.21c-0.57,0.26-0.98,0.78-1.27,1.32c-0.78,1.46-0.87,3.19-0.82,4.84c-0.02-0.87,5.06-2.52,5.86-2.86   c0.42-0.18,0.8-0.42,1.26-0.45C425.95,401.22,425.55,400.15,424.93,399.66z"/>
	<g>
		<g>
			<path class="st3" d="M442.2,398.72c-3.44,0.05-6.89-0.09-10.31-0.41c-0.81-0.08-1.5,0.74-1.5,1.5c0,0.87,0.69,1.42,1.5,1.5     c3.43,0.32,6.87,0.46,10.31,0.41c0.81-0.01,1.5-0.68,1.5-1.5C443.7,399.42,443.01,398.71,442.2,398.72L442.2,398.72z"/>
		</g>
	</g>
	<g>
		<g>
			<path class="st3" d="M432.05,403.09c4.5,0,4.51-7,0-7C427.55,396.09,427.54,403.09,432.05,403.09L432.05,403.09z"/>
		</g>
	</g>
	<g>
		<g>
			<path class="st3" d="M433,402.07c3.48,0.16,6.95,0.47,10.4,0.93c3.33,0.44,4.12-5.29,0.8-5.89c-1.82-0.33-3.66-0.59-5.5-0.79     c-1.62-0.17-2.98,1.5-3,3c-0.02,1.77,1.4,2.83,3,3c1.31,0.14,2.61,0.34,3.9,0.57c0.27-1.96,0.53-3.93,0.8-5.89     c-3.46-0.46-6.92-0.77-10.4-0.93C429.14,395.89,429.15,401.89,433,402.07L433,402.07z"/>
		</g>
	</g>
	<g>
		<g>
			<path class="st3" d="M438.39,396.23c-1.67,0.06-3.35,0.13-5.02,0.19c-3.86,0.15-3.87,5.85,0,6c1.6,0.06,3.2,0.12,4.79,0.18     c1.62,0.06,3-1.42,3-3c0-1.73-1.38-2.87-3-3c-2.3-0.19-4.6-0.24-6.91-0.16c-3.85,0.13-3.87,6.13,0,6     c2.31-0.08,4.61-0.02,6.91,0.16c0-2,0-4,0-6c-1.6-0.06-3.2-0.12-4.79-0.18c0,2,0,4,0,6c1.67-0.06,3.35-0.13,5.02-0.19     C442.24,402.09,442.26,396.09,438.39,396.23L438.39,396.23z"/>
		</g>
	</g>
	<g>
		<g>
			<path class="st3" d="M433.79,402.75c3.86,0,3.87-6,0-6C429.93,396.75,429.93,402.75,433.79,402.75L433.79,402.75z"/>
		</g>
	</g>
	<g>
		<g>
			<path class="st3" d="M435.01,401.5c-0.15,0.03-0.3,0.06-0.45,0.1c0.09,0.32,0.18,0.64,0.27,0.96c0.43-0.14,0.87-0.28,1.3-0.42     c0.25-0.08,0.43-0.35,0.35-0.62c-0.08-0.26-0.34-0.42-0.62-0.35c-0.18,0.05-0.35,0.09-0.53,0.12c-0.09,0.02-0.18,0.03-0.27,0.04     c-0.04,0.01-0.03,0,0.03,0c-0.03,0-0.06,0.01-0.08,0.01c-0.04,0-0.08,0.01-0.13,0.01c-0.36,0.04-0.73,0.04-1.09,0.02     c-0.26-0.02-0.51,0.24-0.5,0.5c0.01,0.28,0.22,0.48,0.5,0.5c0.78,0.05,1.58-0.04,2.34-0.24c-0.09-0.32-0.18-0.64-0.27-0.96     c-0.43,0.14-0.87,0.28-1.3,0.42c-0.25,0.08-0.43,0.35-0.35,0.62c0.09,0.27,0.34,0.41,0.62,0.35c0.15-0.03,0.3-0.06,0.45-0.1     c0.26-0.06,0.43-0.37,0.35-0.62C435.54,401.58,435.29,401.44,435.01,401.5L435.01,401.5z"/>
		</g>
	</g>
	<g>
		<g>
			<path class="st3" d="M435.06,402.55c0.64,0,0.64-1,0-1C434.42,401.55,434.42,402.55,435.06,402.55L435.06,402.55z"/>
		</g>
	</g>
	<g>
		<g>
			<path class="st3" d="M399.7,406.33c0.05,3.36,0.1,6.72,0.15,10.07c0.05,3.29,0.37,6.74-0.27,10c0.33,0.04,0.65,0.09,0.98,0.13     c0.04-4.01,0.24-8.01,0.61-12.01c-0.33,0-0.67,0-1,0c0.06,1.83,0.12,3.67,0.18,5.5c0.03,0.89,0.06,1.78,0.09,2.67     c0.02,0.79,0.02,1.59-0.42,2.28c0.31,0.08,0.62,0.17,0.93,0.25c-0.48-5.16-0.41-10.35,0.21-15.49c0.08-0.64-0.92-0.63-1,0     c-0.62,5.14-0.69,10.33-0.21,15.49c0.05,0.49,0.65,0.69,0.93,0.25c0.91-1.41,0.54-3.38,0.49-4.96c-0.06-2-0.13-4-0.19-5.99     c-0.02-0.65-0.94-0.63-1,0c-0.37,3.99-0.58,8-0.61,12.01c-0.01,0.55,0.87,0.7,0.98,0.13c0.64-3.27,0.35-6.7,0.31-10.02     c-0.05-3.44-0.1-6.88-0.15-10.32C400.69,405.69,399.69,405.69,399.7,406.33L399.7,406.33z"/>
		</g>
	</g>
	<g>
		<g>
			<path class="st3" d="M399.8,401.73c0.18,4.55,0.36,9.09,0.54,13.64c0.03,0.64,1.02,0.64,1,0c-0.1-2.78-0.2-5.57-0.3-8.35     c-0.02-0.64-1.01-0.65-1,0c0.04,1.88,0.08,3.77,0.11,5.65c0.01,0.64,1.01,0.64,1,0c-0.04-1.88-0.08-3.77-0.11-5.65     c-0.33,0-0.67,0-1,0c0.1,2.78,0.2,5.57,0.3,8.35c0.33,0,0.67,0,1,0c-0.18-4.55-0.36-9.09-0.54-13.64     C400.77,401.09,399.77,401.08,399.8,401.73L399.8,401.73z"/>
		</g>
	</g>
	<g>
		<g>
			<path class="st3" d="M401.7,423.81c0.24-1.06,1.02-2.01,1.6-2.91c0.62-0.97,1.25-1.93,1.91-2.87c1.32-1.86,2.78-3.61,4.51-5.1     c-0.24-0.24-0.47-0.47-0.71-0.71c-3.24,3.19-6.55,6.5-8.46,10.71c-0.22,0.48,0.37,1.05,0.79,0.61c1.46-1.55,2.7-3.28,3.69-5.16     c0.3-0.57-0.56-1.08-0.86-0.5c-0.95,1.81-2.13,3.47-3.53,4.96c0.26,0.2,0.52,0.4,0.79,0.61c1.87-4.13,5.11-7.36,8.3-10.5     c0.46-0.46-0.22-1.12-0.71-0.71c-1.79,1.55-3.3,3.37-4.66,5.3c-0.68,0.96-1.33,1.95-1.96,2.95c-0.61,0.96-1.38,1.94-1.64,3.07     C400.6,424.18,401.56,424.44,401.7,423.81L401.7,423.81z"/>
		</g>
	</g>
	<g>
		<g>
			<path class="st3" d="M405.1,418.14c-0.01-0.67,0.38-1.24,0.75-1.76c0.39-0.55,0.85-1.05,1.32-1.53c0.97-0.97,2.05-1.82,3.13-2.67     c0.21-0.17,0.17-0.53,0-0.71c-0.21-0.21-0.49-0.17-0.71,0c-1.16,0.91-2.33,1.83-3.36,2.9c-0.5,0.52-0.97,1.08-1.38,1.68     c-0.43,0.62-0.78,1.31-0.76,2.09C404.11,418.79,405.11,418.79,405.1,418.14L405.1,418.14z"/>
		</g>
	</g>
	<g>
		<g>
			<path class="st3" d="M399.92,424.45c-0.43,1.63-0.77,3.28-1.01,4.95c-0.09,0.62,0.83,0.91,0.96,0.27     c0.85-3.94,2.62-7.65,5.19-10.76c0.4-0.49-0.27-1.19-0.71-0.71c-0.14,0.15-0.28,0.31-0.42,0.46c-0.43,0.48,0.27,1.19,0.71,0.71     c0.14-0.15,0.28-0.31,0.42-0.46c-0.24-0.24-0.47-0.47-0.71-0.71c-2.68,3.24-4.57,7.08-5.45,11.2c0.32,0.09,0.64,0.18,0.96,0.27     c0.24-1.67,0.58-3.32,1.01-4.95C401.05,424.1,400.09,423.83,399.92,424.45L399.92,424.45z"/>
		</g>
	</g>
	<g>
		<g>
			<path class="st3" d="M399.51,424.17c-0.07,0.98-0.14,1.96-0.21,2.95c-0.03,0.49,0.71,0.69,0.93,0.25     c1.25-2.49,2.64-4.91,4.17-7.24c0.75-1.15,1.54-2.28,2.36-3.38c0.8-1.08,1.62-2.45,2.78-3.17c0.55-0.34,0.04-1.2-0.5-0.86     c-1.12,0.69-1.87,1.86-2.66,2.89c-0.9,1.19-1.76,2.4-2.59,3.64c-1.63,2.45-3.1,4.99-4.42,7.62c0.31,0.08,0.62,0.17,0.93,0.25     c0.07-0.98,0.14-1.96,0.21-2.95C400.56,423.53,399.56,423.53,399.51,424.17L399.51,424.17z"/>
		</g>
	</g>
	<g>
		<g>
			<path class="st3" d="M399.72,430.12c0-0.04,0-0.07,0.01-0.11c-0.01,0.04-0.01,0.09-0.02,0.13c0.01-0.04,0.01-0.08,0.02-0.12     c0.01-0.03,0.02-0.09,0.04-0.12c-0.01,0.01-0.05,0.1-0.02,0.04c0.01-0.02,0.02-0.03,0.03-0.05c0.02-0.04,0.12-0.16,0.02-0.04     c-0.28-0.16-0.56-0.32-0.84-0.49c-0.02,0.05-0.03,0.1-0.05,0.15c-0.01,0.02-0.04,0.1-0.01,0.03c0.03-0.08-0.01,0.02-0.01,0.03     c-0.04,0.09-0.1,0.18-0.15,0.27c-0.1,0.15-0.09,0.36,0,0.5c0.09,0.16,0.25,0.24,0.43,0.25c0.43,0.03,0.81-0.28,0.98-0.65     c0.1-0.21,0.14-0.41,0.16-0.64c0.02-0.18,0.02-0.37,0.04-0.55c-0.01,0.04-0.01,0.09-0.02,0.13c0.01-0.06,0.02-0.11,0.03-0.17     c0.01-0.03,0.01-0.06,0.03-0.08c-0.01,0.02-0.02,0.04-0.03,0.07c0.01-0.02,0.02-0.04,0.03-0.05c0.12-0.23,0.07-0.55-0.18-0.68     c-0.23-0.12-0.56-0.07-0.68,0.18c-0.12,0.23-0.17,0.46-0.19,0.71c-0.02,0.18-0.02,0.37-0.04,0.55c0.01-0.04,0.01-0.09,0.02-0.13     c-0.01,0.07-0.03,0.14-0.05,0.21c-0.01,0.02-0.04,0.09,0,0.01c0.04-0.09,0-0.01-0.01,0.01c-0.02,0.03-0.03,0.06-0.05,0.09     c-0.01,0.02-0.05,0.06,0,0c0.06-0.07,0.01-0.01-0.01,0c-0.01,0.01-0.02,0.02-0.03,0.03c-0.05,0.06,0.09-0.06,0.04-0.03     c-0.01,0.01-0.02,0.02-0.04,0.02c-0.07,0.05,0.05-0.03,0.05-0.02c0,0-0.09,0.02-0.1,0.03c0.04-0.01,0.09-0.01,0.13-0.02     c-0.03,0-0.06,0-0.09,0c0.14,0.25,0.29,0.5,0.43,0.75c0.14-0.22,0.25-0.46,0.33-0.71c0.06-0.2-0.04-0.46-0.23-0.56     c-0.08-0.04-0.16-0.06-0.25-0.07c-0.11-0.01-0.28,0.06-0.35,0.15c-0.23,0.28-0.37,0.6-0.37,0.97c0,0.26,0.23,0.51,0.5,0.5     C399.5,430.6,399.72,430.4,399.72,430.12L399.72,430.12z"/>
		</g>
	</g>
	<g>
		<g>
			<path class="st3" d="M473.91,399.98c-1.61,7.75-1.62,15.69-1.6,23.57c0,0.64,1,0.64,1,0c-0.02-7.79-0.02-15.65,1.57-23.31     C475.01,399.62,474.04,399.35,473.91,399.98L473.91,399.98z"/>
		</g>
	</g>
	<g>
		<g>
			<path class="st3" d="M464.33,403.4c-0.11,2.11-0.22,4.22-0.34,6.33c-0.03,0.55,0.9,0.7,0.98,0.13c0.19-1.32,0.37-2.64,0.56-3.96     c0.09-0.62-0.75-0.89-0.96-0.27c-0.53,1.55-0.8,3.16-0.81,4.8c0,0.65,0.95,0.63,1,0c0.26-3.23,0.53-6.46,0.79-9.68     c0.05-0.65-0.92-0.62-1,0c-0.33,2.5-0.59,5-0.76,7.51c-0.08,1.14-0.26,2.37-0.15,3.51c0.09,0.99,0.91,1.72,1.49,2.46     c2.85,3.65,5.23,7.65,7.11,11.87c0.26,0.59,1.12,0.08,0.86-0.5c-1.81-4.06-4.08-7.91-6.78-11.44c-0.32-0.42-0.65-0.84-0.98-1.25     c-0.34-0.42-0.7-0.77-0.72-1.34c-0.05-1.17,0.1-2.39,0.18-3.56c0.17-2.43,0.42-4.86,0.74-7.27c-0.33,0-0.67,0-1,0     c-0.26,3.23-0.53,6.46-0.79,9.68c0.33,0,0.67,0,1,0c0.01-1.55,0.27-3.06,0.77-4.53c-0.32-0.09-0.64-0.18-0.96-0.27     c-0.19,1.32-0.37,2.64-0.56,3.96c0.33,0.04,0.65,0.09,0.98,0.13c0.11-2.11,0.22-4.22,0.34-6.33     C465.37,402.75,464.37,402.75,464.33,403.4L464.33,403.4z"/>
		</g>
	</g>
	<g>
		<g>
			<path class="st3" d="M471.61,422.95c0.63,1.07,0.98,2.25,1.02,3.49c0.02,0.57,0.81,0.67,0.98,0.13c0.1-0.32,0.21-0.64,0.31-0.97     c0.18-0.56-0.62-0.85-0.91-0.39c-0.42,0.66-0.2,1.45,0.4,1.89c0.13-0.3,0.26-0.61,0.39-0.91c-0.19-0.05-0.31-0.92-0.37-1.09     c-0.14-0.45-0.29-0.9-0.46-1.34c-0.32-0.84-0.68-1.67-1.08-2.48c-0.82-1.63-1.82-3.15-2.96-4.56c-0.4-0.5-1.11,0.21-0.71,0.71     c1.23,1.52,2.27,3.19,3.09,4.96c0.4,0.86,0.75,1.75,1.05,2.66c0.24,0.72,0.31,1.85,1.17,2.1c0.58,0.17,0.82-0.59,0.39-0.91     c-0.18-0.13-0.15-0.37-0.04-0.53c-0.3-0.13-0.61-0.26-0.91-0.39c-0.1,0.32-0.21,0.64-0.31,0.97c0.33,0.04,0.65,0.09,0.98,0.13     c-0.05-1.41-0.44-2.77-1.16-3.99C472.15,421.89,471.28,422.39,471.61,422.95L471.61,422.95z"/>
		</g>
	</g>
	<g>
		<g>
			<path class="st3" d="M472.97,426.1c0.64,0,0.64-1,0-1C472.32,425.1,472.32,426.1,472.97,426.1L472.97,426.1z"/>
		</g>
	</g>
	<g>
		<g>
			<path class="st3" d="M444.03,398.15c2.3-0.03,4.59-0.07,6.89-0.1c2.13-0.03,4.27-0.12,6.39,0.04c1.04,0.08,2.08,0.22,3.09,0.47     c0.95,0.24,2.05,0.54,2.81,1.2c0.8,0.71,0.79,1.81,0.79,2.79c0,1.12-0.07,2.24-0.2,3.35c0.33,0,0.67,0,1,0     c0.07-1.69,0.12-3.39-0.25-5.05c-0.28-1.25-0.84-2.96-2.27-3.27c-0.47-0.1-0.86,0.47-0.49,0.84c0.97,0.95,1.57,2.13,1.79,3.47     c0.32-0.09,0.64-0.18,0.96-0.27c-0.27-1.5-1.05-2.86-2.21-3.84c-0.49-0.41-1.2,0.29-0.71,0.71c1.05,0.89,1.71,2.05,1.96,3.4     c0.11,0.63,1.07,0.36,0.96-0.27c-0.25-1.49-0.97-2.84-2.05-3.91c-0.16,0.28-0.32,0.56-0.49,0.84c1.21,0.26,1.54,2.19,1.7,3.21     c0.21,1.37,0.15,2.77,0.09,4.15c-0.03,0.66,0.93,0.62,1,0c0.15-1.27,0.23-2.55,0.2-3.83c-0.02-0.91-0.12-1.85-0.69-2.6     c-1.22-1.6-3.79-2.02-5.64-2.26c-2.32-0.31-4.67-0.22-7-0.19c-2.54,0.04-5.09,0.07-7.63,0.11     C443.38,397.16,443.38,398.16,444.03,398.15L444.03,398.15z"/>
		</g>
	</g>
	<g>
		<g>
			<path class="st3" d="M475.5,399.11c0.28-0.01,0.57-0.04,0.85-0.01c-0.13-0.02-0.27-0.04-0.4-0.05c0.02,0.01,0.03,0.01,0.05,0.02     c-0.12-0.05-0.24-0.1-0.36-0.15c0.01,0.01,0.03,0.02,0.04,0.03c-0.18-0.18-0.36-0.36-0.54-0.54c0.01,0.01,0.02,0.03,0.02,0.04     c-0.05-0.12-0.1-0.24-0.15-0.36c0,0.02,0,0.03,0.01,0.05c0-0.27,0-0.53,0-0.8c0,0.02-0.01,0.03-0.01,0.05     c0.05-0.12,0.1-0.24,0.15-0.36c-0.01,0.03-0.03,0.06-0.05,0.09c0.08-0.1,0.16-0.2,0.23-0.3c-0.01,0.01-0.03,0.02-0.04,0.03     c0.1-0.08,0.2-0.16,0.3-0.23c-0.01,0.01-0.03,0.02-0.04,0.02c0.12-0.05,0.24-0.1,0.36-0.15c-0.02,0.01-0.04,0.01-0.07,0.02     c0.13-0.02,0.27-0.04,0.4-0.05c-0.05,0-0.09,0-0.14,0c0.13,0.02,0.27,0.04,0.4,0.05c-0.51-0.08-0.87-0.11-1.38-0.01     c-0.33,0.06-0.65,0.21-0.93,0.39c-0.28,0.17-0.55,0.39-0.78,0.63c-0.24,0.26-0.43,0.55-0.64,0.83c0.08-0.1,0.16-0.2,0.23-0.3     c-0.05,0.06-0.1,0.11-0.16,0.16c0.1-0.08,0.2-0.16,0.3-0.23c-0.03,0.02-0.06,0.04-0.09,0.05c0.12-0.05,0.24-0.1,0.36-0.15     c-0.03,0.01-0.06,0.02-0.1,0.02c0.13-0.02,0.27-0.04,0.4-0.05c-0.02,0-0.03,0-0.05,0c0.13,0.02,0.27,0.04,0.4,0.05     c-0.02,0-0.03-0.01-0.05-0.01c0.12,0.05,0.24,0.1,0.36,0.15c-0.03-0.01-0.06-0.03-0.09-0.05c0.1,0.08,0.2,0.16,0.3,0.23     c-0.39-0.3-0.74-0.65-1.11-0.98c-0.3-0.27-0.65-0.44-1.06-0.44c-0.37,0-0.81,0.16-1.06,0.44c-0.26,0.29-0.46,0.66-0.44,1.06     c0.02,0.38,0.14,0.8,0.44,1.06c0.22,0.19,0.44,0.39,0.66,0.58c0.26,0.23,0.53,0.52,0.85,0.68c0.74,0.37,1.49,0.22,2.11-0.3     c0.26-0.22,0.43-0.54,0.64-0.81c-0.08,0.1-0.16,0.2-0.23,0.3c0.14-0.18,0.3-0.34,0.48-0.48c-0.1,0.08-0.2,0.16-0.3,0.23     c0.13-0.1,0.27-0.18,0.42-0.24c-0.12,0.05-0.24,0.1-0.36,0.15c0.13-0.05,0.26-0.09,0.4-0.11c-0.13,0.02-0.27,0.04-0.4,0.05     c0.12-0.01,0.24-0.01,0.36,0c-0.13-0.02-0.27-0.04-0.4-0.05c0.22,0.04,0.45,0.09,0.68,0.08c0.42-0.02,0.87-0.17,1.17-0.48     c0.48-0.49,0.68-1.2,0.4-1.85c-0.28-0.67-0.9-1-1.6-1.02c-0.24-0.01-0.49,0.01-0.73,0.01c-0.78,0.01-1.54,0.68-1.5,1.5     C474.04,398.41,474.66,399.13,475.5,399.11L475.5,399.11z"/>
		</g>
	</g>
	<g>
		<g>
			<path class="st3" d="M473.44,396.82c-0.29-0.01-0.57-0.03-0.86-0.07c0.13,0.02,0.27,0.04,0.4,0.05c-0.7-0.1-1.37-0.28-2.02-0.56     c0.12,0.05,0.24,0.1,0.36,0.15c-0.02-0.01-0.03-0.01-0.05-0.02c-0.17-0.11-0.36-0.17-0.56-0.18c-0.2-0.04-0.4-0.04-0.6,0.03     c-0.35,0.1-0.73,0.36-0.9,0.69c-0.18,0.35-0.28,0.77-0.15,1.16c0.11,0.34,0.34,0.75,0.69,0.9c0.59,0.25,1.17,0.48,1.79,0.61     c0.62,0.14,1.26,0.22,1.89,0.24c0.38,0.01,0.8-0.18,1.06-0.44c0.26-0.26,0.46-0.69,0.44-1.06     C474.9,397.49,474.28,396.85,473.44,396.82L473.44,396.82z"/>
		</g>
	</g>
	<g>
		<g>
			<path class="st3" d="M470.43,397.19c-0.86-0.06-1.69,0.02-2.53,0.2c-0.41,0.09-0.5,0.72-0.12,0.91c0.65,0.32,1.31,0.5,2.03,0.54     c0.65,0.04,0.63-0.93,0-1c-2.01-0.21-4.02,0.9-4.93,2.71c-0.25,0.49,0.37,1.03,0.79,0.61c0.55-0.55,1.1-1.1,1.65-1.65     c0.39-0.39-0.13-1.12-0.61-0.79c-1.81,1.26-2.04,3.69-2.28,5.7c-0.32,2.64-0.31,5.31,0.01,7.95c0.08,0.63,0.96,0.66,1,0     c0.11-1.9-0.02-3.79-0.37-5.66c-0.12-0.63-1.08-0.36-0.96,0.27c0.34,1.78,0.44,3.58,0.34,5.39c0.33,0,0.67,0,1,0     c-0.28-2.32-0.32-4.67-0.11-7c0.1-1.11,0.24-2.23,0.5-3.31c0.22-0.94,0.57-1.9,1.39-2.47c-0.2-0.26-0.4-0.52-0.61-0.79     c-0.55,0.55-1.1,1.1-1.65,1.65c0.26,0.2,0.52,0.4,0.79,0.61c0.76-1.53,2.37-2.39,4.06-2.22c0-0.33,0-0.67,0-1     c-0.54-0.03-1.04-0.16-1.53-0.41c-0.04,0.3-0.08,0.61-0.12,0.91c0.75-0.17,1.5-0.21,2.26-0.16     C471.07,398.23,471.07,397.23,470.43,397.19L470.43,397.19z"/>
		</g>
	</g>
	<g>
		<g>
			<path class="st3" d="M464.59,413.21c0.47,0.16,0.85,0.5,1.18,0.85c0.38,0.4,0.73,0.84,1.05,1.29c0.67,0.94,1.24,1.94,1.8,2.95     c0.26-0.2,0.52-0.4,0.79-0.61c-0.49-0.6-0.9-1.28-1.19-2c-0.1-0.25-0.33-0.43-0.62-0.35c-0.24,0.07-0.45,0.36-0.35,0.62     c0.35,0.89,0.83,1.7,1.44,2.44c0.37,0.45,1.05-0.12,0.79-0.61c-0.6-1.09-1.22-2.18-1.97-3.19c-0.7-0.95-1.5-1.97-2.66-2.37     C464.25,412.04,463.99,413,464.59,413.21L464.59,413.21z"/>
		</g>
	</g>
	<g>
		<g>
			<path class="st3" d="M466.86,415.29c1.1,1.06,1.65,2.6,2.42,3.9c0.82,1.4,1.74,2.73,2.74,4c0.26,0.33,0.72,0.09,0.84-0.22     c0.29-0.75-0.21-1.35-0.66-1.9c-0.49-0.6-0.76-1.35-1.13-2.03c-0.73-1.33-1.72-2.52-2.88-3.5c-0.49-0.41-1.2,0.29-0.71,0.71     c1.04,0.87,1.92,1.89,2.6,3.06c0.33,0.58,0.58,1.2,0.92,1.77c0.17,0.28,0.36,0.54,0.57,0.78c0.21,0.24,0.45,0.49,0.32,0.83     c0.28-0.07,0.56-0.15,0.84-0.22c-1-1.28-1.91-2.64-2.73-4.04c-0.75-1.31-1.33-2.79-2.43-3.86     C467.1,414.13,466.4,414.84,466.86,415.29L466.86,415.29z"/>
		</g>
	</g>
	<g>
		<g>
			<path class="st3" d="M426.64,397.85c0.1,1.42,0.2,2.83,0.3,4.25c0.31-0.08,0.62-0.17,0.93-0.25c-0.75-1.28-1.22-2.72-1.33-4.21     c-0.12,0.16-0.24,0.32-0.37,0.48c0.07-0.01,0.18,0.09,0.23,0.13c0.13,0.09,0.25,0.19,0.37,0.28c0.26,0.19,0.54,0.37,0.82,0.54     c0.57,0.33,1.17,0.6,1.8,0.8c0.26,0.09,0.55-0.1,0.62-0.35c0.07-0.27-0.09-0.53-0.35-0.62c-0.64-0.21-1.25-0.5-1.83-0.87     c-0.6-0.38-1.15-1.03-1.92-0.88c-0.2,0.04-0.38,0.28-0.37,0.48c0.13,1.66,0.62,3.27,1.47,4.71c0.24,0.41,0.97,0.26,0.93-0.25     c-0.1-1.42-0.2-2.83-0.3-4.25c-0.02-0.27-0.22-0.5-0.5-0.5C426.88,397.35,426.62,397.58,426.64,397.85L426.64,397.85z"/>
		</g>
	</g>
	<g>
		<g>
			<path class="st3" d="M446.31,402.28c0.77-0.79,1.57-1.56,2.39-2.31c-0.71-0.71-1.41-1.41-2.12-2.12     c-0.11,0.13-0.31,0.43-0.48,0.47c0.04-0.01,0.28-0.2,0.1-0.08c-0.05,0.03-0.09,0.06-0.14,0.09c-0.11,0.07-0.22,0.13-0.33,0.19     c-0.05,0.03-0.1,0.05-0.15,0.07c-0.17,0.08,0.3-0.11,0.12-0.05c-0.11,0.03-0.21,0.08-0.32,0.11c-0.24,0.07-0.48,0.12-0.72,0.15     c0.13-0.02,0.27-0.04,0.4-0.05c-0.65,0.08-1.3,0.06-1.94-0.03c0.13,0.02,0.27,0.04,0.4,0.05c-0.27-0.04-0.54-0.09-0.81-0.14     c-0.77-0.15-1.66,0.22-1.85,1.05c-0.17,0.74,0.22,1.68,1.05,1.85c1.3,0.26,2.6,0.38,3.91,0.11c1.08-0.23,2.18-0.81,2.89-1.67     c0.26-0.31,0.44-0.64,0.44-1.06c0-0.37-0.16-0.81-0.44-1.06c-0.62-0.57-1.5-0.56-2.12,0c-0.82,0.74-1.62,1.51-2.39,2.31     c-0.55,0.56-0.6,1.57,0,2.12C444.78,402.82,445.73,402.88,446.31,402.28L446.31,402.28z"/>
		</g>
	</g>
	<g>
		<g>
			<path class="st3" d="M399.17,399.11c1.23,0.09,2.46,0.18,3.7,0.27c0.37,0.03,0.81-0.19,1.06-0.44c0.26-0.26,0.46-0.69,0.44-1.06     c-0.02-0.39-0.14-0.79-0.44-1.06c-0.31-0.28-0.65-0.41-1.06-0.44c-1.23-0.09-2.46-0.18-3.7-0.27c-0.37-0.03-0.81,0.19-1.06,0.44     c-0.26,0.26-0.46,0.69-0.44,1.06c0.02,0.39,0.14,0.79,0.44,1.06C398.42,398.95,398.76,399.08,399.17,399.11L399.17,399.11z"/>
		</g>
	</g>
	<g>
		<g>
			<path class="st3" d="M408.32,403.81c0.31,3.06,0.29,6.13-0.06,9.18c-0.07,0.61,0.79,0.6,0.98,0.13c0.88-2.09,0.53-4.65,0.51-6.87     c-0.33,0-0.67,0-1,0c0.09,1.81,0.23,3.62,0.42,5.43c0.07,0.63,0.99,0.66,1,0c0.02-1.86-0.06-3.72-0.45-5.54     c-0.12-0.54-1.05-0.43-0.98,0.13c0.15,1.22,0.3,2.44,0.45,3.67c0.07,0.57,0.14,1.14,0.21,1.71c0.03,0.24,0.08,0.49,0.09,0.73     c0.01,0.39,0.02,0.47-0.32,0.64c-1.54,0.74-2.11,2.45-3.45,3.42c0.2,0.26,0.4,0.52,0.61,0.79c3.51-3.52,7.26-6.79,11.24-9.78     c-0.2-0.26-0.4-0.52-0.61-0.79c-2.37,2.13-5.96,2.32-7.85,5.08c-0.23,0.34,0.16,0.89,0.56,0.73c3.3-1.3,5.4-4.41,8.63-5.83     c-0.17-0.29-0.34-0.58-0.5-0.86c-2.69,1.3-5.38,2.64-7.61,4.66c-0.48,0.44,0.22,1.12,0.71,0.71c2.29-1.93,4.66-3.91,7.58-4.78     c0.61-0.18,0.35-1.15-0.27-0.96c-3.09,0.93-5.6,2.99-8.02,5.04c0.24,0.24,0.47,0.47,0.71,0.71c2.16-1.96,4.8-3.24,7.41-4.5     c0.59-0.28,0.07-1.12-0.5-0.86c-3.14,1.38-5.19,4.47-8.39,5.73c0.19,0.24,0.38,0.49,0.56,0.73c1.78-2.59,5.43-2.85,7.69-4.88     c0.41-0.37-0.15-1.13-0.61-0.79c-4.04,3.04-7.87,6.35-11.44,9.93c-0.39,0.39,0.13,1.13,0.61,0.79c0.77-0.55,1.3-1.29,1.88-2.02     c0.28-0.35,0.56-0.7,0.91-0.99c0.35-0.29,0.82-0.4,1.17-0.69c0.38-0.33,0.37-0.75,0.31-1.22c-0.08-0.65-0.16-1.3-0.24-1.96     c-0.17-1.39-0.34-2.77-0.51-4.16c-0.33,0.04-0.65,0.09-0.98,0.13c0.37,1.74,0.44,3.51,0.42,5.28c0.33,0,0.67,0,1,0     c-0.19-1.81-0.33-3.62-0.42-5.43c-0.03-0.64-1.01-0.65-1,0c0.01,1.15,0.03,2.3,0.03,3.45c0,1.09-0.08,2.14-0.5,3.16     c0.33,0.04,0.65,0.09,0.98,0.13c0.35-3.05,0.37-6.12,0.06-9.18C409.25,403.18,408.25,403.17,408.32,403.81L408.32,403.81z"/>
		</g>
	</g>
	<g>
		<g>
			<path class="st3" d="M418.96,405.9c-0.37,0.09-0.7,0.28-1.02,0.48c-0.35,0.22-0.69,0.45-1.04,0.67     c-0.68,0.43-1.34,0.91-2.05,1.29c-0.24,0.13-0.31,0.46-0.18,0.68c0.14,0.24,0.45,0.31,0.68,0.18c0.69-0.37,1.33-0.82,1.98-1.24     c0.33-0.21,0.66-0.42,0.98-0.63c0.29-0.18,0.57-0.38,0.9-0.46C419.85,406.71,419.59,405.74,418.96,405.9L418.96,405.9z"/>
		</g>
	</g>
	<g>
		<g>
			<path class="st3" d="M403.06,398.9c1.37-0.2,3.01-0.16,4.07,0.86c1.18,1.14,1.34,2.9,1.48,4.44c0.33,0,0.67,0,1,0     c-0.17-1.69-0.47-3.37-0.92-5c-0.17-0.62-1.14-0.36-0.96,0.27c0.43,1.55,0.73,3.14,0.89,4.74c0.03,0.27,0.21,0.5,0.5,0.5     c0.25,0,0.52-0.23,0.5-0.5c-0.17-1.84-0.4-3.89-1.84-5.21c-1.35-1.24-3.25-1.31-4.97-1.05c-0.27,0.04-0.41,0.38-0.35,0.62     C402.52,398.83,402.79,398.94,403.06,398.9L403.06,398.9z"/>
		</g>
	</g>
	<g>
		<g>
			<path class="st3" d="M407.16,399.3c0.06,0.1,0.11,0.2,0.16,0.31c-0.05-0.12-0.1-0.24-0.15-0.36c0.08,0.2,0.14,0.4,0.17,0.62     c-0.02-0.13-0.04-0.27-0.05-0.4c0,0.02,0.01,0.04,0.01,0.06c0.98-0.13,1.96-0.27,2.95-0.4c-0.05-0.14-0.09-0.28-0.11-0.43     c0.02,0.13,0.04,0.27,0.05,0.4c-0.02-0.13-0.02-0.26-0.01-0.38c-0.02,0.13-0.04,0.27-0.05,0.4c0.01-0.06,0.02-0.11,0.04-0.16     c-0.05,0.12-0.1,0.24-0.15,0.36c0.01-0.03,0.03-0.06,0.05-0.09c-0.08,0.1-0.16,0.2-0.23,0.3c0.02-0.02,0.03-0.04,0.06-0.06     c-0.1,0.08-0.2,0.16-0.3,0.23c0.01-0.01,0.03-0.02,0.04-0.02c-0.12,0.05-0.24,0.1-0.36,0.15c0.01,0,0.02-0.01,0.04-0.01     c-0.13,0.02-0.27,0.04-0.4,0.05c0.02,0,0.04,0,0.05,0c0.21,0.01,0.4-0.04,0.58-0.13c0.19-0.06,0.35-0.16,0.48-0.31     c0.15-0.14,0.25-0.3,0.31-0.48c0.09-0.18,0.14-0.37,0.13-0.58c-0.02-0.13-0.04-0.27-0.05-0.4c-0.07-0.25-0.2-0.47-0.39-0.66     c-0.1-0.08-0.2-0.16-0.3-0.23c-0.23-0.14-0.49-0.2-0.76-0.2c-0.01,0-0.02,0-0.03,0c-0.01,0-0.01,0-0.02,0     c-0.13,0.02-0.27,0.04-0.4,0.05c-0.01,0-0.02,0.01-0.04,0.01c-0.12,0.05-0.24,0.1-0.36,0.15c0,0-0.01,0-0.01,0.01     c-0.01,0.01-0.02,0.01-0.03,0.02c-0.1,0.08-0.2,0.16-0.3,0.23c-0.01,0-0.01,0.01-0.02,0.01c-0.06,0.06-0.11,0.13-0.16,0.2     c-0.05,0.06-0.11,0.13-0.15,0.21c-0.07,0.13-0.12,0.27-0.18,0.41c-0.06,0.16-0.07,0.39-0.09,0.54c-0.03,0.26,0.03,0.53,0.06,0.78     c0.02,0.15,0.06,0.29,0.11,0.43c0.05,0.2,0.14,0.37,0.27,0.51c0.11,0.16,0.25,0.29,0.42,0.39c0.12,0.05,0.24,0.1,0.36,0.15     c0.2,0.06,0.4,0.07,0.6,0.03c0.14,0,0.26-0.03,0.38-0.1c0.19-0.06,0.35-0.16,0.48-0.31c0.08-0.1,0.16-0.2,0.23-0.3     c0.14-0.23,0.2-0.49,0.2-0.76c-0.03-0.31-0.07-0.62-0.17-0.91c-0.07-0.2-0.15-0.4-0.24-0.59c-0.04-0.08-0.08-0.17-0.13-0.25     c-0.09-0.17-0.22-0.32-0.39-0.42c-0.14-0.13-0.31-0.22-0.51-0.27c-0.2-0.06-0.4-0.07-0.6-0.03c-0.2,0.01-0.39,0.07-0.56,0.18     c-0.1,0.08-0.2,0.16-0.3,0.23c-0.19,0.19-0.31,0.41-0.39,0.66c-0.02,0.13-0.04,0.27-0.05,0.4     C406.96,398.81,407.03,399.06,407.16,399.3L407.16,399.3z"/>
		</g>
	</g>
	<g>
		<g>
			<path class="st3" d="M402.65,399.34c1.37-0.27,2.78-0.48,4,0.36c1.1,0.75,1.67,2.04,1.98,3.29c0.16,0.62,1.12,0.36,0.96-0.27     c-0.38-1.52-1.12-2.98-2.44-3.88c-1.44-0.99-3.15-0.77-4.77-0.46C401.75,398.5,402.02,399.46,402.65,399.34L402.65,399.34z"/>
		</g>
	</g>
	<g>
		<g>
			<path class="st3" d="M407.83,401.31c0.32,1.89,0.64,3.77,0.97,5.66c0.05,0.27,0.37,0.42,0.62,0.35c0.28-0.08,0.39-0.35,0.35-0.62     c-0.32-1.89-0.64-3.77-0.97-5.66c-0.05-0.27-0.37-0.42-0.62-0.35C407.89,400.77,407.78,401.04,407.83,401.31L407.83,401.31z"/>
		</g>
	</g>
	<g>
		<g>
			<path class="st3" d="M410.07,407.3c0.03-1.39,0.1-2.78,0.23-4.16c0.12-1.29,0.21-2.65,0.75-3.84c0.26-0.58-0.6-1.09-0.86-0.5     c-0.57,1.27-0.73,2.64-0.86,4.02c-0.14,1.49-0.23,2.99-0.26,4.49C409.05,407.95,410.05,407.95,410.07,407.3L410.07,407.3z"/>
		</g>
	</g>
	<g>
		<g>
			<path class="st3" d="M409.98,398.77c-0.42,0.73-0.77,1.51-1.05,2.31c0.33,0.04,0.65,0.09,0.98,0.13     c-0.02-0.91-0.18-1.82-0.48-2.69c-0.08-0.23-0.29-0.4-0.55-0.36c-0.24,0.04-0.44,0.24-0.43,0.49c0.05,1.17,0.15,2.33,0.31,3.49     c0.04,0.27,0.38,0.41,0.62,0.35c0.29-0.08,0.39-0.35,0.35-0.62c-0.14-1.06-0.23-2.15-0.27-3.23c-0.33,0.04-0.65,0.09-0.98,0.13     c0.27,0.8,0.42,1.59,0.44,2.42c0.01,0.25,0.19,0.46,0.43,0.49c0.26,0.03,0.46-0.12,0.55-0.36c0.25-0.72,0.56-1.4,0.95-2.07     c0.13-0.23,0.06-0.55-0.18-0.68C410.43,398.46,410.11,398.54,409.98,398.77L409.98,398.77z"/>
		</g>
	</g>
	<g>
		<g>
			<path class="st3" d="M396.12,396.34c-0.14,0.72-0.23,1.45-0.25,2.18c-0.01,0.28,0.24,0.49,0.5,0.5c1.75,0.04,3.16,1.43,3.23,3.18     c0.33-0.04,0.65-0.09,0.98-0.13c-0.24-0.83-0.5-1.7-1.02-2.4c-0.26-0.35-0.56-0.65-0.94-0.88c-0.43-0.26-0.92-0.38-1.35-0.62     c-0.17,0.29-0.34,0.58-0.5,0.86c1.67,0.79,2.78,2.5,2.78,4.36c0,0.64,1,0.64,1,0c0.01-2.18-1.29-4.29-3.27-5.22     c-0.57-0.27-1.08,0.55-0.5,0.86c0.71,0.39,1.49,0.53,1.99,1.22c0.44,0.62,0.66,1.36,0.86,2.08c0.15,0.53,1,0.44,0.98-0.13     c-0.09-2.3-1.93-4.12-4.23-4.18c0.17,0.17,0.33,0.33,0.5,0.5c0.02-0.65,0.09-1.28,0.21-1.92     C397.2,395.98,396.24,395.71,396.12,396.34L396.12,396.34z"/>
		</g>
	</g>
	<g>
		<g>
			<path class="st3" d="M399.71,403.13c-0.15,1.16-0.19,2.32-0.11,3.48c0.03,0.53,0.88,0.72,0.98,0.13c0.23-1.37,0.47-2.74,0.7-4.1     c0.2-1.15,0.28-2.45,0.99-3.42c0.38-0.52-0.49-1.02-0.86-0.5c-0.74,1.01-0.86,2.31-1.06,3.51c-0.24,1.42-0.48,2.83-0.73,4.25     c0.33,0.04,0.65,0.09,0.98,0.13c-0.07-1.16-0.04-2.33,0.11-3.48c0.03-0.27-0.25-0.5-0.5-0.5     C399.91,402.62,399.74,402.86,399.71,403.13L399.71,403.13z"/>
		</g>
	</g>
	<g>
		<g>
			<path class="st3" d="M402.57,398.19c-0.66,0.73-1.29,1.49-1.89,2.26c0.3,0.04,0.61,0.08,0.91,0.12     c-0.17-0.68-0.29-1.37-0.36-2.07c-0.02-0.27-0.21-0.5-0.5-0.5c-0.26,0-0.52,0.23-0.5,0.5c0.05,0.75,0.01,1.5-0.13,2.23     c0.3-0.04,0.61-0.08,0.91-0.12c-0.34-0.77-0.57-1.58-0.8-2.39c-0.32,0.09-0.64,0.18-0.96,0.27c0.21,0.73,0.42,1.46,0.63,2.19     c0.28-0.16,0.56-0.32,0.84-0.49c-0.67-0.69-1.2-1.48-1.59-2.36c-0.29,0.17-0.58,0.34-0.86,0.5c0.24,0.41,0.45,0.83,0.6,1.28     c0.09,0.26,0.34,0.42,0.62,0.35c0.25-0.07,0.44-0.36,0.35-0.62c-0.18-0.53-0.42-1.04-0.7-1.52c-0.14-0.23-0.45-0.32-0.68-0.18     c-0.25,0.15-0.29,0.44-0.18,0.68c0.42,0.95,1.02,1.82,1.75,2.57c0.35,0.36,0.97-0.01,0.84-0.49c-0.21-0.73-0.42-1.46-0.63-2.19     c-0.18-0.62-1.14-0.36-0.96,0.27c0.25,0.89,0.52,1.78,0.9,2.63c0.17,0.39,0.84,0.29,0.91-0.12c0.16-0.82,0.22-1.66,0.17-2.5     c-0.33,0-0.67,0-1,0c0.07,0.79,0.2,1.57,0.39,2.34c0.05,0.19,0.23,0.34,0.42,0.36c0.22,0.03,0.37-0.07,0.5-0.24     c0.55-0.71,1.13-1.4,1.73-2.06c0.18-0.2,0.2-0.51,0-0.71C403.1,398,402.76,397.98,402.57,398.19L402.57,398.19z"/>
		</g>
	</g>
	<g>
		<g>
			<path class="st3" d="M397.23,398.81c0.08-0.51,0.16-1.02,0.24-1.53c0.04-0.31,0.02-0.6-0.2-0.84c-0.08-0.09-0.18-0.16-0.28-0.22     c-0.04-0.03-0.08-0.05-0.12-0.08c0.07,0.05-0.02-0.03-0.04-0.04c-0.16,0.28-0.32,0.56-0.49,0.84c1.2,0.23,2.43,0.35,3.65,0.33     c0.25,0,0.46-0.19,0.49-0.43c0.03-0.26-0.12-0.46-0.36-0.55c-0.57-0.21-1.18-0.33-1.78-0.34c-0.56-0.01-1.4-0.01-1.52,0.69     c-0.09,0.55,0,1.22,0.32,1.68c0.31,0.45,0.93,0.9,1.52,0.73c0.44-0.12,0.57-0.64,0.34-1.01c-0.21-0.33-0.62-0.49-1-0.5     c-0.24,0-0.4,0.16-0.48,0.37c-0.15,0.37,0.14,0.75,0.45,0.92c0.33,0.17,0.74,0.22,1.05-0.02c0.33-0.25,0.39-0.7,0.2-1.06     c-0.16-0.32-0.5-0.49-0.84-0.56c-0.26-0.05-0.54,0.08-0.62,0.35c-0.07,0.25,0.08,0.56,0.35,0.62c0.05,0.01,0.11,0.02,0.16,0.04     c0.07,0.02,0.02-0.01,0.08,0.03c-0.03-0.03-0.02-0.02,0.02,0.02c-0.01-0.01-0.01-0.01-0.02-0.02c0.01-0.06-0.03-0.08,0.02-0.15     c0.02-0.06,0.07-0.09,0.14-0.11c0.05,0,0.06,0,0.02,0c-0.04,0-0.03,0,0.01,0.01c-0.02,0-0.05-0.01-0.07-0.02     c-0.03-0.01-0.03-0.01,0,0c-0.02-0.01-0.04-0.02-0.06-0.04c-0.03-0.02-0.03-0.02,0,0c0.06,0.06,0.08,0.15,0.06,0.25     c-0.16,0.12-0.32,0.24-0.48,0.37c0.07,0,0.08,0,0.14,0.03c0.04,0.02,0.04,0.05,0.03,0.02c-0.04-0.12-0.2-0.06-0.02-0.31     c0.06-0.06,0.12-0.12,0.18-0.18c0.12-0.02,0.15-0.03,0.09-0.03c-0.03,0-0.03,0-0.01,0c0.04,0.02-0.07-0.02-0.08-0.02     c-0.13-0.03,0.02,0.02-0.04-0.02c-0.04-0.02-0.07-0.04-0.11-0.06c-0.01-0.01-0.03-0.02-0.04-0.03c0.03,0.02,0.03,0.02,0,0     c-0.03-0.03-0.06-0.06-0.09-0.09c-0.01-0.01-0.02-0.03-0.03-0.04c0.02,0.03,0.02,0.03,0,0c-0.02-0.04-0.05-0.07-0.07-0.11     c-0.05-0.09-0.05-0.11-0.08-0.2c-0.01-0.05-0.03-0.09-0.04-0.14c0-0.01-0.02-0.11-0.01-0.07c-0.01-0.1-0.01-0.2-0.01-0.29     c0-0.05,0.01-0.1,0.01-0.15c-0.01-0.05,0,0-0.02,0.04c-0.01,0.01-0.11,0.13-0.13,0.1c0,0,0.17-0.04,0.04-0.02     c0.11-0.02,0.22-0.02,0.32-0.03c0.21-0.01,0.41-0.01,0.62,0.01c0.41,0.03,0.83,0.14,1.22,0.29c0.04-0.33,0.09-0.65,0.13-0.98     c-1.14,0.01-2.27-0.08-3.39-0.3c-0.5-0.1-0.82,0.45-0.49,0.84c0.07,0.08,0.15,0.14,0.24,0.2c0.03,0.02,0.05,0.03,0.08,0.05     c0.01,0.01,0.11,0.06,0.07,0.04c-0.02-0.02-0.02-0.02,0,0c0.03,0.02,0.02,0.02-0.01-0.02c0-0.01-0.01-0.04-0.02-0.05     c0.02,0.01,0,0.07-0.01,0.07c-0.01,0.06-0.02,0.11-0.03,0.17c-0.07,0.42-0.13,0.85-0.2,1.27c-0.04,0.27,0.07,0.54,0.35,0.62     C396.85,399.23,397.19,399.08,397.23,398.81L397.23,398.81z"/>
		</g>
	</g>
	<g>
		<g>
			<path class="st3" d="M408.4,398.99c0.55,0.14,1.1,0.25,1.67,0.32c0.2,0.06,0.4,0.07,0.6,0.03c0.2-0.01,0.39-0.07,0.56-0.18     c0.17-0.09,0.32-0.22,0.42-0.39c0.13-0.14,0.22-0.31,0.27-0.51c0.02-0.13,0.04-0.27,0.05-0.4c0-0.27-0.07-0.52-0.2-0.76     c-0.08-0.1-0.16-0.2-0.23-0.3c-0.19-0.19-0.41-0.31-0.66-0.39c-0.11-0.02-0.21-0.05-0.32-0.07c-0.17-0.03-0.35-0.06-0.53-0.07     c-0.16-0.01-0.41,0.03-0.53,0.06c-0.15,0.03-0.33,0.11-0.45,0.18c-0.01,0.01-0.03,0.02-0.04,0.03c-0.1,0.07-0.24,0.17-0.33,0.26     c-0.24,0.22-0.38,0.5-0.49,0.8c0,0.01-0.01,0.03-0.01,0.04c0,0.01,0,0.02,0,0.03c-0.02,0.13-0.04,0.27-0.05,0.4     c-0.01,0.16,0.02,0.33,0.06,0.48c0.08,0.28,0.22,0.5,0.41,0.71c0.01,0.01,0.02,0.03,0.04,0.04c0.1,0.08,0.2,0.16,0.3,0.23     c0.01,0.01,0.02,0.02,0.04,0.02c0.12,0.05,0.24,0.1,0.36,0.15c0.01,0,0.02,0.01,0.03,0.01c0.14,0.04,0.29,0.06,0.43,0.06     c0.17,0,0.34-0.02,0.5-0.07c0.12-0.04,0.27-0.1,0.39-0.16c0.02-0.01,0.04-0.02,0.06-0.03c0.06-0.04,0.11-0.09,0.17-0.13     c0.06-0.04,0.11-0.09,0.17-0.13c0.02-0.02,0.03-0.03,0.05-0.05c0.15-0.14,0.25-0.3,0.31-0.48c0.09-0.18,0.14-0.37,0.13-0.58     c0.01-0.21-0.04-0.4-0.13-0.58c-0.06-0.19-0.16-0.35-0.31-0.48c-0.29-0.26-0.66-0.46-1.06-0.44c-0.13,0.02-0.27,0.04-0.4,0.05     c-0.25,0.07-0.47,0.2-0.66,0.39c-0.02,0.02-0.04,0.04-0.06,0.06c0.1-0.08,0.2-0.16,0.3-0.23c-0.03,0.02-0.05,0.03-0.08,0.05     c0.12-0.05,0.24-0.1,0.36-0.15c-0.03,0.01-0.06,0.02-0.09,0.02c0.13-0.02,0.27-0.04,0.4-0.05c-0.02,0-0.04,0-0.06,0     c0.13,0.02,0.27,0.04,0.4,0.05c-0.01,0-0.03-0.01-0.04-0.01c0.12,0.05,0.24,0.1,0.36,0.15c-0.01-0.01-0.03-0.01-0.04-0.02     c0.1,0.08,0.2,0.16,0.3,0.23c-0.01-0.01-0.03-0.02-0.04-0.04c0.08,0.1,0.16,0.2,0.23,0.3c-0.01-0.01-0.01-0.02-0.02-0.03     c0.05,0.12,0.1,0.24,0.15,0.36c-0.01-0.02-0.01-0.03-0.01-0.05c0.02,0.13,0.04,0.27,0.05,0.4c0-0.02,0-0.03,0-0.05     c-0.02,0.13-0.04,0.27-0.05,0.4c0-0.03,0.01-0.06,0.02-0.09c-0.05,0.12-0.1,0.24-0.15,0.36c0.01-0.02,0.02-0.05,0.04-0.07     c-0.08,0.1-0.16,0.2-0.23,0.3c0.02-0.03,0.04-0.05,0.07-0.07c-0.1,0.08-0.2,0.16-0.3,0.23c0.02-0.02,0.04-0.03,0.07-0.04     c-0.12,0.05-0.24,0.1-0.36,0.15c0.03-0.01,0.05-0.02,0.08-0.02c-0.13,0.02-0.27,0.04-0.4,0.05c0.06-0.01,0.11-0.01,0.17,0     c-0.13-0.02-0.27-0.04-0.4-0.05c0.14,0.02,0.27,0.06,0.41,0.09c0.27-0.96,0.53-1.93,0.8-2.89c-0.56-0.08-1.12-0.18-1.67-0.32     c-0.2-0.06-0.4-0.07-0.6-0.03c-0.2,0.01-0.39,0.07-0.56,0.18c-0.17,0.09-0.32,0.22-0.42,0.39c-0.13,0.14-0.22,0.31-0.27,0.51     c-0.02,0.13-0.04,0.27-0.05,0.4c0,0.27,0.07,0.52,0.2,0.76C407.71,398.63,408.02,398.9,408.4,398.99L408.4,398.99z"/>
		</g>
	</g>
	<g>
		<g>
			<path class="st3" d="M410.06,399.66c1.93,0,1.93-3,0-3C408.13,396.66,408.12,399.66,410.06,399.66L410.06,399.66z"/>
		</g>
	</g>
	<g>
		<g>
			<path class="st3" d="M410.06,399.87c1.93,0,1.93-3,0-3C408.13,396.87,408.12,399.87,410.06,399.87L410.06,399.87z"/>
		</g>
	</g>
	<g>
		<g>
			<path class="st3" d="M399.49,397.04c3.83,0.06,7.67,0.13,11.5,0.19c0-0.33,0-0.67,0-1c-1.43,0-2.85,0-4.28,0     c-0.69,0-1.39,0-2.08,0c-0.65,0-1.36,0.07-1.95-0.24c-0.08,0.31-0.17,0.62-0.25,0.93c3.84,0.03,7.68,0.17,11.51,0.43     c-0.04-0.33-0.09-0.65-0.13-0.98c-3.58,0.55-7.2,0.75-10.82,0.63c-0.6-0.02-0.63,0.79-0.13,0.98c1.66,0.63,3.42,0.92,5.19,0.87     c0.54-0.02,0.7-0.86,0.13-0.98c-0.8-0.17-1.57-0.41-2.32-0.72c-0.59-0.25-0.85,0.72-0.27,0.96c0.75,0.31,1.52,0.55,2.32,0.72     c0.04-0.33,0.09-0.65,0.13-0.98c-1.69,0.05-3.34-0.24-4.92-0.84c-0.04,0.33-0.09,0.65-0.13,0.98c3.71,0.13,7.42-0.1,11.09-0.66     c0.59-0.09,0.4-0.95-0.13-0.98c-3.83-0.26-7.67-0.4-11.51-0.43c-0.48,0-0.7,0.7-0.25,0.93c1.19,0.62,2.75,0.38,4.05,0.38     c1.59,0,3.18,0,4.77,0c0.64,0,0.64-0.99,0-1c-3.83-0.06-7.67-0.13-11.5-0.19C398.84,396.03,398.84,397.03,399.49,397.04     L399.49,397.04z"/>
		</g>
	</g>
	<g>
		<g>
			<path class="st3" d="M429.47,399.09c-0.13,0.29-0.26,0.59-0.39,0.88c-0.04,0.1-0.09,0.2-0.13,0.29c0.06,0.01,0.13,0.01,0.19,0.02     c-0.03-0.18-0.12-0.36-0.17-0.53c-0.22-0.67-0.43-1.34-0.65-2.01c-0.17-0.52-0.99-0.45-0.98,0.13c0.01,1.27,0.02,2.55,0.03,3.82     c0.33-0.04,0.65-0.09,0.98-0.13c-0.4-1.07-0.73-2.16-1-3.26c-0.13-0.54-1.02-0.44-0.98,0.13c0.07,1.11,0.24,2.37,1.31,2.97     c0.5,0.28,1.03,0.18,1.56,0.29c0.62,0.13,1.05,0.57,1.3,1.13c0.14-0.25,0.29-0.5,0.43-0.75c-2.21-0.08-4.26,0.76-6.35,1.35     c-1.78,0.5-3.92,0.44-5.36,1.75c-0.48,0.43,0.23,1.14,0.71,0.71c0.66-0.6,1.52-0.8,2.37-0.95c0.93-0.17,1.83-0.33,2.74-0.6     c1.94-0.56,3.84-1.34,5.89-1.26c0.42,0.02,0.57-0.43,0.43-0.75c-0.38-0.87-1.19-1.5-2.13-1.63c-0.53-0.07-1.05,0.02-1.42-0.43     c-0.41-0.5-0.44-1.2-0.48-1.82c-0.33,0.04-0.65,0.09-0.98,0.13c0.27,1.11,0.61,2.19,1,3.26c0.19,0.5,0.99,0.46,0.98-0.13     c-0.01-1.27-0.02-2.55-0.03-3.82c-0.33,0.04-0.65,0.09-0.98,0.13c0.19,0.6,0.39,1.2,0.58,1.8c0.14,0.44,0.24,1.04,0.62,1.36     c0.98,0.81,1.52-0.97,1.79-1.57C430.59,399.01,429.73,398.5,429.47,399.09L429.47,399.09z"/>
		</g>
	</g>
	<g>
		<g>
			<path class="st3" d="M417.86,399.8c0.97,0.13,1.95-0.12,2.88-0.38c0.86-0.24,1.37-0.41,2.21-0.33c-0.26-0.03,0.3,0.07,0.36,0.08     c0.2,0.05,0.39,0.12,0.59,0.19c0.43,0.15-0.2-0.11,0.22,0.09c0.19,0.09,0.37,0.19,0.56,0.3c0.77,0.45,1.18,0.8,1.85,1.41     c0.6,0.55,1.53,0.59,2.12,0c0.56-0.56,0.6-1.57,0-2.12c-1.4-1.29-3.07-2.53-4.99-2.86c-1.07-0.18-2.09-0.09-3.13,0.18     c-0.47,0.12-0.93,0.27-1.4,0.38c-0.11,0.02-0.22,0.05-0.33,0.07c0.19-0.03-0.12,0.01-0.18,0.02c-0.25,0.01-0.5,0-0.75-0.03     c-0.78-0.1-1.53,0.76-1.5,1.5C416.4,399.2,417.02,399.69,417.86,399.8L417.86,399.8z"/>
		</g>
	</g>
	<g>
		<g>
			<path class="st3" d="M428.48,402.59c0.61,0,1.22,0,1.82,0c0.38,0,0.79-0.17,1.06-0.44c0.15-0.14,0.25-0.3,0.31-0.48     c0.09-0.18,0.14-0.37,0.13-0.58c-0.02-0.39-0.14-0.79-0.44-1.06c-0.29-0.27-0.65-0.44-1.06-0.44c-0.61,0-1.22,0-1.82,0     c-0.38,0-0.79,0.17-1.06,0.44c-0.15,0.14-0.25,0.3-0.31,0.48c-0.09,0.18-0.14,0.37-0.13,0.58c0.02,0.39,0.14,0.79,0.44,1.06     C427.71,402.42,428.07,402.59,428.48,402.59L428.48,402.59z"/>
		</g>
	</g>
	<g>
		<g>
			<path class="st3" d="M419.67,406.63c3.9-1.79,8.03-3.04,12.26-3.74c0.63-0.11,0.36-1.07-0.27-0.96     c-4.32,0.72-8.52,2.02-12.5,3.84C418.58,406.04,419.08,406.9,419.67,406.63L419.67,406.63z"/>
		</g>
	</g>
	<g>
		<g>
			<path class="st3" d="M424.22,399.25c1.17,0.92,2.06,2.13,2.53,3.54c0.21-0.21,0.41-0.41,0.62-0.62     c-1.53-0.28-2.96,0.19-4.34,0.81c-1.48,0.66-2.93,1.38-4.4,2.07c-0.58,0.28-0.07,1.12,0.5,0.86c2.95-1.33,5.91-2.66,8.86-3.98     c0.59-0.26,0.08-1.12-0.5-0.86c-2.96,1.32-5.91,2.65-8.86,3.98c0.17,0.29,0.34,0.58,0.5,0.86c1.32-0.62,2.63-1.25,3.95-1.87     c1.24-0.58,2.62-1.17,4.02-0.91c0.35,0.06,0.75-0.22,0.62-0.62c-0.53-1.57-1.48-2.96-2.79-3.99     C424.43,398.15,423.72,398.86,424.22,399.25L424.22,399.25z"/>
		</g>
	</g>
	<g>
		<g>
			<path class="st3" d="M420.29,398.3c-2.14,1.83-2.59,4.78-2.34,7.45c0.33,0,0.67,0,1,0c-0.26-2.22,0.2-4.46,1.35-6.38     c-0.29-0.17-0.58-0.34-0.86-0.5c-0.92,2.16-1.37,4.48-1.29,6.83c0.02,0.64,1.02,0.64,1,0c-0.07-2.16,0.31-4.33,1.16-6.33     c0.24-0.57-0.52-1.08-0.86-0.5c-1.23,2.06-1.76,4.5-1.48,6.89c0.03,0.27,0.21,0.5,0.5,0.5c0.25,0,0.52-0.23,0.5-0.5     c-0.22-2.42,0.1-5.07,2.05-6.74C421.49,398.59,420.78,397.88,420.29,398.3L420.29,398.3z"/>
		</g>
	</g>
	<g>
		<g>
			<path class="st3" d="M410.72,399.06c0.81,0.02,1.52-0.45,2.31-0.55c0.75-0.1,1.55,0.01,2.25,0.32c1.33,0.59,2.28,1.91,2.43,3.35     c0.06,0.53,0.83,0.72,0.98,0.13c0.37-1.4,0.65-2.81,0.85-4.24c0.07-0.51-0.64-0.94-0.91-0.39c-0.59,1.18-0.84,2.47-0.71,3.79     c0.31-0.08,0.62-0.17,0.93-0.25c-0.27-0.48-0.27-1.04-0.45-1.55c-0.17-0.49-0.45-0.92-0.92-1.16c-0.57-0.29-1.08,0.57-0.5,0.86     c0.4,0.21,0.51,0.64,0.6,1.05c0.1,0.46,0.19,0.89,0.42,1.3c0.23,0.41,0.98,0.25,0.93-0.25c-0.11-1.14,0.07-2.26,0.58-3.28     c-0.3-0.13-0.61-0.26-0.91-0.39c-0.2,1.43-0.48,2.84-0.85,4.24c0.33,0.04,0.65,0.09,0.98,0.13c-0.18-1.7-1.15-3.29-2.69-4.1     c-0.77-0.41-1.65-0.62-2.52-0.61c-0.45,0.01-0.9,0.07-1.33,0.19c-0.48,0.14-0.94,0.4-1.45,0.39     C410.07,398.05,410.07,399.05,410.72,399.06L410.72,399.06z"/>
		</g>
	</g>
	<g>
		<g>
			<path class="st3" d="M414.69,398.54c1.16,0.6,1.95,1.7,2.37,2.92c0.26,0.74,0.41,1.51,0.5,2.29c0.04,0.39,0.07,0.78,0.1,1.17     c0.01,0.19,0.03,0.39,0.03,0.59c0,0.05,0,0.1,0,0.14c-0.03,0.09,0.01,0.07,0.1-0.05c-0.61,0.2-0.35,1.17,0.27,0.96     c0.87-0.28,0.62-1.39,0.57-2.09c-0.08-0.99-0.2-1.99-0.49-2.94c-0.48-1.59-1.44-3.08-2.95-3.86     C414.63,397.38,414.12,398.24,414.69,398.54L414.69,398.54z"/>
		</g>
	</g>
	<g>
		<g>
			<path class="st3" d="M454.75,399.67c0.16,2.15,0.32,4.3,0.48,6.45c0.33,0,0.67,0,1,0c-0.17-2.02,0.15-4.08,1.02-5.93     c0.4-0.85,0.83-1.81,1.79-2.1c0.83-0.25,1.92-0.56,2.72-0.08c0.04-0.3,0.08-0.61,0.12-0.91c-1.56,0.39-3.28,0.62-4.54,1.7     c-1.08,0.92-1.71,2.28-2.02,3.64c0.33,0.04,0.65,0.09,0.98,0.13c0.02-1.52,0.06-3.05,0.66-4.47c-0.33-0.04-0.65-0.09-0.98-0.13     c0.08,0.79,0.1,1.59,0.08,2.39c-0.02,0.59,0.8,0.65,0.98,0.13c0.15-0.42,0.42-0.76,0.8-0.99c-0.23-0.23-0.46-0.46-0.68-0.68     c-0.09,0.12-0.18,0.2-0.3,0.27c-0.55,0.33-0.05,1.2,0.5,0.86c0.28-0.17,0.48-0.37,0.66-0.63c0.29-0.42-0.27-0.94-0.68-0.68     c-0.61,0.38-1.02,0.92-1.26,1.59c0.33,0.04,0.65,0.09,0.98,0.13c0.02-0.8,0-1.59-0.08-2.39c-0.06-0.58-0.76-0.65-0.98-0.13     c-0.63,1.5-0.67,3.14-0.69,4.74c-0.01,0.56,0.85,0.69,0.98,0.13c0.28-1.2,0.8-2.39,1.76-3.2c1.1-0.93,2.75-1.1,4.1-1.44     c0.42-0.11,0.48-0.7,0.12-0.91c-0.97-0.58-2.11-0.37-3.15-0.11c-0.54,0.13-1.05,0.32-1.47,0.7c-0.43,0.39-0.72,0.92-0.99,1.42     c-1.13,2.13-1.63,4.57-1.42,6.96c0.05,0.63,1.05,0.64,1,0c-0.16-2.15-0.32-4.3-0.48-6.45     C455.7,399.03,454.7,399.03,454.75,399.67L454.75,399.67z"/>
		</g>
	</g>
	<g>
		<g>
			<path class="st3" d="M445.53,402.87c0.85-0.1,1.71,0.48,2.47,0.82c0.78,0.35,1.57,0.71,2.35,1.06c1.6,0.72,3.2,1.44,4.81,2.17     c0.34,0.15,0.74-0.02,0.75-0.43c0.02-1.01-0.95-1.47-1.72-1.86c-1.05-0.53-2.13-1.01-3.23-1.43c-2.22-0.86-4.52-1.48-6.86-1.87     c-0.63-0.11-0.9,0.86-0.27,0.96c2,0.34,3.98,0.84,5.9,1.51c0.97,0.34,1.92,0.72,2.85,1.15c0.44,0.2,0.87,0.41,1.3,0.63     c0.35,0.18,1.05,0.43,1.05,0.91c0.25-0.14,0.5-0.29,0.75-0.43c-1.74-0.78-3.48-1.57-5.22-2.35c-0.85-0.38-1.7-0.77-2.56-1.15     c-0.75-0.34-1.51-0.78-2.36-0.68C444.9,401.95,444.89,402.95,445.53,402.87L445.53,402.87z"/>
		</g>
	</g>
	<g>
		<g>
			<path class="st3" d="M443.75,403.08c3.72,0.96,7.36,2.22,10.87,3.79c0.58,0.26,1.09-0.6,0.5-0.86c-3.59-1.6-7.3-2.91-11.11-3.89     C443.39,401.96,443.13,402.92,443.75,403.08L443.75,403.08z"/>
		</g>
	</g>
	<g>
		<g>
			<path class="st3" d="M454.79,406.85c3.61,1.85,6.95,4.17,9.95,6.91c0.47,0.43,1.18-0.27,0.71-0.71     c-3.05-2.79-6.47-5.18-10.15-7.07C454.72,405.69,454.21,406.56,454.79,406.85L454.79,406.85z"/>
		</g>
	</g>
	<g>
		<g>
			<path class="st3" d="M455.68,406.66c2.64,1.62,5.13,3.48,7.43,5.56c0.48,0.43,1.19-0.28,0.71-0.71     c-2.37-2.13-4.92-4.05-7.63-5.71C455.63,405.46,455.13,406.32,455.68,406.66L455.68,406.66z"/>
		</g>
	</g>
	<g>
		<g>
			<path class="st3" d="M456.4,407.59c1.9,2.08,4.79,2.73,6.86,4.58c0.4,0.36,1.13-0.12,0.79-0.61c-0.8-1.13-1.87-1.97-3.15-2.5     c-0.25-0.1-0.55,0.11-0.62,0.35c-0.08,0.29,0.1,0.51,0.35,0.62c1.02,0.42,1.91,1.15,2.55,2.04c0.26-0.2,0.52-0.4,0.79-0.61     c-2.07-1.85-4.98-2.51-6.86-4.58C456.67,406.41,455.97,407.12,456.4,407.59L456.4,407.59z"/>
		</g>
	</g>
	<g>
		<g>
			<path class="st3" d="M456.28,407.03c2.65,1.27,4.63,3.52,7.12,5.04c0.49,0.3,0.99-0.38,0.61-0.79c-1.95-2.04-4.38-3.51-6.78-4.94     c-0.55-0.33-1.06,0.53-0.5,0.86c2.34,1.39,4.69,2.8,6.58,4.79c0.2-0.26,0.4-0.52,0.61-0.79c-2.49-1.52-4.47-3.77-7.12-5.04     C456.2,405.88,455.7,406.75,456.28,407.03L456.28,407.03z"/>
		</g>
	</g>
	<g>
		<g>
			<path class="st3" d="M453.38,399.44c0.89,0.52,1.2,1.76,1.36,2.7c0.19,1.11,0.15,2.25,0.13,3.36c0.33,0,0.67,0,1,0     c0-2.62-0.51-5.23-1.53-7.65c-0.16,0.21-0.32,0.42-0.48,0.63c0.71-0.01,1.41,0.01,2.11,0.07c0-0.33,0-0.67,0-1     c-0.25,0.02-0.51,0.04-0.76,0.06c-0.64,0.05-0.64,1.05,0,1c0.25-0.02,0.51-0.04,0.76-0.06c0.64-0.05,0.64-0.95,0-1     c-0.7-0.05-1.41-0.08-2.11-0.07c-0.29,0-0.61,0.32-0.48,0.63c0.99,2.34,1.5,4.85,1.49,7.39c0,0.64,0.98,0.64,1,0     c0.03-1.3,0.05-2.61-0.21-3.89c-0.24-1.14-0.72-2.42-1.77-3.05C453.33,398.25,452.82,399.12,453.38,399.44L453.38,399.44z"/>
		</g>
	</g>
	<g>
		<g>
			<path class="st3" d="M455.51,400.9c-0.29-0.57-0.63-1.12-1.01-1.64c-0.3-0.42-1.15-0.18-0.91,0.39c0.19,0.45,0.38,0.91,0.57,1.36     c0.3-0.13,0.61-0.26,0.91-0.39c-0.6-0.8-1.01-1.72-1.89-2.26c-0.78-0.48-1.73-0.62-2.62-0.51c-0.97,0.13-1.95,0.54-2.55,1.35     c-0.3,0.41-0.49,0.87-0.7,1.33c-0.26,0.58-0.52,1.15-0.78,1.73c-0.26,0.58,0.6,1.09,0.86,0.5c0.39-0.87,0.74-1.77,1.2-2.61     c0.41-0.76,1.13-1.16,1.98-1.3c0.69-0.11,1.44-0.02,2.05,0.34c0.75,0.44,1.08,1.27,1.58,1.93c0.15,0.2,0.38,0.31,0.62,0.2     c0.21-0.09,0.39-0.36,0.29-0.59c-0.19-0.45-0.38-0.91-0.57-1.36c-0.3,0.13-0.61,0.26-0.91,0.39c0.38,0.52,0.71,1.07,1.01,1.64     C454.94,401.98,455.8,401.48,455.51,400.9L455.51,400.9z"/>
		</g>
	</g>
	<g>
		<g>
			<path class="st3" d="M448.38,400.15c1.71-1.05,3.75-1.33,5.68-0.8c0.39,0.11,0.83-0.37,0.56-0.73c-1.05-1.44-3.19-1.08-4.74-1.07     c-2.26,0.01-4.52,0.02-6.78,0.03c-0.55,0-0.7,0.86-0.13,0.98c4.16,0.91,8.48-0.16,12.63,0.85c0.04-0.33,0.09-0.65,0.13-0.98     c-0.34,0.01-0.68,0.02-1.01,0.03c-0.53,0.01-0.63,0.65-0.25,0.93c1.13,0.84,2.85,0.18,3.21-1.15c0.08-0.31-0.16-0.64-0.48-0.63     c-0.31,0-0.62,0.01-0.93,0.01c0.04,0.33,0.09,0.65,0.13,0.98c2.81-0.51,5.69-0.56,8.52-0.15c0.63,0.09,0.9-0.87,0.27-0.96     c-3.02-0.44-6.05-0.39-9.05,0.15c-0.56,0.1-0.42,0.99,0.13,0.98c0.31,0,0.62-0.01,0.93-0.01c-0.16-0.21-0.32-0.42-0.48-0.63     c-0.21,0.76-1.14,1-1.74,0.55c-0.08,0.31-0.17,0.62-0.25,0.93c0.34-0.01,0.68-0.02,1.01-0.03c0.55-0.01,0.7-0.84,0.13-0.98     c-4.15-1.01-8.47,0.06-12.63-0.85c-0.04,0.33-0.09,0.65-0.13,0.98c1.93-0.01,3.87-0.02,5.8-0.03c0.95,0,1.89-0.02,2.84-0.01     c0.67,0,1.59-0.02,2.03,0.59c0.19-0.24,0.38-0.49,0.56-0.73c-2.18-0.6-4.52-0.28-6.45,0.9     C447.33,399.62,447.83,400.49,448.38,400.15L448.38,400.15z"/>
		</g>
	</g>
	<g>
		<g>
			<path class="st3" d="M471.27,399.54c0.18,0.23,0.35,0.46,0.53,0.69c0.24-0.24,0.47-0.47,0.71-0.71     c-0.32-0.31-0.64-0.62-0.96-0.94c-0.16,0.28-0.32,0.56-0.49,0.84c0.46,0.18,0.8,0.95,0.99,1.36c0.25,0.54,0.42,1.13,0.53,1.72     c0.25,1.35,0.17,2.74,0.1,4.1c-0.03,0.6,0.8,0.63,0.98,0.13c0.89-2.42,0.61-5.03,0.7-7.56c0.02-0.65-0.95-0.64-1,0     c-0.08,1.16-0.17,2.31-0.25,3.47c0.33-0.04,0.65-0.09,0.98-0.13c-0.19-1.15-0.26-2.32-0.23-3.48c-0.33,0-0.67,0-1,0     c0.01,0.72,0,1.43-0.02,2.15c-0.02,0.64,0.98,0.64,1,0c0.02-0.72,0.03-1.43,0.02-2.15c-0.01-0.64-0.98-0.64-1,0     c-0.03,1.26,0.06,2.51,0.27,3.75c0.1,0.59,0.94,0.39,0.98-0.13c0.08-1.16,0.17-2.31,0.25-3.47c-0.33,0-0.67,0-1,0     c-0.08,2.44,0.2,4.96-0.66,7.29c0.33,0.04,0.65,0.09,0.98,0.13c0.08-1.58,0.14-3.19-0.22-4.74c-0.15-0.67-0.39-1.32-0.72-1.92     c-0.33-0.61-0.75-1.22-1.42-1.48c-0.48-0.19-0.82,0.51-0.49,0.84c0.32,0.31,0.64,0.62,0.96,0.94c0.47,0.46,1.09-0.21,0.71-0.71     c-0.18-0.23-0.35-0.46-0.53-0.69c-0.17-0.22-0.53-0.17-0.71,0C471.05,399.05,471.1,399.33,471.27,399.54L471.27,399.54z"/>
		</g>
	</g>
	<g>
		<g>
			<path class="st3" d="M475.69,398.59c-1.87,1.7-2.4,4.23-2.58,6.65c-0.21,2.9-0.31,5.81-0.45,8.72c-0.03,0.65,0.95,0.64,1,0     c0.28-3.72,0.56-7.45,0.83-11.17c0.05-0.65-0.94-0.63-1,0c-0.59,6.29-0.92,12.6-0.99,18.92c-0.01,0.64,0.99,0.64,1,0     c0.07-6.32,0.4-12.63,0.99-18.92c-0.33,0-0.67,0-1,0c-0.28,3.72-0.56,7.45-0.83,11.17c0.33,0,0.67,0,1,0     c0.14-2.67,0.26-5.35,0.41-8.03c0.14-2.38,0.47-4.95,2.33-6.64C476.87,398.87,476.16,398.16,475.69,398.59L475.69,398.59z"/>
		</g>
	</g>
	<g>
		<g>
			<path class="st3" d="M473.3,405.62c-0.5,6.6-0.84,13.2-1.04,19.82c-0.02,0.64,0.98,0.64,1,0c0.2-6.61,0.55-13.22,1.04-19.82     C474.35,404.98,473.35,404.98,473.3,405.62L473.3,405.62z"/>
		</g>
	</g>
	<g>
		<g>
			<path class="st3" d="M473.22,413.23c-0.2,2.41-0.36,4.82-0.45,7.23c-0.05,1.19-0.08,2.37-0.1,3.56     c-0.02,0.95-0.12,2.01,0.47,2.82c0.28,0.38,0.93,0.28,0.93-0.25c0.04-3.9,0.09-7.8,0.13-11.7c0.01-0.64-0.99-0.64-1,0     c-0.04,3.9-0.09,7.8-0.13,11.7c0.31-0.08,0.62-0.17,0.93-0.25c-0.59-0.81-0.34-2.11-0.32-3.05c0.02-1.11,0.06-2.21,0.11-3.32     c0.1-2.25,0.24-4.5,0.43-6.74C474.27,412.59,473.27,412.6,473.22,413.23L473.22,413.23z"/>
		</g>
	</g>
	<g>
		<g>
			<path class="st3" d="M473.29,405.85c-0.08,2.75-0.15,5.5-0.23,8.25c-0.02,0.64,0.98,0.64,1,0c0.08-2.75,0.15-5.5,0.23-8.25     C474.31,405.21,473.31,405.21,473.29,405.85L473.29,405.85z"/>
		</g>
	</g>
	<g>
		<g>
			<path class="st3" d="M477.17,398.98c0.64,0,0.64-1,0-1C476.52,397.98,476.52,398.98,477.17,398.98L477.17,398.98z"/>
		</g>
	</g>
	<g>
		<g>
			<path class="st3" d="M475.27,396.63c-0.87,0-1.73,0-2.6,0c0,0.33,0,0.67,0,1c0.8-0.06,1.59,0.02,2.36,0.24     c0.15,0.04,0.29,0.08,0.42,0.15c0.06,0.03,0.09,0.06,0.13,0.1c0.06,0.06,0.05,0.06,0.09,0.11c0.23,0.32,0.43,0.59,0.81,0.72     c0.25,0.09,0.55-0.1,0.62-0.35c0.08-0.28-0.09-0.53-0.35-0.62c0.05,0.02,0,0-0.02-0.01c0.04,0.03,0,0-0.02-0.02     c-0.08-0.08-0.05-0.04-0.1-0.12c-0.1-0.14-0.2-0.29-0.32-0.42c-0.29-0.29-0.69-0.42-1.07-0.53c-0.83-0.23-1.7-0.32-2.55-0.26     c-0.27,0.02-0.5,0.22-0.5,0.5c0,0.27,0.23,0.5,0.5,0.5c0.87,0,1.73,0,2.6,0C475.91,397.63,475.91,396.63,475.27,396.63     L475.27,396.63z"/>
		</g>
	</g>
	<g>
		<g>
			<path class="st3" d="M477.77,398.38c-0.03-0.05-0.05-0.11-0.08-0.16c-0.03-0.06-0.07-0.11-0.13-0.14     c-0.05-0.04-0.1-0.07-0.17-0.09c-0.07-0.02-0.13-0.02-0.2-0.01c-0.07,0-0.13,0.02-0.19,0.06c-0.03,0.03-0.07,0.05-0.1,0.08     c-0.06,0.06-0.1,0.14-0.13,0.22c-0.01,0.04-0.01,0.09-0.02,0.13c0,0.09,0.02,0.17,0.07,0.25c0.03,0.05,0.05,0.11,0.08,0.16     c0.03,0.06,0.07,0.11,0.13,0.14c0.05,0.04,0.1,0.07,0.17,0.09c0.07,0.02,0.13,0.02,0.2,0.01c0.07,0,0.13-0.02,0.19-0.06     c0.03-0.03,0.07-0.05,0.1-0.08c0.06-0.06,0.1-0.14,0.13-0.22c0.01-0.04,0.01-0.09,0.02-0.13     C477.84,398.54,477.81,398.46,477.77,398.38L477.77,398.38z"/>
		</g>
	</g>
	<g>
		<g>
			<path class="st3" d="M477.09,397.15c0.64,0,0.64-1,0-1C476.45,396.15,476.44,397.15,477.09,397.15L477.09,397.15z"/>
		</g>
	</g>
	<g>
		<g>
			<path class="st3" d="M477.09,397c0.64,0,0.64-1,0-1C476.45,396,476.44,397,477.09,397L477.09,397z"/>
		</g>
	</g>
	<g>
		<g>
			<path class="st3" d="M477.09,395.97c-4.63-0.06-9.25,0.23-13.84,0.85c-0.63,0.09-0.36,1.05,0.27,0.96     c4.5-0.61,9.04-0.87,13.57-0.81C477.73,396.98,477.73,395.98,477.09,395.97L477.09,395.97z"/>
		</g>
	</g>
	<g>
		<g>
			<path class="st3" d="M464.72,400.06c1.93,0,1.93-3,0-3C462.79,397.06,462.79,400.06,464.72,400.06L464.72,400.06z"/>
		</g>
	</g>
	<g>
		<g>
			<path class="st3" d="M465.69,399.46c0.06,0.11,0.08,0.23,0.07,0.35c-0.01,0.06-0.11,0.27-0.02,0.14     c-0.04,0.05-0.12,0.13-0.03,0.04c0.04-0.04,0.09-0.08,0.13-0.12c0.09-0.09-0.22,0.16,0,0c0.05-0.03,0.09-0.07,0.14-0.1     c0.11-0.08,0.21-0.15,0.32-0.23c0.41-0.3,0.82-0.64,1.28-0.87c0.03-0.02,0.15-0.1,0.05-0.03c-0.1,0.08,0.05-0.01,0.09-0.02     c0.04-0.01,0.1-0.01,0.14-0.03c-0.15,0.02-0.18,0.02-0.11,0.01c0.02,0,0.04,0,0.07-0.01c0.21-0.02,0.42-0.01,0.63-0.02     c0.62-0.03,1.17-0.17,1.63-0.6c0.39-0.36,0.39-1.06,0-1.41c-0.41-0.38-1-0.38-1.41,0c-0.17,0.15,0.16-0.15,0.01-0.01     c-0.02,0.01-0.04,0.02-0.05,0.03c0.14-0.06,0.17-0.07,0.1-0.05c-0.05,0.01-0.1,0.02-0.15,0.04c-0.21,0.05,0.23-0.01,0.01,0     c-0.22,0.01-0.44,0.01-0.66,0.02c-0.67,0.04-1.26,0.25-1.81,0.63c-0.51,0.35-1.02,0.71-1.51,1.09c-0.67,0.52-1.08,1.34-0.64,2.16     c0.25,0.46,0.93,0.64,1.37,0.36C465.8,400.53,465.96,399.95,465.69,399.46L465.69,399.46z"/>
		</g>
	</g>
	<g>
		<g>
			<path class="st3" d="M423.63,397.85c3.07,0.65,6.23,0.8,9.35,0.39c0.54-0.07,1-0.41,1-1c0-0.57-0.46-0.97-1-1     c-2.71-0.16-5.43-0.14-8.14,0.07c-0.54,0.04-1,0.43-1,1c0,0.51,0.46,1.04,1,1c2.71-0.21,5.43-0.23,8.14-0.07c0-0.67,0-1.33,0-2     c-2.94,0.38-5.92,0.29-8.81-0.32c-0.53-0.11-1.08,0.16-1.23,0.7C422.8,397.12,423.1,397.74,423.63,397.85L423.63,397.85z"/>
		</g>
	</g>
	<g>
		<g>
			<path class="st3" d="M412.57,397.94c0.16-0.15,0.54,0.01,0.71,0.05c0.41,0.11,0.8,0.22,1.22,0.27c0.88,0.11,1.77,0.08,2.65,0.08     c1.88,0.01,3.76,0.03,5.63,0.04c1.29,0.01,1.29-1.99,0-2c-2.09-0.02-4.19-0.03-6.28-0.05c-0.93-0.01-1.78-0.03-2.68-0.28     c-0.95-0.26-1.9-0.26-2.65,0.46C410.22,397.42,411.64,398.83,412.57,397.94L412.57,397.94z"/>
		</g>
	</g>
	<g>
		<g>
			<path class="st3" d="M410.92,398.07c0.3-0.22,0.59-0.18,0.95-0.17c0.47,0.02,0.95,0.05,1.42,0.07c1.03,0.05,2.05,0.1,3.08,0.15     c2.05,0.1,4.1,0.2,6.16,0.31c0.87,0.04,1.32-1.12,0.71-1.71c-0.09-0.09-0.18-0.17-0.27-0.26c-0.93-0.89-2.35,0.52-1.41,1.41     c0.09,0.09,0.18,0.17,0.27,0.26c0.24-0.57,0.47-1.14,0.71-1.71c-2.21-0.11-4.42-0.22-6.63-0.33c-1.1-0.05-2.21-0.11-3.31-0.16     c-0.9-0.04-1.9-0.17-2.67,0.41c-0.43,0.32-0.65,0.86-0.36,1.37C409.8,398.14,410.48,398.4,410.92,398.07L410.92,398.07z"/>
		</g>
	</g>
	<g>
		<g>
			<path class="st3" d="M416.75,398.06c2.8-0.3,5.61-0.27,8.4,0.08c0.54,0.07,1-0.51,1-1c0-0.6-0.46-0.93-1-1     c-2.79-0.36-5.61-0.39-8.4-0.08c-0.54,0.06-1,0.42-1,1C415.75,397.55,416.21,398.12,416.75,398.06L416.75,398.06z"/>
		</g>
	</g>
	<g>
		<g>
			<path class="st3" d="M425.55,397.99c1.46-0.09,2.91-0.05,4.36,0.13c0.24,0.03,0.55-0.13,0.71-0.29c0.17-0.17,0.3-0.46,0.29-0.71     c-0.03-0.6-0.44-0.93-1-1c-1.45-0.18-2.91-0.22-4.36-0.13c-0.52,0.03-1.03,0.44-1,1C424.57,397.5,424.99,398.02,425.55,397.99     L425.55,397.99z"/>
		</g>
	</g>
	<g>
		<g>
			<path class="st3" d="M430.78,398.11c4.57,0.06,9.15,0.12,13.72,0.18c4.5,0.06,9.07-0.1,13.55,0.42c1.28,0.15,1.27-1.86,0-2     c-4.48-0.51-9.05-0.36-13.55-0.42c-4.57-0.06-9.15-0.12-13.72-0.18C429.49,396.1,429.49,398.1,430.78,398.11L430.78,398.11z"/>
		</g>
	</g>
	<g>
		<g>
			<path class="st3" d="M435.25,398.17c0.43-0.08,0.86-0.11,1.3-0.13c1.28-0.04,1.29-2.03,0-2c-0.68,0.02-1.35,0.03-2.03,0.05     c-0.54,0.01-1,0.45-1,1c0,0.6,0.46,0.93,1,1c1.51,0.2,3,0.15,4.51-0.09c1.13-0.18,0.84-1.97-0.27-1.96c-0.66,0-1.31,0-1.97,0.01     c0,0.67,0,1.33,0,2c3.06-0.03,6.11,0.07,9.16,0.28c-0.09-0.65-0.18-1.31-0.27-1.96c-1.09,0.27-2.17,0.19-3.22-0.19     c-1.21-0.43-1.74,1.5-0.53,1.93c1.38,0.49,2.86,0.54,4.29,0.19c1.14-0.28,0.82-1.89-0.27-1.96c-3.05-0.22-6.1-0.31-9.16-0.28     c-1.29,0.01-1.29,2,0,2c0.66,0,1.31,0,1.97-0.01c-0.09-0.65-0.18-1.31-0.27-1.96c-1.32,0.21-2.66,0.19-3.98,0.02     c0,0.67,0,1.33,0,2c0.68-0.02,1.35-0.03,2.03-0.05c0-0.67,0-1.33,0-2c-0.62,0.02-1.23,0.09-1.84,0.2     c-0.53,0.1-0.83,0.74-0.7,1.23C434.17,398.03,434.71,398.26,435.25,398.17L435.25,398.17z"/>
		</g>
	</g>
	<g>
		<g>
			<path class="st3" d="M442.91,397.99c3.3-0.18,6.59-0.18,9.87,0.28c0.53,0.08,1.07-0.13,1.23-0.7c0.13-0.47-0.16-1.15-0.7-1.23     c-3.47-0.49-6.91-0.54-10.4-0.35C441.63,396.06,441.63,398.06,442.91,397.99L442.91,397.99z"/>
		</g>
	</g>
	<g>
		<g>
			<path class="st3" d="M450.6,398.05c5.32-0.01,10.64,0.25,15.93,0.77c1.28,0.13,1.27-1.88,0-2c-5.3-0.52-10.61-0.77-15.93-0.77     C449.32,396.05,449.32,398.05,450.6,398.05L450.6,398.05z"/>
		</g>
	</g>
	<g>
		<g>
			<path class="st3" d="M456,398.06c4.71-0.08,9.42,0.12,14.1,0.6c1.28,0.13,1.27-1.87,0-2c-4.69-0.48-9.39-0.68-14.1-0.6     C454.71,396.08,454.71,398.08,456,398.06L456,398.06z"/>
		</g>
	</g>
	<g>
		<g>
			<path class="st3" d="M462.5,398.06c2.61-0.21,5.23-0.19,7.84,0.06c0.54,0.05,1-0.5,1-1c0-0.58-0.46-0.95-1-1     c-2.61-0.25-5.23-0.26-7.84-0.06c-0.54,0.04-1,0.43-1,1C461.5,397.56,461.96,398.1,462.5,398.06L462.5,398.06z"/>
		</g>
	</g>
</g>
<g id="Layer_2">
	<g>
		<path class="st4" d="M505.43,470.71l7.72-54.28h0.88l22.06,44.51l21.81-44.51h0.88l7.83,54.28h-5.38l-5.31-38.83l-19.17,38.83    h-1.39l-19.43-39.09l-5.27,39.09H505.43z"/>
		<path class="st4" d="M599.43,416.29l25.28,54.28h-5.78l-8.53-17.9h-23.42l-8.45,17.9h-6.07l25.65-54.28H599.43z M598.77,427.78    l-9.37,19.69h18.59L598.77,427.78z"/>
		<path class="st4" d="M633.06,416.29h10.79c6.22,0,10.4,0.27,12.55,0.81c3.12,0.78,5.66,2.35,7.61,4.72    c1.95,2.37,2.93,5.36,2.93,8.97c0,3.59-0.96,6.56-2.87,8.91c-1.92,2.35-4.56,3.93-7.92,4.74c-2.46,0.59-7.06,0.88-13.79,0.88    h-3.88v25.25h-5.42V416.29z M638.47,421.56v18.45l9.22,0.11c3.68,0,6.39-0.33,8.11-1.01c1.72-0.67,3.07-1.77,4.06-3.29    c0.99-1.52,1.48-3.2,1.48-5.03c0-1.85-0.49-3.54-1.48-5.05c-0.99-1.51-2.29-2.59-3.9-3.22c-1.61-0.63-4.24-0.95-7.9-0.95H638.47z"/>
	</g>
</g>
<g id="Layer_3">
	<ellipse class="st3" cx="451.5" cy="341" rx="5.5" ry="6"/>
	<path class="st3" d="M447.84,352.32c-0.44,1.33-0.9,2.69-1.81,3.76c-1.29,1.52-3.28,2.22-5.2,2.75c-0.92,0.25-1.85,0.48-2.68,0.95   c-0.83,0.47-1.55,1.22-1.73,2.16s0.31,2.02,1.22,2.3c0.67,0.2,1.38-0.04,2.03-0.28c2.59-0.96,5.17-1.92,7.76-2.88   c3.25-1.21,2.68-4.46,4.39-6.89c-0.07,0.3-0.08,0.37-0.11,0.68c-0.12,1.22-0.24,2.45-0.35,3.67c-0.09,0.89-0.18,1.8-0.6,2.59   c-0.93,1.74-3.1,2.31-5.03,2.71c-0.5,0.1-0.37,10.16-0.39,11.07c-0.05,2.88-0.04,5.76,0.03,8.64c0.06,2.49-0.08,5.06,1.08,7.35   c0.19,0.37,0.43,0.72,0.78,0.94c0.92,0.58,2.15,0.05,3.2,0.3c-0.68-1.05-0.7-2.38-0.71-3.63c0-3.03,0-6.06,0.12-9.08   c0.09-2.29-0.12-4.59-0.03-6.88c0,0.03,1.34-0.06,1.45-0.06c0.47,5.71-0.28,11.34,0.55,17.03c0.17,1.15,0.57,2.49,1.67,2.87   c1.04,0.36,2.35-0.31,2.92-1.2c0.35-0.55,0.4-1.23,0.44-1.88c0.73-11.85,0.52-23.77,0.76-35.63c0.03-1.37,0.02-2.85-0.77-3.97   c-1.22-1.74-3.72-1.89-5.84-1.67c-1.66,0.17-3.8,0.57-4.62,2.19c-0.41,0.8-0.54,1.71-0.67,2.6c-0.13,0.89-0.26,1.79-0.39,2.68   c0.68-1.15,1.62-2.28,2.51-3.28"/>
	<circle class="st3" cx="423" cy="341" r="6"/>
	<path class="st3" d="M423.52,347.87c-2.6-0.07-5.25,0.79-6.09,3.56c-0.31,1.01-0.32,2.08-0.33,3.13   c-0.04,4.04-0.08,8.07-0.12,12.11c-0.08,7.47-1.28,14.82-1.69,22.25c-0.03,0.58-0.06,1.18,0.18,1.71c0.27,0.59,0.84,0.99,1.45,1.19   s1.27,0.23,1.91,0.24c0.34,0,0.7,0,1.01-0.14c0.66-0.29,0.77-1.18,0.85-1.81c0.75-5.78,1.34-11.57,1.74-17.39   c0.56-0.03,1.08-0.07,1.64,0.02c0.82,1.73,1.16,3.8,1.48,5.69c0.67,4.06,1.78,8.04,3.29,11.86c0.29,0.72,0.63,1.49,1.29,1.9   c1.07,0.67,2.98,0.22,3.57-0.86c0.83-1.53-0.15-4.08-0.62-5.57c-0.76-2.43-1.63-4.95-2.09-7.46c-0.44-2.38-1.41-4.55-2-6.9   c-0.64-2.56-0.53-5.24-0.42-7.87c-1.69-0.33-4.76-0.74-5.4-2.65c-0.2-0.6-0.21-1.25-0.24-1.88c-0.08-1.52-0.29-3.04-0.64-4.53   c0.57,1.31,1.13,2.62,1.7,3.93c0.31,0.73,0.64,1.47,1.2,2.03c0.44,0.44,0.99,0.74,1.54,1.01c2.57,1.24,5.37,1.93,8.14,2.61   c-0.7-1.53-0.62-3.45,0.23-4.91c-1.84-0.64-3.67-1.31-5.5-2c-0.41-0.15-0.83-0.31-1.14-0.61c-0.37-0.34-0.56-0.82-0.75-1.29   c-0.42-1.07-0.85-2.14-1.27-3.21c0.48,0.83,1.1,1.59,1.82,2.23c0.11-1.17,0.21-2.37-0.14-3.49c-0.47-1.49-1.41-2.51-3-2.77   C424.59,347.93,424.06,347.88,423.52,347.87z"/>
</g>
</svg>