<svg xmlns="http://www.w3.org/2000/svg" viewBox="207.24 335 459.7 138.37"><style>.st0{fill:#a5dbd1;stroke:#a5dbd1;stroke-miterlimit:10}.st1{fill:none}.st1,.st2{stroke:#a5dbd1;stroke-width:.25;stroke-miterlimit:10}.st2,.st3{fill:#a5dbd1}.st4{fill:#e2d279}</style><g id="Layer_1"><path class="st0" d="M244.24 443.22c1.63 1.62 2.96 3.41 3.98 5.38 1.02 1.97 1.53 4.22 1.53 6.75 0 2.12-.4 4.11-1.19 5.95-.79 1.85-1.86 3.48-3.21 4.89-1.35 1.42-2.96 2.58-4.82 3.49-1.86.91-3.86 1.47-6.01 1.67h-26.78v-53.08h24.02c2.04.15 3.98.67 5.81 1.55 1.84.88 3.46 2.04 4.86 3.45 1.4 1.42 2.51 3.06 3.33 4.93.81 1.87 1.22 3.89 1.22 6.07.02 3.14-.9 6.12-2.74 8.95zm-25.17-3.64h10.86c1.48 0 2.75-.51 3.83-1.54 1.07-1.03 1.61-2.3 1.61-3.8 0-1.45-.52-2.7-1.57-3.73-1.05-1.03-2.33-1.57-3.86-1.62h-10.86v10.69zm13.54 21.16c1.48 0 2.77-.52 3.86-1.55 1.1-1.04 1.65-2.31 1.65-3.83 0-1.46-.54-2.73-1.61-3.79s-2.37-1.62-3.9-1.67h-13.54v10.84h13.54zM289.23 471.36l-10.86-16.38h-8.42v16.38h-11.48v-53.08h23.03c2.5 0 4.87.48 7.12 1.44 2.24.96 4.21 2.26 5.89 3.91 1.68 1.64 3.02 3.58 4.02 5.8.99 2.22 1.49 4.62 1.49 7.2 0 3.49-.89 6.66-2.68 9.52-1.79 2.86-4.13 5.07-7.04 6.63l12.24 18.58h-13.31zm-8.95-27c1.07 0 2.08-.2 3.02-.61.94-.4 1.76-.96 2.45-1.67.69-.71 1.24-1.53 1.65-2.46.41-.93.61-1.93.61-3s-.2-2.06-.61-3c-.41-.93-.96-1.76-1.65-2.46a7.611 7.611 0 00-2.45-1.67 7.65 7.65 0 00-3.02-.61h-10.33v15.47h10.33zM322.59 471.36h-11.48v-53.08h11.48v53.08zM355.03 418.28c3.67 0 7.13.7 10.37 2.09 3.24 1.39 6.07 3.27 8.49 5.65 2.42 2.38 4.35 5.18 5.78 8.42 1.43 3.24 2.14 6.7 2.14 10.39 0 3.64-.7 7.07-2.1 10.28-1.4 3.21-3.3 6.03-5.7 8.45-2.4 2.43-5.23 4.34-8.49 5.73-3.27 1.39-6.76 2.08-10.48 2.08h-21.88v-53.08h21.87zm-.77 42.08c2.14 0 4.17-.4 6.08-1.21s3.57-1.91 4.97-3.3 2.51-3.03 3.33-4.93c.81-1.9 1.22-3.93 1.22-6.1 0-2.12-.41-4.13-1.22-6.03-.82-1.9-1.93-3.55-3.33-4.97a15.42 15.42 0 00-4.97-3.34c-1.91-.81-3.94-1.21-6.08-1.21h-9.64v31.09h9.64zM445.24 442.69c.05.35.08.71.08 1.06v1.06c0 3.84-.7 7.46-2.1 10.84-1.4 3.39-3.34 6.36-5.81 8.91-2.47 2.55-5.39 4.58-8.76 6.07-3.37 1.49-7.01 2.24-10.94 2.24-3.88 0-7.54-.73-10.98-2.2-3.44-1.47-6.45-3.46-9.03-5.99-2.58-2.53-4.62-5.5-6.12-8.91-1.51-3.41-2.26-7.06-2.26-10.96 0-3.84.74-7.46 2.22-10.84 1.48-3.39 3.49-6.36 6.04-8.91s5.56-4.57 9.03-6.07c3.47-1.49 7.17-2.24 11.09-2.24 4.54 0 8.61 1.01 12.2 3.03 3.6 2.02 6.72 4.85 9.37 8.49l-9.33 6.29c-.61-.91-1.34-1.79-2.18-2.65-.84-.86-1.79-1.63-2.83-2.31-1.05-.68-2.18-1.23-3.4-1.63s-2.5-.61-3.83-.61c-2.3 0-4.46.48-6.5 1.44a18.03 18.03 0 00-5.36 3.83c-1.53 1.59-2.73 3.45-3.6 5.57-.87 2.12-1.3 4.32-1.3 6.6 0 2.28.43 4.47 1.3 6.6.87 2.12 2.07 3.98 3.6 5.57 1.53 1.59 3.31 2.87 5.36 3.83 2.04.96 4.21 1.44 6.5 1.44 3.26 0 6.15-.9 8.65-2.69s4.39-4.11 5.66-6.94H417.7v-9.93h27.54zM488.69 460.74v10.62H454.8v-53.08h33.44v10.62h-22.11v10.62h16.6v10.62h-16.6v10.62h22.56z"/><path class="st1" d="M396 396h81.72M473.92 426.95c.14.02.19-.17.19-.31.04-6.62-.09-13.27.27-19.88.13-2.48-.39-7.65 3.34-7.69-.04-1.14-.06-2.15-.09-3.29M465.65 403.07c.16-.88.35-1.78.79-2.56.43-.79 1.14-1.46 2.01-1.67 1.43-.34 2.91.7 3.55 2.02 1.39 2.84.61 6.98.56 10.03-.06 3.68-.1 7.36-.14 11.05.01-.56-.92-1.68-1.21-2.17a40.4 40.4 0 00-1.43-2.24c-.72-1.06-1.49-2.08-2.31-3.07-.18-.22-2.02-1.93-2.02-2.09-.03-3.07-.34-6.27.2-9.3zM456.53 402.41c.27-1.26.84-2.41 1.99-3.17 1.07-.71 2.56-.82 3.62-.1 1.38.94 1.63 2.86 1.67 4.53.06 2.41-.02 4.82-.25 7.22.04-.45-2.1-1.91-2.47-2.2-.9-.69-1.84-1.32-2.82-1.88-.19-.11-1.95-.97-1.94-.74-.04-1.16-.06-2.46.2-3.66zM448.99 399.85c.02-.02.04-.03.06-.05.78-.57 1.88-.83 2.83-.74.28.03.57.09.83.21.56.26.97.78 1.26 1.32.78 1.46.87 3.19.82 4.84.02-.87-5.04-2.52-5.83-2.86-.42-.18-.79-.42-1.26-.45.27-.71.67-1.77 1.29-2.27z"/><path class="st2" d="M396 392h82v2h-82z"/><path class="st1" d="M474.02 426.81c.09 0 .19 0 .28.01-.52-.05-1.06 0-1.56.15-.06-.09.45.65.4.54a75.73 75.73 0 00-6.05-10.62c-1.39-2.03-3.23-4.12-5.28-5.52-3.29-2.25-6.77-4.54-10.51-6.07a36.605 36.605 0 00-18.83-2.36c-4.99.7-9.46 1.75-13.91 4.31-7.44 4.29-14.11 10.86-17.51 18.81-.56 1.3-1.04 2.67-1 4.09-.62.42-1.31.73-2.03.91.35-.7.85-1.61.97-2.39 1.16-7.57.49-15.31.67-22.94.03-1.42.06-2.89-.47-4.21-.53-1.32-1.78-2.46-3.2-2.41 0-.53-.01-1.07-.01-1.6v-.8c0-.23-.02-.47.01-.72.06 0 .11.01.17 0"/><path class="st2" d="M470.59 427.03c-.85 0-1.69-.01-2.54-.01-2.63-6.61-6.87-11.87-12.87-15.74-17.72-11.42-41.78-2.99-50.18 15.87-.78.22-1.75.39-2.46.77 3.49-5.59 6.44-10.89 11.69-15.09 11-8.79 25.9-10.63 38.69-4.89 7.97 3.58 14.25 11.65 17.28 19.69"/><path class="st1" d="M408.2 402.87c-.16-.88-.35-1.78-.79-2.56-.44-.79-1.14-1.46-2.02-1.67-1.44-.34-2.92.7-3.57 2.02-1.4 2.84-.61 6.98-.56 10.03.06 3.68.1 7.36.14 11.05-.01-.56.92-1.68 1.21-2.17.46-.76.94-1.51 1.44-2.24.73-1.06 1.5-2.08 2.32-3.07.19-.22 2.03-1.93 2.03-2.09.03-3.06.34-6.27-.2-9.3zM417.36 402.22c-.27-1.26-.84-2.41-1.99-3.17-1.07-.71-2.57-.82-3.64-.1-1.39.94-1.64 2.86-1.68 4.53-.06 2.41.02 4.82.25 7.22-.04-.45 2.11-1.91 2.48-2.2.9-.69 1.85-1.32 2.83-1.88.19-.11 1.96-.97 1.95-.74.04-1.16.06-2.46-.2-3.66zM424.93 399.66c-.02-.02-.04-.03-.06-.05-.78-.57-1.89-.83-2.84-.74a2.6 2.6 0 00-.83.21c-.57.26-.98.78-1.27 1.32-.78 1.46-.87 3.19-.82 4.84-.02-.87 5.06-2.52 5.86-2.86.42-.18.8-.42 1.26-.45-.28-.71-.68-1.78-1.3-2.27z"/><path class="st3" d="M442.2 398.72c-3.44.05-6.89-.09-10.31-.41-.81-.08-1.5.74-1.5 1.5 0 .87.69 1.42 1.5 1.5 3.43.32 6.87.46 10.31.41.81-.01 1.5-.68 1.5-1.5 0-.8-.69-1.51-1.5-1.5z"/><path class="st3" d="M432.05 403.09c4.5 0 4.51-7 0-7-4.5 0-4.51 7 0 7z"/><path class="st3" d="M433 402.07c3.48.16 6.95.47 10.4.93 3.33.44 4.12-5.29.8-5.89-1.82-.33-3.66-.59-5.5-.79-1.62-.17-2.98 1.5-3 3-.02 1.77 1.4 2.83 3 3 1.31.14 2.61.34 3.9.57.27-1.96.53-3.93.8-5.89-3.46-.46-6.92-.77-10.4-.93-3.86-.18-3.85 5.82 0 6z"/><path class="st3" d="M438.39 396.23c-1.67.06-3.35.13-5.02.19-3.86.15-3.87 5.85 0 6l4.79.18c1.62.06 3-1.42 3-3 0-1.73-1.38-2.87-3-3-2.3-.19-4.6-.24-6.91-.16-3.85.13-3.87 6.13 0 6 2.31-.08 4.61-.02 6.91.16v-6l-4.79-.18v6c1.67-.06 3.35-.13 5.02-.19 3.85-.14 3.87-6.14 0-6z"/><path class="st3" d="M433.79 402.75c3.86 0 3.87-6 0-6-3.86 0-3.86 6 0 6z"/><path class="st3" d="M435.01 401.5c-.15.03-.3.06-.45.1l.27.96c.43-.14.87-.28 1.3-.42.25-.08.43-.35.35-.62a.51.51 0 00-.62-.35c-.18.05-.35.09-.53.12-.09.02-.18.03-.27.04-.04.01-.03 0 .03 0-.03 0-.06.01-.08.01-.04 0-.08.01-.13.01-.36.04-.73.04-1.09.02-.26-.02-.51.24-.5.5.01.28.22.48.5.5.78.05 1.58-.04 2.34-.24l-.27-.96c-.43.14-.87.28-1.3.42-.25.08-.43.35-.35.62.09.27.34.41.62.35.15-.03.3-.06.45-.1.26-.06.43-.37.35-.62a.518.518 0 00-.62-.34z"/><path class="st3" d="M435.06 402.55c.64 0 .64-1 0-1s-.64 1 0 1zM399.7 406.33l.15 10.07c.05 3.29.37 6.74-.27 10 .33.04.65.09.98.13.04-4.01.24-8.01.61-12.01h-1l.18 5.5.09 2.67c.02.79.02 1.59-.42 2.28.31.08.62.17.93.25-.48-5.16-.41-10.35.21-15.49.08-.64-.92-.63-1 0-.62 5.14-.69 10.33-.21 15.49.05.49.65.69.93.25.91-1.41.54-3.38.49-4.96-.06-2-.13-4-.19-5.99-.02-.65-.94-.63-1 0-.37 3.99-.58 8-.61 12.01-.01.55.87.7.98.13.64-3.27.35-6.7.31-10.02l-.15-10.32c-.02-.63-1.02-.63-1.01.01z"/><path class="st3" d="M399.8 401.73l.54 13.64c.03.64 1.02.64 1 0l-.3-8.35c-.02-.64-1.01-.65-1 0 .04 1.88.08 3.77.11 5.65.01.64 1.01.64 1 0-.04-1.88-.08-3.77-.11-5.65h-1l.3 8.35h1l-.54-13.64c-.03-.64-1.03-.65-1 0zM401.7 423.81c.24-1.06 1.02-2.01 1.6-2.91.62-.97 1.25-1.93 1.91-2.87 1.32-1.86 2.78-3.61 4.51-5.1l-.71-.71c-3.24 3.19-6.55 6.5-8.46 10.71-.22.48.37 1.05.79.61 1.46-1.55 2.7-3.28 3.69-5.16.3-.57-.56-1.08-.86-.5-.95 1.81-2.13 3.47-3.53 4.96.26.2.52.4.79.61 1.87-4.13 5.11-7.36 8.3-10.5.46-.46-.22-1.12-.71-.71-1.79 1.55-3.3 3.37-4.66 5.3-.68.96-1.33 1.95-1.96 2.95-.61.96-1.38 1.94-1.64 3.07-.16.62.8.88.94.25z"/><path class="st3" d="M405.1 418.14c-.01-.67.38-1.24.75-1.76.39-.55.85-1.05 1.32-1.53.97-.97 2.05-1.82 3.13-2.67.21-.17.17-.53 0-.71-.21-.21-.49-.17-.71 0-1.16.91-2.33 1.83-3.36 2.9-.5.52-.97 1.08-1.38 1.68-.43.62-.78 1.31-.76 2.09.02.65 1.02.65 1.01 0z"/><path class="st3" d="M399.92 424.45c-.43 1.63-.77 3.28-1.01 4.95-.09.62.83.91.96.27.85-3.94 2.62-7.65 5.19-10.76.4-.49-.27-1.19-.71-.71-.14.15-.28.31-.42.46-.43.48.27 1.19.71.71.14-.15.28-.31.42-.46l-.71-.71c-2.68 3.24-4.57 7.08-5.45 11.2l.96.27c.24-1.67.58-3.32 1.01-4.95.18-.62-.78-.89-.95-.27z"/><path class="st3" d="M399.51 424.17l-.21 2.95c-.03.49.71.69.93.25a72.214 72.214 0 016.53-10.62c.8-1.08 1.62-2.45 2.78-3.17.55-.34.04-1.2-.5-.86-1.12.69-1.87 1.86-2.66 2.89-.9 1.19-1.76 2.4-2.59 3.64-1.63 2.45-3.1 4.99-4.42 7.62.31.08.62.17.93.25l.21-2.95c.05-.64-.95-.64-1 0zM399.72 430.12c0-.04 0-.07.01-.11-.01.04-.01.09-.02.13.01-.04.01-.08.02-.12.01-.03.02-.09.04-.12-.01.01-.05.1-.02.04.01-.02.02-.03.03-.05.02-.04.12-.16.02-.04-.28-.16-.56-.32-.84-.49-.02.05-.03.1-.05.15-.01.02-.04.1-.01.03.03-.08-.01.02-.01.03-.04.09-.1.18-.15.27-.1.15-.09.36 0 .5.09.16.25.24.43.25.43.03.81-.28.98-.65.1-.21.14-.41.16-.64.02-.18.02-.37.04-.55-.01.04-.01.09-.02.13l.03-.17c.01-.03.01-.06.03-.08-.01.02-.02.04-.03.07.01-.02.02-.04.03-.05.12-.23.07-.55-.18-.68-.23-.12-.56-.07-.68.18-.12.23-.17.46-.19.71-.02.18-.02.37-.04.55.01-.04.01-.09.02-.13-.01.07-.03.14-.05.21-.01.02-.04.09 0 .01.04-.09 0-.01-.01.01-.02.03-.03.06-.05.09-.01.02-.05.06 0 0 .06-.07.01-.01-.01 0l-.03.03c-.05.06.09-.06.04-.03-.01.01-.02.02-.04.02-.07.05.05-.03.05-.02 0 0-.09.02-.1.03.04-.01.09-.01.13-.02h-.09c.14.25.29.5.43.75.14-.22.25-.46.33-.71.06-.2-.04-.46-.23-.56a.717.717 0 00-.25-.07.47.47 0 00-.35.15c-.23.28-.37.6-.37.97 0 .26.23.51.5.5.28-.04.5-.24.5-.52zM473.91 399.98c-1.61 7.75-1.62 15.69-1.6 23.57 0 .64 1 .64 1 0-.02-7.79-.02-15.65 1.57-23.31.13-.62-.84-.89-.97-.26z"/><path class="st3" d="M464.33 403.4c-.11 2.11-.22 4.22-.34 6.33-.03.55.9.7.98.13.19-1.32.37-2.64.56-3.96.09-.62-.75-.89-.96-.27-.53 1.55-.8 3.16-.81 4.8 0 .65.95.63 1 0 .26-3.23.53-6.46.79-9.68.05-.65-.92-.62-1 0-.33 2.5-.59 5-.76 7.51-.08 1.14-.26 2.37-.15 3.51.09.99.91 1.72 1.49 2.46 2.85 3.65 5.23 7.65 7.11 11.87.26.59 1.12.08.86-.5a57.101 57.101 0 00-7.76-12.69c-.34-.42-.7-.77-.72-1.34-.05-1.17.1-2.39.18-3.56.17-2.43.42-4.86.74-7.27h-1c-.26 3.23-.53 6.46-.79 9.68h1c.01-1.55.27-3.06.77-4.53l-.96-.27c-.19 1.32-.37 2.64-.56 3.96.33.04.65.09.98.13.11-2.11.22-4.22.34-6.33.05-.63-.95-.63-.99.02z"/><path class="st3" d="M471.61 422.95c.63 1.07.98 2.25 1.02 3.49.02.57.81.67.98.13.1-.32.21-.64.31-.97.18-.56-.62-.85-.91-.39-.42.66-.2 1.45.4 1.89.13-.3.26-.61.39-.91-.19-.05-.31-.92-.37-1.09-.14-.45-.29-.9-.46-1.34a28.6 28.6 0 00-1.08-2.48c-.82-1.63-1.82-3.15-2.96-4.56-.4-.5-1.11.21-.71.71 1.23 1.52 2.27 3.19 3.09 4.96.4.86.75 1.75 1.05 2.66.24.72.31 1.85 1.17 2.1.58.17.82-.59.39-.91-.18-.13-.15-.37-.04-.53-.3-.13-.61-.26-.91-.39-.1.32-.21.64-.31.97.33.04.65.09.98.13a8.395 8.395 0 00-1.16-3.99c-.33-.54-1.2-.04-.87.52z"/><path class="st3" d="M472.97 426.1c.64 0 .64-1 0-1-.65 0-.65 1 0 1zM444.03 398.15c2.3-.03 4.59-.07 6.89-.1 2.13-.03 4.27-.12 6.39.04 1.04.08 2.08.22 3.09.47.95.24 2.05.54 2.81 1.2.8.71.79 1.81.79 2.79 0 1.12-.07 2.24-.2 3.35h1c.07-1.69.12-3.39-.25-5.05-.28-1.25-.84-2.96-2.27-3.27-.47-.1-.86.47-.49.84a6.17 6.17 0 011.79 3.47l.96-.27a6.541 6.541 0 00-2.21-3.84c-.49-.41-1.2.29-.71.71 1.05.89 1.71 2.05 1.96 3.4.11.63 1.07.36.96-.27a7.16 7.16 0 00-2.05-3.91c-.16.28-.32.56-.49.84 1.21.26 1.54 2.19 1.7 3.21.21 1.37.15 2.77.09 4.15-.03.66.93.62 1 0 .15-1.27.23-2.55.2-3.83-.02-.91-.12-1.85-.69-2.6-1.22-1.6-3.79-2.02-5.64-2.26-2.32-.31-4.67-.22-7-.19-2.54.04-5.09.07-7.63.11-.65.02-.65 1.02 0 1.01zM475.5 399.11c.28-.01.57-.04.85-.01a5.46 5.46 0 00-.4-.05c.02.01.03.01.05.02l-.36-.15c.01.01.03.02.04.03l-.54-.54c.01.01.02.03.02.04l-.15-.36c0 .02 0 .03.01.05v-.8c0 .02-.01.03-.01.05l.15-.36c-.01.03-.03.06-.05.09.08-.1.16-.2.23-.3-.01.01-.03.02-.04.03.1-.08.2-.16.3-.23-.01.01-.03.02-.04.02l.36-.15c-.02.01-.04.01-.07.02.13-.02.27-.04.4-.05h-.14c.13.02.27.04.4.05-.51-.08-.87-.11-1.38-.01-.33.06-.65.21-.93.39-.28.17-.55.39-.78.63-.24.26-.43.55-.64.83.08-.1.16-.2.23-.3-.05.06-.1.11-.16.16.1-.08.2-.16.3-.23-.03.02-.06.04-.09.05l.36-.15c-.03.01-.06.02-.1.02.13-.02.27-.04.4-.05h-.05c.13.02.27.04.4.05-.02 0-.03-.01-.05-.01l.36.15c-.03-.01-.06-.03-.09-.05.1.08.2.16.3.23-.39-.3-.74-.65-1.11-.98-.3-.27-.65-.44-1.06-.44-.37 0-.81.16-1.06.44-.26.29-.46.66-.44 1.06.02.38.14.8.44 1.06.22.19.44.39.66.58.26.23.53.52.85.68.74.37 1.49.22 2.11-.3.26-.22.43-.54.64-.81-.08.1-.16.2-.23.3.14-.18.3-.34.48-.48-.1.08-.2.16-.3.23.13-.1.27-.18.42-.24l-.36.15c.13-.05.26-.09.4-.11-.13.02-.27.04-.4.05.12-.01.24-.01.36 0a5.46 5.46 0 00-.4-.05c.22.04.45.09.68.08.42-.02.87-.17 1.17-.48.48-.49.68-1.2.4-1.85-.28-.67-.9-1-1.6-1.02-.24-.01-.49.01-.73.01-.78.01-1.54.68-1.5 1.5.03.81.65 1.53 1.49 1.51z"/><path class="st3" d="M473.44 396.82c-.29-.01-.57-.03-.86-.07.13.02.27.04.4.05-.7-.1-1.37-.28-2.02-.56l.36.15c-.02-.01-.03-.01-.05-.02-.17-.11-.36-.17-.56-.18-.2-.04-.4-.04-.6.03-.35.1-.73.36-.9.69-.18.35-.28.77-.15 1.16.11.34.34.75.69.9.59.25 1.17.48 1.79.61.62.14 1.26.22 1.89.24.38.01.8-.18 1.06-.44s.46-.69.44-1.06c-.03-.83-.65-1.47-1.49-1.5z"/><path class="st3" d="M470.43 397.19a8.96 8.96 0 00-2.53.2c-.41.09-.5.72-.12.91.65.32 1.31.5 2.03.54.65.04.63-.93 0-1-2.01-.21-4.02.9-4.93 2.71-.25.49.37 1.03.79.61l1.65-1.65c.39-.39-.13-1.12-.61-.79-1.81 1.26-2.04 3.69-2.28 5.7-.32 2.64-.31 5.31.01 7.95.08.63.96.66 1 0 .11-1.9-.02-3.79-.37-5.66-.12-.63-1.08-.36-.96.27.34 1.78.44 3.58.34 5.39h1c-.28-2.32-.32-4.67-.11-7 .1-1.11.24-2.23.5-3.31.22-.94.57-1.9 1.39-2.47-.2-.26-.4-.52-.61-.79l-1.65 1.65c.26.2.52.4.79.61.76-1.53 2.37-2.39 4.06-2.22v-1c-.54-.03-1.04-.16-1.53-.41l-.12.91c.75-.17 1.5-.21 2.26-.16.64.05.64-.95 0-.99z"/><path class="st3" d="M464.59 413.21c.47.16.85.5 1.18.85.38.4.73.84 1.05 1.29.67.94 1.24 1.94 1.8 2.95.26-.2.52-.4.79-.61-.49-.6-.9-1.28-1.19-2-.1-.25-.33-.43-.62-.35-.24.07-.45.36-.35.62.35.89.83 1.7 1.44 2.44.37.45 1.05-.12.79-.61-.6-1.09-1.22-2.18-1.97-3.19-.7-.95-1.5-1.97-2.66-2.37-.6-.19-.86.77-.26.98z"/><path class="st3" d="M466.86 415.29c1.1 1.06 1.65 2.6 2.42 3.9.82 1.4 1.74 2.73 2.74 4 .26.33.72.09.84-.22.29-.75-.21-1.35-.66-1.9-.49-.6-.76-1.35-1.13-2.03-.73-1.33-1.72-2.52-2.88-3.5-.49-.41-1.2.29-.71.71 1.04.87 1.92 1.89 2.6 3.06.33.58.58 1.2.92 1.77.17.28.36.54.57.78.21.24.45.49.32.83.28-.07.56-.15.84-.22-1-1.28-1.91-2.64-2.73-4.04-.75-1.31-1.33-2.79-2.43-3.86-.47-.44-1.17.27-.71.72zM426.64 397.85l.3 4.25c.31-.08.62-.17.93-.25a9.773 9.773 0 01-1.33-4.21c-.12.16-.24.32-.37.48.07-.01.18.09.23.13.13.09.25.19.37.28.26.19.54.37.82.54.57.33 1.17.6 1.8.8.26.09.55-.1.62-.35a.52.52 0 00-.35-.62 8.07 8.07 0 01-1.83-.87c-.6-.38-1.15-1.03-1.92-.88-.2.04-.38.28-.37.48.13 1.66.62 3.27 1.47 4.71.24.41.97.26.93-.25l-.3-4.25c-.02-.27-.22-.5-.5-.5-.26.01-.52.24-.5.51zM446.31 402.28c.77-.79 1.57-1.56 2.39-2.31l-2.12-2.12c-.11.13-.31.43-.48.47.04-.01.28-.2.1-.08-.05.03-.09.06-.14.09-.11.07-.22.13-.33.19-.05.03-.1.05-.15.07-.17.08.3-.11.12-.05-.11.03-.21.08-.32.11-.24.07-.48.12-.72.15.13-.02.27-.04.4-.05-.65.08-1.3.06-1.94-.03.13.02.27.04.4.05-.27-.04-.54-.09-.81-.14-.77-.15-1.66.22-1.85 1.05-.17.74.22 1.68 1.05 1.85 1.3.26 2.6.38 3.91.11 1.08-.23 2.18-.81 2.89-1.67.26-.31.44-.64.44-1.06 0-.37-.16-.81-.44-1.06-.62-.57-1.5-.56-2.12 0-.82.74-1.62 1.51-2.39 2.31-.55.56-.6 1.57 0 2.12.58.54 1.53.6 2.11 0zM399.17 399.11l3.7.27c.37.03.81-.19 1.06-.44.26-.26.46-.69.44-1.06-.02-.39-.14-.79-.44-1.06-.31-.28-.65-.41-1.06-.44l-3.7-.27c-.37-.03-.81.19-1.06.44-.26.26-.46.69-.44 1.06.02.39.14.79.44 1.06.31.28.65.41 1.06.44zM408.32 403.81c.31 3.06.29 6.13-.06 9.18-.07.61.79.6.98.13.88-2.09.53-4.65.51-6.87h-1c.09 1.81.23 3.62.42 5.43.07.63.99.66 1 0 .02-1.86-.06-3.72-.45-5.54-.12-.54-1.05-.43-.98.13a3744.415 3744.415 0 01.66 5.38c.03.24.08.49.09.73.01.39.02.47-.32.64-1.54.74-2.11 2.45-3.45 3.42.2.26.4.52.61.79 3.51-3.52 7.26-6.79 11.24-9.78-.2-.26-.4-.52-.61-.79-2.37 2.13-5.96 2.32-7.85 5.08-.23.34.16.89.56.73 3.3-1.3 5.4-4.41 8.63-5.83-.17-.29-.34-.58-.5-.86-2.69 1.3-5.38 2.64-7.61 4.66-.48.44.22 1.12.71.71 2.29-1.93 4.66-3.91 7.58-4.78.61-.18.35-1.15-.27-.96-3.09.93-5.6 2.99-8.02 5.04l.71.71c2.16-1.96 4.8-3.24 7.41-4.5.59-.28.07-1.12-.5-.86-3.14 1.38-5.19 4.47-8.39 5.73.19.24.38.49.56.73 1.78-2.59 5.43-2.85 7.69-4.88.41-.37-.15-1.13-.61-.79-4.04 3.04-7.87 6.35-11.44 9.93-.39.39.13 1.13.61.79.77-.55 1.3-1.29 1.88-2.02.28-.35.56-.7.91-.99.35-.29.82-.4 1.17-.69.38-.33.37-.75.31-1.22l-.24-1.96-.51-4.16c-.33.04-.65.09-.98.13.37 1.74.44 3.51.42 5.28h1c-.19-1.81-.33-3.62-.42-5.43-.03-.64-1.01-.65-1 0 .01 1.15.03 2.3.03 3.45 0 1.09-.08 2.14-.5 3.16.33.04.65.09.98.13.35-3.05.37-6.12.06-9.18-.09-.63-1.09-.64-1.02 0z"/><path class="st3" d="M418.96 405.9c-.37.09-.7.28-1.02.48-.35.22-.69.45-1.04.67-.68.43-1.34.91-2.05 1.29-.24.13-.31.46-.18.68.14.24.45.31.68.18.69-.37 1.33-.82 1.98-1.24.33-.21.66-.42.98-.63.29-.18.57-.38.9-.46.64-.16.38-1.13-.25-.97zM403.06 398.9c1.37-.2 3.01-.16 4.07.86 1.18 1.14 1.34 2.9 1.48 4.44h1c-.17-1.69-.47-3.37-.92-5-.17-.62-1.14-.36-.96.27.43 1.55.73 3.14.89 4.74.03.27.21.5.5.5.25 0 .52-.23.5-.5-.17-1.84-.4-3.89-1.84-5.21-1.35-1.24-3.25-1.31-4.97-1.05-.27.04-.41.38-.35.62.06.26.33.37.6.33z"/><path class="st3" d="M407.16 399.3c.06.1.11.2.16.31l-.15-.36c.08.2.14.4.17.62a5.46 5.46 0 01-.05-.4c0 .02.01.04.01.06.98-.13 1.96-.27 2.95-.4-.05-.14-.09-.28-.11-.43.02.13.04.27.05.4-.02-.13-.02-.26-.01-.38-.02.13-.04.27-.05.4a.75.75 0 01.04-.16l-.15.36c.01-.03.03-.06.05-.09-.08.1-.16.2-.23.3.02-.02.03-.04.06-.06-.1.08-.2.16-.3.23.01-.01.03-.02.04-.02l-.36.15c.01 0 .02-.01.04-.01-.13.02-.27.04-.4.05h.05c.21.01.4-.04.58-.13.19-.06.35-.16.48-.31.15-.14.25-.3.31-.48.09-.18.14-.37.13-.58a5.46 5.46 0 01-.05-.4c-.07-.25-.2-.47-.39-.66-.1-.08-.2-.16-.3-.23-.23-.14-.49-.2-.76-.2h-.05c-.13.02-.27.04-.4.05-.01 0-.02.01-.04.01l-.36.15s-.01 0-.01.01c-.01.01-.02.01-.03.02-.1.08-.2.16-.3.23-.01 0-.01.01-.02.01-.06.06-.11.13-.16.2-.05.06-.11.13-.15.21-.07.13-.12.27-.18.41-.06.16-.07.39-.09.54-.03.26.03.53.06.78.02.15.06.29.11.43.05.2.14.37.27.51.11.16.25.29.42.39l.36.15c.2.06.4.07.6.03.14 0 .26-.03.38-.1.19-.06.35-.16.48-.31.08-.1.16-.2.23-.3.14-.23.2-.49.2-.76-.03-.31-.07-.62-.17-.91-.07-.2-.15-.4-.24-.59-.04-.08-.08-.17-.13-.25a1.05 1.05 0 00-.39-.42c-.14-.13-.31-.22-.51-.27-.2-.06-.4-.07-.6-.03-.2.01-.39.07-.56.18-.1.08-.2.16-.3.23-.19.19-.31.41-.39.66-.02.13-.04.27-.05.4.01.27.08.52.21.76z"/><path class="st3" d="M402.65 399.34c1.37-.27 2.78-.48 4 .36 1.1.75 1.67 2.04 1.98 3.29.16.62 1.12.36.96-.27-.38-1.52-1.12-2.98-2.44-3.88-1.44-.99-3.15-.77-4.77-.46-.63.12-.36 1.08.27.96z"/><path class="st3" d="M407.83 401.31c.32 1.89.64 3.77.97 5.66.05.27.37.42.62.35.28-.08.39-.35.35-.62-.32-1.89-.64-3.77-.97-5.66-.05-.27-.37-.42-.62-.35-.29.08-.4.35-.35.62z"/><path class="st3" d="M410.07 407.3c.03-1.39.1-2.78.23-4.16.12-1.29.21-2.65.75-3.84.26-.58-.6-1.09-.86-.5-.57 1.27-.73 2.64-.86 4.02-.14 1.49-.23 2.99-.26 4.49-.02.64.98.64 1-.01z"/><path class="st3" d="M409.98 398.77c-.42.73-.77 1.51-1.05 2.31.33.04.65.09.98.13-.02-.91-.18-1.82-.48-2.69-.08-.23-.29-.4-.55-.36-.24.04-.44.24-.43.49.05 1.17.15 2.33.31 3.49.04.27.38.41.62.35.29-.08.39-.35.35-.62-.14-1.06-.23-2.15-.27-3.23-.33.04-.65.09-.98.13.27.8.42 1.59.44 2.42.01.25.19.46.43.49.26.03.46-.12.55-.36.25-.72.56-1.4.95-2.07.13-.23.06-.55-.18-.68-.24-.11-.56-.03-.69.2zM396.12 396.34c-.14.72-.23 1.45-.25 2.18-.01.28.24.49.5.5 1.75.04 3.16 1.43 3.23 3.18.33-.04.65-.09.98-.13-.24-.83-.5-1.7-1.02-2.4a3.29 3.29 0 00-.94-.88c-.43-.26-.92-.38-1.35-.62-.17.29-.34.58-.5.86 1.67.79 2.78 2.5 2.78 4.36 0 .64 1 .64 1 0 .01-2.18-1.29-4.29-3.27-5.22-.57-.27-1.08.55-.5.86.71.39 1.49.53 1.99 1.22.44.62.66 1.36.86 2.08.15.53 1 .44.98-.13a4.336 4.336 0 00-4.23-4.18l.5.5c.02-.65.09-1.28.21-1.92.11-.62-.85-.89-.97-.26z"/><path class="st3" d="M399.71 403.13a17.62 17.62 0 00-.11 3.48c.03.53.88.72.98.13.23-1.37.47-2.74.7-4.1.2-1.15.28-2.45.99-3.42.38-.52-.49-1.02-.86-.5-.74 1.01-.86 2.31-1.06 3.51-.24 1.42-.48 2.83-.73 4.25.33.04.65.09.98.13-.07-1.16-.04-2.33.11-3.48.03-.27-.25-.5-.5-.5-.3-.01-.47.23-.5.5z"/><path class="st3" d="M402.57 398.19c-.66.73-1.29 1.49-1.89 2.26l.91.12c-.17-.68-.29-1.37-.36-2.07-.02-.27-.21-.5-.5-.5-.26 0-.52.23-.5.5.05.75.01 1.5-.13 2.23l.91-.12c-.34-.77-.57-1.58-.8-2.39l-.96.27.63 2.19c.28-.16.56-.32.84-.49a8.04 8.04 0 01-1.59-2.36c-.29.17-.58.34-.86.5.24.41.45.83.6 1.28.09.26.34.42.62.35.25-.07.44-.36.35-.62-.18-.53-.42-1.04-.7-1.52a.505.505 0 00-.68-.18c-.25.15-.29.44-.18.68.42.95 1.02 1.82 1.75 2.57.35.36.97-.01.84-.49l-.63-2.19c-.18-.62-1.14-.36-.96.27.25.89.52 1.78.9 2.63.17.39.84.29.91-.12.16-.82.22-1.66.17-2.5h-1c.07.79.2 1.57.39 2.34.05.19.23.34.42.36.22.03.37-.07.5-.24.55-.71 1.13-1.4 1.73-2.06.18-.2.2-.51 0-.71-.2-.18-.54-.2-.73.01z"/><path class="st3" d="M397.23 398.81l.24-1.53c.04-.31.02-.6-.2-.84-.08-.09-.18-.16-.28-.22-.04-.03-.08-.05-.12-.08.07.05-.02-.03-.04-.04-.16.28-.32.56-.49.84 1.2.23 2.43.35 3.65.33.25 0 .46-.19.49-.43.03-.26-.12-.46-.36-.55-.57-.21-1.18-.33-1.78-.34-.56-.01-1.4-.01-1.52.69-.09.55 0 1.22.32 1.68.31.45.93.9 1.52.73.44-.12.57-.64.34-1.01-.21-.33-.62-.49-1-.5-.24 0-.4.16-.48.37-.15.37.14.75.45.92.33.17.74.22 1.05-.02.33-.25.39-.7.2-1.06-.16-.32-.5-.49-.84-.56-.26-.05-.54.08-.62.35-.07.25.08.56.35.62.05.01.11.02.16.04.07.02.02-.01.08.03l.02.02-.02-.02c.01-.06-.03-.08.02-.15.02-.06.07-.09.14-.11h.02c-.04 0-.03 0 .01.01-.02 0-.05-.01-.07-.02-.03-.01-.03-.01 0 0a.21.21 0 01-.06-.04c-.03-.02-.03-.02 0 0 .06.06.08.15.06.25-.16.12-.32.24-.48.37.07 0 .08 0 .14.03.04.02.04.05.03.02-.04-.12-.2-.06-.02-.31l.18-.18c.12-.02.15-.03.09-.03h-.01c.04.02-.07-.02-.08-.02-.13-.03.02.02-.04-.02-.04-.02-.07-.04-.11-.06-.01-.01-.03-.02-.04-.03.03.02.03.02 0 0l-.09-.09c-.01-.01-.02-.03-.03-.04.02.03.02.03 0 0-.02-.04-.05-.07-.07-.11-.05-.09-.05-.11-.08-.2-.01-.05-.03-.09-.04-.14 0-.01-.02-.11-.01-.07-.01-.1-.01-.2-.01-.29 0-.05.01-.1.01-.15-.01-.05 0 0-.02.04-.01.01-.11.13-.13.1 0 0 .17-.04.04-.02.11-.02.22-.02.32-.03a4.341 4.341 0 011.84.3c.04-.33.09-.65.13-.98-1.14.01-2.27-.08-3.39-.3-.5-.1-.82.45-.49.84.07.08.15.14.24.2.03.02.05.03.08.05.01.01.11.06.07.04-.02-.02-.02-.02 0 0 .03.02.02.02-.01-.02 0-.01-.01-.04-.02-.05.02.01 0 .07-.01.07l-.03.17c-.07.42-.13.85-.2 1.27-.04.27.07.54.35.62.27.08.61-.07.65-.34zM408.4 398.99c.55.14 1.1.25 1.67.32.2.06.4.07.6.03.2-.01.39-.07.56-.18.17-.09.32-.22.42-.39.13-.14.22-.31.27-.51.02-.13.04-.27.05-.4 0-.27-.07-.52-.2-.76-.08-.1-.16-.2-.23-.3-.19-.19-.41-.31-.66-.39-.11-.02-.21-.05-.32-.07a4.51 4.51 0 00-.53-.07c-.16-.01-.41.03-.53.06-.15.03-.33.11-.45.18-.01.01-.03.02-.04.03-.1.07-.24.17-.33.26-.24.22-.38.5-.49.8 0 .01-.01.03-.01.04v.03c-.02.13-.04.27-.05.4-.01.16.02.33.06.48.08.28.22.5.41.71.01.01.02.03.04.04.1.08.2.16.3.23.01.01.02.02.04.02l.36.15c.01 0 .02.01.03.01a1.679 1.679 0 00.93-.01c.12-.04.27-.1.39-.16l.06-.03c.06-.04.11-.09.17-.13.06-.04.11-.09.17-.13l.05-.05c.15-.14.25-.3.31-.48.09-.18.14-.37.13-.58.01-.21-.04-.4-.13-.58-.06-.19-.16-.35-.31-.48-.29-.26-.66-.46-1.06-.44-.13.02-.27.04-.4.05-.25.07-.47.2-.66.39l-.06.06c.1-.08.2-.16.3-.23-.03.02-.05.03-.08.05l.36-.15c-.03.01-.06.02-.09.02.13-.02.27-.04.4-.05h-.06c.13.02.27.04.4.05-.01 0-.03-.01-.04-.01l.36.15c-.01-.01-.03-.01-.04-.02.1.08.2.16.3.23-.01-.01-.03-.02-.04-.04.08.1.16.2.23.3-.01-.01-.01-.02-.02-.03l.15.36c-.01-.02-.01-.03-.01-.05.02.13.04.27.05.4v-.05c-.02.13-.04.27-.05.4 0-.03.01-.06.02-.09l-.15.36c.01-.02.02-.05.04-.07-.08.1-.16.2-.23.3.02-.03.04-.05.07-.07-.1.08-.2.16-.3.23.02-.02.04-.03.07-.04l-.36.15c.03-.01.05-.02.08-.02-.13.02-.27.04-.4.05.06-.01.11-.01.17 0a5.46 5.46 0 00-.4-.05c.14.02.27.06.41.09.27-.96.53-1.93.8-2.89-.56-.08-1.12-.18-1.67-.32-.2-.06-.4-.07-.6-.03-.2.01-.39.07-.56.18-.17.09-.32.22-.42.39-.13.14-.22.31-.27.51-.02.13-.04.27-.05.4 0 .27.07.52.2.76.18.32.49.59.87.68z"/><path class="st3" d="M410.06 399.66c1.93 0 1.93-3 0-3s-1.94 3 0 3z"/><path class="st3" d="M410.06 399.87c1.93 0 1.93-3 0-3s-1.94 3 0 3z"/><path class="st3" d="M399.49 397.04c3.83.06 7.67.13 11.5.19v-1h-6.36c-.65 0-1.36.07-1.95-.24-.08.31-.17.62-.25.93 3.84.03 7.68.17 11.51.43-.04-.33-.09-.65-.13-.98-3.58.55-7.2.75-10.82.63-.6-.02-.63.79-.13.98 1.66.63 3.42.92 5.19.87.54-.02.7-.86.13-.98-.8-.17-1.57-.41-2.32-.72-.59-.25-.85.72-.27.96.75.31 1.52.55 2.32.72.04-.33.09-.65.13-.98-1.69.05-3.34-.24-4.92-.84-.04.33-.09.65-.13.98 3.71.13 7.42-.1 11.09-.66.59-.09.4-.95-.13-.98-3.83-.26-7.67-.4-11.51-.43-.48 0-.7.7-.25.93 1.19.62 2.75.38 4.05.38h4.77c.64 0 .64-.99 0-1-3.83-.06-7.67-.13-11.5-.19-.67-.01-.67.99-.02 1zM429.47 399.09c-.13.29-.26.59-.39.88-.04.1-.09.2-.13.29.06.01.13.01.19.02-.03-.18-.12-.36-.17-.53-.22-.67-.43-1.34-.65-2.01-.17-.52-.99-.45-.98.13l.03 3.82c.33-.04.65-.09.98-.13-.4-1.07-.73-2.16-1-3.26-.13-.54-1.02-.44-.98.13.07 1.11.24 2.37 1.31 2.97.5.28 1.03.18 1.56.29.62.13 1.05.57 1.3 1.13.14-.25.29-.5.43-.75-2.21-.08-4.26.76-6.35 1.35-1.78.5-3.92.44-5.36 1.75-.48.43.23 1.14.71.71.66-.6 1.52-.8 2.37-.95.93-.17 1.83-.33 2.74-.6 1.94-.56 3.84-1.34 5.89-1.26.42.02.57-.43.43-.75-.38-.87-1.19-1.5-2.13-1.63-.53-.07-1.05.02-1.42-.43-.41-.5-.44-1.2-.48-1.82-.33.04-.65.09-.98.13.27 1.11.61 2.19 1 3.26.19.5.99.46.98-.13l-.03-3.82c-.33.04-.65.09-.98.13.19.6.39 1.2.58 1.8.14.44.24 1.04.62 1.36.98.81 1.52-.97 1.79-1.57.24-.59-.62-1.1-.88-.51z"/><path class="st3" d="M417.86 399.8c.97.13 1.95-.12 2.88-.38.86-.24 1.37-.41 2.21-.33-.26-.03.3.07.36.08.2.05.39.12.59.19.43.15-.2-.11.22.09.19.09.37.19.56.3.77.45 1.18.8 1.85 1.41.6.55 1.53.59 2.12 0 .56-.56.6-1.57 0-2.12-1.4-1.29-3.07-2.53-4.99-2.86-1.07-.18-2.09-.09-3.13.18-.47.12-.93.27-1.4.38-.11.02-.22.05-.33.07.19-.03-.12.01-.18.02-.25.01-.5 0-.75-.03-.78-.1-1.53.76-1.5 1.5.03.9.65 1.39 1.49 1.5z"/><path class="st3" d="M428.48 402.59h1.82c.38 0 .79-.17 1.06-.44.15-.14.25-.3.31-.48.09-.18.14-.37.13-.58-.02-.39-.14-.79-.44-1.06-.29-.27-.65-.44-1.06-.44h-1.82c-.38 0-.79.17-1.06.44-.15.14-.25.3-.31.48-.09.18-.14.37-.13.58.02.39.14.79.44 1.06.29.27.65.44 1.06.44z"/><path class="st3" d="M419.67 406.63c3.9-1.79 8.03-3.04 12.26-3.74.63-.11.36-1.07-.27-.96-4.32.72-8.52 2.02-12.5 3.84-.58.27-.08 1.13.51.86z"/><path class="st3" d="M424.22 399.25c1.17.92 2.06 2.13 2.53 3.54l.62-.62c-1.53-.28-2.96.19-4.34.81-1.48.66-2.93 1.38-4.4 2.07-.58.28-.07 1.12.5.86 2.95-1.33 5.91-2.66 8.86-3.98.59-.26.08-1.12-.5-.86a2378.8 2378.8 0 00-8.86 3.98c.17.29.34.58.5.86 1.32-.62 2.63-1.25 3.95-1.87 1.24-.58 2.62-1.17 4.02-.91.35.06.75-.22.62-.62a8.507 8.507 0 00-2.79-3.99c-.5-.37-1.21.34-.71.73z"/><path class="st3" d="M420.29 398.3c-2.14 1.83-2.59 4.78-2.34 7.45h1c-.26-2.22.2-4.46 1.35-6.38-.29-.17-.58-.34-.86-.5-.92 2.16-1.37 4.48-1.29 6.83.02.64 1.02.64 1 0-.07-2.16.31-4.33 1.16-6.33.24-.57-.52-1.08-.86-.5a11 11 0 00-1.48 6.89c.03.27.21.5.5.5.25 0 .52-.23.5-.5-.22-2.42.1-5.07 2.05-6.74.47-.43-.24-1.14-.73-.72z"/><path class="st3" d="M410.72 399.06c.81.02 1.52-.45 2.31-.55.75-.1 1.55.01 2.25.32 1.33.59 2.28 1.91 2.43 3.35.06.53.83.72.98.13.37-1.4.65-2.81.85-4.24.07-.51-.64-.94-.91-.39a6.895 6.895 0 00-.71 3.79c.31-.08.62-.17.93-.25-.27-.48-.27-1.04-.45-1.55-.17-.49-.45-.92-.92-1.16-.57-.29-1.08.57-.5.86.4.21.51.64.6 1.05.1.46.19.89.42 1.3.23.41.98.25.93-.25-.11-1.14.07-2.26.58-3.28-.3-.13-.61-.26-.91-.39-.2 1.43-.48 2.84-.85 4.24.33.04.65.09.98.13-.18-1.7-1.15-3.29-2.69-4.1-.77-.41-1.65-.62-2.52-.61-.45.01-.9.07-1.33.19-.48.14-.94.4-1.45.39-.67.01-.67 1.01-.02 1.02z"/><path class="st3" d="M414.69 398.54c1.16.6 1.95 1.7 2.37 2.92.26.74.41 1.51.5 2.29.04.39.07.78.1 1.17.01.19.03.39.03.59v.14c-.03.09.01.07.1-.05-.61.2-.35 1.17.27.96.87-.28.62-1.39.57-2.09-.08-.99-.2-1.99-.49-2.94-.48-1.59-1.44-3.08-2.95-3.86-.56-.29-1.07.57-.5.87zM454.75 399.67l.48 6.45h1c-.17-2.02.15-4.08 1.02-5.93.4-.85.83-1.81 1.79-2.1.83-.25 1.92-.56 2.72-.08l.12-.91c-1.56.39-3.28.62-4.54 1.7-1.08.92-1.71 2.28-2.02 3.64.33.04.65.09.98.13.02-1.52.06-3.05.66-4.47-.33-.04-.65-.09-.98-.13.08.79.1 1.59.08 2.39-.02.59.8.65.98.13.15-.42.42-.76.8-.99l-.68-.68a.96.96 0 01-.3.27c-.55.33-.05 1.2.5.86.28-.17.48-.37.66-.63.29-.42-.27-.94-.68-.68-.61.38-1.02.92-1.26 1.59.33.04.65.09.98.13.02-.8 0-1.59-.08-2.39-.06-.58-.76-.65-.98-.13-.63 1.5-.67 3.14-.69 4.74-.01.56.85.69.98.13.28-1.2.8-2.39 1.76-3.2 1.1-.93 2.75-1.1 4.1-1.44.42-.11.48-.7.12-.91-.97-.58-2.11-.37-3.15-.11-.54.13-1.05.32-1.47.7-.43.39-.72.92-.99 1.42a12.578 12.578 0 00-1.42 6.96c.05.63 1.05.64 1 0l-.48-6.45c-.06-.65-1.06-.65-1.01-.01z"/><path class="st3" d="M445.53 402.87c.85-.1 1.71.48 2.47.82.78.35 1.57.71 2.35 1.06 1.6.72 3.2 1.44 4.81 2.17.34.15.74-.02.75-.43.02-1.01-.95-1.47-1.72-1.86-1.05-.53-2.13-1.01-3.23-1.43-2.22-.86-4.52-1.48-6.86-1.87-.63-.11-.9.86-.27.96 2 .34 3.98.84 5.9 1.51.97.34 1.92.72 2.85 1.15.44.2.87.41 1.3.63.35.18 1.05.43 1.05.91.25-.14.5-.29.75-.43-1.74-.78-3.48-1.57-5.22-2.35-.85-.38-1.7-.77-2.56-1.15-.75-.34-1.51-.78-2.36-.68-.64.07-.65 1.07-.01.99z"/><path class="st3" d="M443.75 403.08c3.72.96 7.36 2.22 10.87 3.79.58.26 1.09-.6.5-.86-3.59-1.6-7.3-2.91-11.11-3.89-.62-.16-.88.8-.26.96z"/><path class="st3" d="M454.79 406.85a45.54 45.54 0 019.95 6.91c.47.43 1.18-.27.71-.71a46.631 46.631 0 00-10.15-7.07c-.58-.29-1.09.58-.51.87z"/><path class="st3" d="M455.68 406.66c2.64 1.62 5.13 3.48 7.43 5.56.48.43 1.19-.28.71-.71a52.304 52.304 0 00-7.63-5.71c-.56-.34-1.06.52-.51.86z"/><path class="st3" d="M456.4 407.59c1.9 2.08 4.79 2.73 6.86 4.58.4.36 1.13-.12.79-.61a7.16 7.16 0 00-3.15-2.5c-.25-.1-.55.11-.62.35-.08.29.1.51.35.62 1.02.42 1.91 1.15 2.55 2.04.26-.2.52-.4.79-.61-2.07-1.85-4.98-2.51-6.86-4.58-.44-.47-1.14.24-.71.71z"/><path class="st3" d="M456.28 407.03c2.65 1.27 4.63 3.52 7.12 5.04.49.3.99-.38.61-.79-1.95-2.04-4.38-3.51-6.78-4.94-.55-.33-1.06.53-.5.86 2.34 1.39 4.69 2.8 6.58 4.79.2-.26.4-.52.61-.79-2.49-1.52-4.47-3.77-7.12-5.04-.6-.28-1.1.59-.52.87zM453.38 399.44c.89.52 1.2 1.76 1.36 2.7.19 1.11.15 2.25.13 3.36h1c0-2.62-.51-5.23-1.53-7.65l-.48.63c.71-.01 1.41.01 2.11.07v-1l-.76.06c-.64.05-.64 1.05 0 1l.76-.06c.64-.05.64-.95 0-1-.7-.05-1.41-.08-2.11-.07-.29 0-.61.32-.48.63.99 2.34 1.5 4.85 1.49 7.39 0 .64.98.64 1 0 .03-1.3.05-2.61-.21-3.89-.24-1.14-.72-2.42-1.77-3.05-.56-.31-1.07.56-.51.88z"/><path class="st3" d="M455.51 400.9c-.29-.57-.63-1.12-1.01-1.64-.3-.42-1.15-.18-.91.39.19.45.38.91.57 1.36.3-.13.61-.26.91-.39-.6-.8-1.01-1.72-1.89-2.26-.78-.48-1.73-.62-2.62-.51-.97.13-1.95.54-2.55 1.35-.3.41-.49.87-.7 1.33-.26.58-.52 1.15-.78 1.73-.26.58.6 1.09.86.5.39-.87.74-1.77 1.2-2.61.41-.76 1.13-1.16 1.98-1.3.69-.11 1.44-.02 2.05.34.75.44 1.08 1.27 1.58 1.93.15.2.38.31.62.2.21-.09.39-.36.29-.59-.19-.45-.38-.91-.57-1.36-.3.13-.61.26-.91.39.38.52.71 1.07 1.01 1.64.3.58 1.16.08.87-.5z"/><path class="st3" d="M448.38 400.15a7.174 7.174 0 015.68-.8c.39.11.83-.37.56-.73-1.05-1.44-3.19-1.08-4.74-1.07l-6.78.03c-.55 0-.7.86-.13.98 4.16.91 8.48-.16 12.63.85.04-.33.09-.65.13-.98l-1.01.03c-.53.01-.63.65-.25.93 1.13.84 2.85.18 3.21-1.15.08-.31-.16-.64-.48-.63-.31 0-.62.01-.93.01.04.33.09.65.13.98 2.81-.51 5.69-.56 8.52-.15.63.09.9-.87.27-.96-3.02-.44-6.05-.39-9.05.15-.56.1-.42.99.13.98.31 0 .62-.01.93-.01l-.48-.63c-.21.76-1.14 1-1.74.55-.08.31-.17.62-.25.93l1.01-.03c.55-.01.7-.84.13-.98-4.15-1.01-8.47.06-12.63-.85-.04.33-.09.65-.13.98l5.8-.03c.95 0 1.89-.02 2.84-.01.67 0 1.59-.02 2.03.59.19-.24.38-.49.56-.73-2.18-.6-4.52-.28-6.45.9-.56.32-.06 1.19.49.85zM471.27 399.54c.18.23.35.46.53.69l.71-.71c-.32-.31-.64-.62-.96-.94-.16.28-.32.56-.49.84.46.18.8.95.99 1.36.25.54.42 1.13.53 1.72.25 1.35.17 2.74.1 4.1-.03.6.8.63.98.13.89-2.42.61-5.03.7-7.56.02-.65-.95-.64-1 0-.08 1.16-.17 2.31-.25 3.47.33-.04.65-.09.98-.13-.19-1.15-.26-2.32-.23-3.48h-1c.01.72 0 1.43-.02 2.15-.02.64.98.64 1 0 .02-.72.03-1.43.02-2.15-.01-.64-.98-.64-1 0-.03 1.26.06 2.51.27 3.75.1.59.94.39.98-.13.08-1.16.17-2.31.25-3.47h-1c-.08 2.44.2 4.96-.66 7.29.33.04.65.09.98.13.08-1.58.14-3.19-.22-4.74-.15-.67-.39-1.32-.72-1.92-.33-.61-.75-1.22-1.42-1.48-.48-.19-.82.51-.49.84.32.31.64.62.96.94.47.46 1.09-.21.71-.71-.18-.23-.35-.46-.53-.69-.17-.22-.53-.17-.71 0-.21.21-.16.49.01.7z"/><path class="st3" d="M475.69 398.59c-1.87 1.7-2.4 4.23-2.58 6.65-.21 2.9-.31 5.81-.45 8.72-.03.65.95.64 1 0 .28-3.72.56-7.45.83-11.17.05-.65-.94-.63-1 0-.59 6.29-.92 12.6-.99 18.92-.01.64.99.64 1 0 .07-6.32.4-12.63.99-18.92h-1c-.28 3.72-.56 7.45-.83 11.17h1c.14-2.67.26-5.35.41-8.03.14-2.38.47-4.95 2.33-6.64.47-.42-.24-1.13-.71-.7z"/><path class="st3" d="M473.3 405.62c-.5 6.6-.84 13.2-1.04 19.82-.02.64.98.64 1 0 .2-6.61.55-13.22 1.04-19.82.05-.64-.95-.64-1 0z"/><path class="st3" d="M473.22 413.23a159.345 159.345 0 00-.55 10.79c-.02.95-.12 2.01.47 2.82.28.38.93.28.93-.25.04-3.9.09-7.8.13-11.7.01-.64-.99-.64-1 0-.04 3.9-.09 7.8-.13 11.7.31-.08.62-.17.93-.25-.59-.81-.34-2.11-.32-3.05a168.104 168.104 0 01.54-10.06c.05-.64-.95-.63-1 0z"/><path class="st3" d="M473.29 405.85c-.08 2.75-.15 5.5-.23 8.25-.02.64.98.64 1 0 .08-2.75.15-5.5.23-8.25.02-.64-.98-.64-1 0zM477.17 398.98c.64 0 .64-1 0-1-.65 0-.65 1 0 1z"/><path class="st3" d="M475.27 396.63h-2.6v1c.8-.06 1.59.02 2.36.24.15.04.29.08.42.15.06.03.09.06.13.1.06.06.05.06.09.11.23.32.43.59.81.72.25.09.55-.1.62-.35.08-.28-.09-.53-.35-.62.05.02 0 0-.02-.01.04.03 0 0-.02-.02-.08-.08-.05-.04-.1-.12-.1-.14-.2-.29-.32-.42-.29-.29-.69-.42-1.07-.53-.83-.23-1.7-.32-2.55-.26-.27.02-.5.22-.5.5 0 .27.23.5.5.5h2.6c.64.01.64-.99 0-.99z"/><path class="st3" d="M477.77 398.38c-.03-.05-.05-.11-.08-.16a.295.295 0 00-.13-.14.46.46 0 00-.37-.1.33.33 0 00-.19.06c-.03.03-.07.05-.1.08-.06.06-.1.14-.13.22-.01.04-.01.09-.02.13 0 .09.02.17.07.25.03.05.05.11.08.16.03.06.07.11.13.14a.46.46 0 00.37.1c.07 0 .13-.02.19-.06.03-.03.07-.05.1-.08.06-.06.1-.14.13-.22.01-.04.01-.09.02-.13 0-.09-.03-.17-.07-.25zM477.09 397.15c.64 0 .64-1 0-1s-.65 1 0 1z"/><path class="st3" d="M477.09 397c.64 0 .64-1 0-1s-.65 1 0 1z"/><path class="st3" d="M477.09 395.97c-4.63-.06-9.25.23-13.84.85-.63.09-.36 1.05.27.96 4.5-.61 9.04-.87 13.57-.81.64.01.64-.99 0-1z"/><path class="st3" d="M464.72 400.06c1.93 0 1.93-3 0-3s-1.93 3 0 3z"/><path class="st3" d="M465.69 399.46c.06.11.08.23.07.35-.01.06-.11.27-.02.14-.04.05-.12.13-.03.04.04-.04.09-.08.13-.12.09-.09-.22.16 0 0 .05-.03.09-.07.14-.1l.32-.23c.41-.3.82-.64 1.28-.87.03-.02.15-.1.05-.03-.1.08.05-.01.09-.02.04-.01.1-.01.14-.03-.15.02-.18.02-.11.01.02 0 .04 0 .07-.01.21-.02.42-.01.63-.02.62-.03 1.17-.17 1.63-.6.39-.36.39-1.06 0-1.41-.41-.38-1-.38-1.41 0-.17.15.16-.15.01-.01-.02.01-.04.02-.05.03.14-.06.17-.07.1-.05-.05.01-.1.02-.15.04-.21.05.23-.01.01 0s-.44.01-.66.02c-.67.04-1.26.25-1.81.63-.51.35-1.02.71-1.51 1.09-.67.52-1.08 1.34-.64 2.16.25.46.93.64 1.37.36.46-.3.62-.88.35-1.37zM423.63 397.85c3.07.65 6.23.8 9.35.39.54-.07 1-.41 1-1 0-.57-.46-.97-1-1a59.77 59.77 0 00-8.14.07c-.54.04-1 .43-1 1 0 .51.46 1.04 1 1 2.71-.21 5.43-.23 8.14-.07v-2c-2.94.38-5.92.29-8.81-.32-.53-.11-1.08.16-1.23.7-.14.5.16 1.12.69 1.23z"/><path class="st3" d="M412.57 397.94c.16-.15.54.01.71.05.41.11.8.22 1.22.27.88.11 1.77.08 2.65.08 1.88.01 3.76.03 5.63.04 1.29.01 1.29-1.99 0-2-2.09-.02-4.19-.03-6.28-.05-.93-.01-1.78-.03-2.68-.28-.95-.26-1.9-.26-2.65.46-.95.91.47 2.32 1.4 1.43z"/><path class="st3" d="M410.92 398.07c.3-.22.59-.18.95-.17.47.02.95.05 1.42.07l3.08.15c2.05.1 4.1.2 6.16.31.87.04 1.32-1.12.71-1.71-.09-.09-.18-.17-.27-.26-.93-.89-2.35.52-1.41 1.41.09.09.18.17.27.26.24-.57.47-1.14.71-1.71l-6.63-.33c-1.1-.05-2.21-.11-3.31-.16-.9-.04-1.9-.17-2.67.41-.43.32-.65.86-.36 1.37.23.43.91.69 1.35.36z"/><path class="st3" d="M416.75 398.06c2.8-.3 5.61-.27 8.4.08.54.07 1-.51 1-1 0-.6-.46-.93-1-1-2.79-.36-5.61-.39-8.4-.08-.54.06-1 .42-1 1 0 .49.46 1.06 1 1z"/><path class="st3" d="M425.55 397.99c1.46-.09 2.91-.05 4.36.13.24.03.55-.13.71-.29.17-.17.3-.46.29-.71-.03-.6-.44-.93-1-1a23.55 23.55 0 00-4.36-.13c-.52.03-1.03.44-1 1 .02.51.44 1.03 1 1z"/><path class="st3" d="M430.78 398.11l13.72.18c4.5.06 9.07-.1 13.55.42 1.28.15 1.27-1.86 0-2-4.48-.51-9.05-.36-13.55-.42l-13.72-.18c-1.29-.01-1.29 1.99 0 2z"/><g><path class="st3" d="M435.25 398.17c.43-.08.86-.11 1.3-.13 1.28-.04 1.29-2.03 0-2-.68.02-1.35.03-2.03.05-.54.01-1 .45-1 1 0 .6.46.93 1 1 1.51.2 3 .15 4.51-.09 1.13-.18.84-1.97-.27-1.96-.66 0-1.31 0-1.97.01v2c3.06-.03 6.11.07 9.16.28l-.27-1.96c-1.09.27-2.17.19-3.22-.19-1.21-.43-1.74 1.5-.53 1.93 1.38.49 2.86.54 4.29.19 1.14-.28.82-1.89-.27-1.96-3.05-.22-6.1-.31-9.16-.28-1.29.01-1.29 2 0 2 .66 0 1.31 0 1.97-.01l-.27-1.96c-1.32.21-2.66.19-3.98.02v2c.68-.02 1.35-.03 2.03-.05v-2c-.62.02-1.23.09-1.84.2-.53.1-.83.74-.7 1.23.17.54.71.77 1.25.68z"/></g><g><path class="st3" d="M442.91 397.99c3.3-.18 6.59-.18 9.87.28.53.08 1.07-.13 1.23-.7.13-.47-.16-1.15-.7-1.23-3.47-.49-6.91-.54-10.4-.35-1.28.07-1.28 2.07 0 2z"/></g><g><path class="st3" d="M450.6 398.05c5.32-.01 10.64.25 15.93.77 1.28.13 1.27-1.88 0-2-5.3-.52-10.61-.77-15.93-.77-1.28 0-1.28 2 0 2z"/></g><g><path class="st3" d="M456 398.06c4.71-.08 9.42.12 14.1.6 1.28.13 1.27-1.87 0-2-4.69-.48-9.39-.68-14.1-.6-1.29.02-1.29 2.02 0 2z"/></g><g><path class="st3" d="M462.5 398.06c2.61-.21 5.23-.19 7.84.06.54.05 1-.5 1-1 0-.58-.46-.95-1-1-2.61-.25-5.23-.26-7.84-.06-.54.04-1 .43-1 1 0 .5.46 1.04 1 1z"/></g></g><g id="Layer_2"><path class="st4" d="M505.43 470.71l7.72-54.28h.88l22.06 44.51 21.81-44.51h.88l7.83 54.28h-5.38l-5.31-38.83-19.17 38.83h-1.39l-19.43-39.09-5.27 39.09h-5.23zM599.43 416.29l25.28 54.28h-5.78l-8.53-17.9h-23.42l-8.45 17.9h-6.07l25.65-54.28h1.32zm-.66 11.49l-9.37 19.69h18.59l-9.22-19.69zM633.06 416.29h10.79c6.22 0 10.4.27 12.55.81 3.12.78 5.66 2.35 7.61 4.72 1.95 2.37 2.93 5.36 2.93 8.97 0 3.59-.96 6.56-2.87 8.91-1.92 2.35-4.56 3.93-7.92 4.74-2.46.59-7.06.88-13.79.88h-3.88v25.25h-5.42v-54.28zm5.41 5.27v18.45l9.22.11c3.68 0 6.39-.33 8.11-1.01 1.72-.67 3.07-1.77 4.06-3.29.99-1.52 1.48-3.2 1.48-5.03 0-1.85-.49-3.54-1.48-5.05-.99-1.51-2.29-2.59-3.9-3.22-1.61-.63-4.24-.95-7.9-.95h-9.59z"/></g><g id="Layer_3"><ellipse class="st3" cx="451.5" cy="341" rx="5.5" ry="6"/><path class="st3" d="M447.84 352.32c-.44 1.33-.9 2.69-1.81 3.76-1.29 1.52-3.28 2.22-5.2 2.75-.92.25-1.85.48-2.68.95-.83.47-1.55 1.22-1.73 2.16s.31 2.02 1.22 2.3c.67.2 1.38-.04 2.03-.28 2.59-.96 5.17-1.92 7.76-2.88 3.25-1.21 2.68-4.46 4.39-6.89-.07.3-.08.37-.11.68-.12 1.22-.24 2.45-.35 3.67-.09.89-.18 1.8-.6 2.59-.93 1.74-3.1 2.31-5.03 2.71-.5.1-.37 10.16-.39 11.07-.05 2.88-.04 5.76.03 8.64.06 2.49-.08 5.06 1.08 7.35.19.37.43.72.78.94.92.58 2.15.05 3.2.3-.68-1.05-.7-2.38-.71-3.63 0-3.03 0-6.06.12-9.08.09-2.29-.12-4.59-.03-6.88 0 .03 1.34-.06 1.45-.06.47 5.71-.28 11.34.55 17.03.17 1.15.57 2.49 1.67 2.87 1.04.36 2.35-.31 2.92-1.2.35-.55.4-1.23.44-1.88.73-11.85.52-23.77.76-35.63.03-1.37.02-2.85-.77-3.97-1.22-1.74-3.72-1.89-5.84-1.67-1.66.17-3.8.57-4.62 2.19-.41.8-.54 1.71-.67 2.6l-.39 2.68c.68-1.15 1.62-2.28 2.51-3.28"/><circle class="st3" cx="423" cy="341" r="6"/><path class="st3" d="M423.52 347.87c-2.6-.07-5.25.79-6.09 3.56-.31 1.01-.32 2.08-.33 3.13l-.12 12.11c-.08 7.47-1.28 14.82-1.69 22.25-.03.58-.06 1.18.18 1.71.27.59.84.99 1.45 1.19s1.27.23 1.91.24c.34 0 .7 0 1.01-.14.66-.29.77-1.18.85-1.81.75-5.78 1.34-11.57 1.74-17.39.56-.03 1.08-.07 1.64.02.82 1.73 1.16 3.8 1.48 5.69.67 4.06 1.78 8.04 3.29 11.86.29.72.63 1.49 1.29 1.9 1.07.67 2.98.22 3.57-.86.83-1.53-.15-4.08-.62-5.57-.76-2.43-1.63-4.95-2.09-7.46-.44-2.38-1.41-4.55-2-6.9-.64-2.56-.53-5.24-.42-7.87-1.69-.33-4.76-.74-5.4-2.65-.2-.6-.21-1.25-.24-1.88-.08-1.52-.29-3.04-.64-4.53.57 1.31 1.13 2.62 1.7 3.93.31.73.64 1.47 1.2 2.03.44.44.99.74 1.54 1.01 2.57 1.24 5.37 1.93 8.14 2.61-.7-1.53-.62-3.45.23-4.91-1.84-.64-3.67-1.31-5.5-2-.41-.15-.83-.31-1.14-.61-.37-.34-.56-.82-.75-1.29-.42-1.07-.85-2.14-1.27-3.21.48.83 1.1 1.59 1.82 2.23.11-1.17.21-2.37-.14-3.49-.47-1.49-1.41-2.51-3-2.77-.53-.07-1.06-.12-1.6-.13z"/></g></svg>